%TF.GenerationSoftware,KiCad,Pcbnew,5.99.0-unknown-a0c54951d~102~ubuntu18.04.1*%
%TF.CreationDate,2020-08-17T14:08:57+02:00*%
%TF.ProjectId,AMPEL,414d5045-4c2e-46b6-9963-61645f706362,rev?*%
%TF.SameCoordinates,Original*%
%TF.FileFunction,Legend,Top*%
%TF.FilePolarity,Positive*%
%FSLAX46Y46*%
G04 Gerber Fmt 4.6, Leading zero omitted, Abs format (unit mm)*
G04 Created by KiCad (PCBNEW 5.99.0-unknown-a0c54951d~102~ubuntu18.04.1) date 2020-08-17 14:08:57*
%MOMM*%
%LPD*%
G01*
G04 APERTURE LIST*
%ADD10C,0.150000*%
%ADD11C,0.300000*%
%ADD12C,0.010000*%
%ADD13C,0.120000*%
G04 APERTURE END LIST*
D10*
X156561904Y-71452380D02*
X156561904Y-70452380D01*
X156990476Y-71452380D02*
X156990476Y-70928571D01*
X156942857Y-70833333D01*
X156847619Y-70785714D01*
X156704761Y-70785714D01*
X156609523Y-70833333D01*
X156561904Y-70880952D01*
X157323809Y-70785714D02*
X157704761Y-70785714D01*
X157466666Y-70452380D02*
X157466666Y-71309523D01*
X157514285Y-71404761D01*
X157609523Y-71452380D01*
X157704761Y-71452380D01*
X157895238Y-70785714D02*
X158276190Y-70785714D01*
X158038095Y-70452380D02*
X158038095Y-71309523D01*
X158085714Y-71404761D01*
X158180952Y-71452380D01*
X158276190Y-71452380D01*
X158609523Y-70785714D02*
X158609523Y-71785714D01*
X158609523Y-70833333D02*
X158704761Y-70785714D01*
X158895238Y-70785714D01*
X158990476Y-70833333D01*
X159038095Y-70880952D01*
X159085714Y-70976190D01*
X159085714Y-71261904D01*
X159038095Y-71357142D01*
X158990476Y-71404761D01*
X158895238Y-71452380D01*
X158704761Y-71452380D01*
X158609523Y-71404761D01*
X159466666Y-71404761D02*
X159561904Y-71452380D01*
X159752380Y-71452380D01*
X159847619Y-71404761D01*
X159895238Y-71309523D01*
X159895238Y-71261904D01*
X159847619Y-71166666D01*
X159752380Y-71119047D01*
X159609523Y-71119047D01*
X159514285Y-71071428D01*
X159466666Y-70976190D01*
X159466666Y-70928571D01*
X159514285Y-70833333D01*
X159609523Y-70785714D01*
X159752380Y-70785714D01*
X159847619Y-70833333D01*
X160323809Y-71357142D02*
X160371428Y-71404761D01*
X160323809Y-71452380D01*
X160276190Y-71404761D01*
X160323809Y-71357142D01*
X160323809Y-71452380D01*
X160323809Y-70833333D02*
X160371428Y-70880952D01*
X160323809Y-70928571D01*
X160276190Y-70880952D01*
X160323809Y-70833333D01*
X160323809Y-70928571D01*
X161514285Y-70404761D02*
X160657142Y-71690476D01*
X162561904Y-70404761D02*
X161704761Y-71690476D01*
X163323809Y-70785714D02*
X163323809Y-71595238D01*
X163276190Y-71690476D01*
X163228571Y-71738095D01*
X163133333Y-71785714D01*
X162990476Y-71785714D01*
X162895238Y-71738095D01*
X163323809Y-71404761D02*
X163228571Y-71452380D01*
X163038095Y-71452380D01*
X162942857Y-71404761D01*
X162895238Y-71357142D01*
X162847619Y-71261904D01*
X162847619Y-70976190D01*
X162895238Y-70880952D01*
X162942857Y-70833333D01*
X163038095Y-70785714D01*
X163228571Y-70785714D01*
X163323809Y-70833333D01*
X163800000Y-71452380D02*
X163800000Y-70785714D01*
X163800000Y-70452380D02*
X163752380Y-70500000D01*
X163800000Y-70547619D01*
X163847619Y-70500000D01*
X163800000Y-70452380D01*
X163800000Y-70547619D01*
X164133333Y-70785714D02*
X164514285Y-70785714D01*
X164276190Y-70452380D02*
X164276190Y-71309523D01*
X164323809Y-71404761D01*
X164419047Y-71452380D01*
X164514285Y-71452380D01*
X164847619Y-71452380D02*
X164847619Y-70452380D01*
X165276190Y-71452380D02*
X165276190Y-70928571D01*
X165228571Y-70833333D01*
X165133333Y-70785714D01*
X164990476Y-70785714D01*
X164895238Y-70833333D01*
X164847619Y-70880952D01*
X166180952Y-70785714D02*
X166180952Y-71452380D01*
X165752380Y-70785714D02*
X165752380Y-71309523D01*
X165800000Y-71404761D01*
X165895238Y-71452380D01*
X166038095Y-71452380D01*
X166133333Y-71404761D01*
X166180952Y-71357142D01*
X166657142Y-71452380D02*
X166657142Y-70452380D01*
X166657142Y-70833333D02*
X166752380Y-70785714D01*
X166942857Y-70785714D01*
X167038095Y-70833333D01*
X167085714Y-70880952D01*
X167133333Y-70976190D01*
X167133333Y-71261904D01*
X167085714Y-71357142D01*
X167038095Y-71404761D01*
X166942857Y-71452380D01*
X166752380Y-71452380D01*
X166657142Y-71404761D01*
X167561904Y-71357142D02*
X167609523Y-71404761D01*
X167561904Y-71452380D01*
X167514285Y-71404761D01*
X167561904Y-71357142D01*
X167561904Y-71452380D01*
X168466666Y-71404761D02*
X168371428Y-71452380D01*
X168180952Y-71452380D01*
X168085714Y-71404761D01*
X168038095Y-71357142D01*
X167990476Y-71261904D01*
X167990476Y-70976190D01*
X168038095Y-70880952D01*
X168085714Y-70833333D01*
X168180952Y-70785714D01*
X168371428Y-70785714D01*
X168466666Y-70833333D01*
X169038095Y-71452380D02*
X168942857Y-71404761D01*
X168895238Y-71357142D01*
X168847619Y-71261904D01*
X168847619Y-70976190D01*
X168895238Y-70880952D01*
X168942857Y-70833333D01*
X169038095Y-70785714D01*
X169180952Y-70785714D01*
X169276190Y-70833333D01*
X169323809Y-70880952D01*
X169371428Y-70976190D01*
X169371428Y-71261904D01*
X169323809Y-71357142D01*
X169276190Y-71404761D01*
X169180952Y-71452380D01*
X169038095Y-71452380D01*
X169800000Y-71452380D02*
X169800000Y-70785714D01*
X169800000Y-70880952D02*
X169847619Y-70833333D01*
X169942857Y-70785714D01*
X170085714Y-70785714D01*
X170180952Y-70833333D01*
X170228571Y-70928571D01*
X170228571Y-71452380D01*
X170228571Y-70928571D02*
X170276190Y-70833333D01*
X170371428Y-70785714D01*
X170514285Y-70785714D01*
X170609523Y-70833333D01*
X170657142Y-70928571D01*
X170657142Y-71452380D01*
X171847619Y-70404761D02*
X170990476Y-71690476D01*
X172038095Y-70785714D02*
X172419047Y-70785714D01*
X172180952Y-70452380D02*
X172180952Y-71309523D01*
X172228571Y-71404761D01*
X172323809Y-71452380D01*
X172419047Y-71452380D01*
X173180952Y-71452380D02*
X173180952Y-70452380D01*
X173180952Y-71404761D02*
X173085714Y-71452380D01*
X172895238Y-71452380D01*
X172800000Y-71404761D01*
X172752380Y-71357142D01*
X172704761Y-71261904D01*
X172704761Y-70976190D01*
X172752380Y-70880952D01*
X172800000Y-70833333D01*
X172895238Y-70785714D01*
X173085714Y-70785714D01*
X173180952Y-70833333D01*
X173800000Y-71452380D02*
X173704761Y-71404761D01*
X173657142Y-71357142D01*
X173609523Y-71261904D01*
X173609523Y-70976190D01*
X173657142Y-70880952D01*
X173704761Y-70833333D01*
X173800000Y-70785714D01*
X173942857Y-70785714D01*
X174038095Y-70833333D01*
X174085714Y-70880952D01*
X174133333Y-70976190D01*
X174133333Y-71261904D01*
X174085714Y-71357142D01*
X174038095Y-71404761D01*
X173942857Y-71452380D01*
X173800000Y-71452380D01*
X174419047Y-70785714D02*
X174800000Y-70785714D01*
X174561904Y-70452380D02*
X174561904Y-71309523D01*
X174609523Y-71404761D01*
X174704761Y-71452380D01*
X174800000Y-71452380D01*
X175561904Y-70785714D02*
X175561904Y-71452380D01*
X175133333Y-70785714D02*
X175133333Y-71309523D01*
X175180952Y-71404761D01*
X175276190Y-71452380D01*
X175419047Y-71452380D01*
X175514285Y-71404761D01*
X175561904Y-71357142D01*
X176752380Y-70404761D02*
X175895238Y-71690476D01*
X177514285Y-71452380D02*
X177514285Y-70928571D01*
X177466666Y-70833333D01*
X177371428Y-70785714D01*
X177180952Y-70785714D01*
X177085714Y-70833333D01*
X177514285Y-71404761D02*
X177419047Y-71452380D01*
X177180952Y-71452380D01*
X177085714Y-71404761D01*
X177038095Y-71309523D01*
X177038095Y-71214285D01*
X177085714Y-71119047D01*
X177180952Y-71071428D01*
X177419047Y-71071428D01*
X177514285Y-71023809D01*
X177990476Y-71452380D02*
X177990476Y-70785714D01*
X177990476Y-70880952D02*
X178038095Y-70833333D01*
X178133333Y-70785714D01*
X178276190Y-70785714D01*
X178371428Y-70833333D01*
X178419047Y-70928571D01*
X178419047Y-71452380D01*
X178419047Y-70928571D02*
X178466666Y-70833333D01*
X178561904Y-70785714D01*
X178704761Y-70785714D01*
X178800000Y-70833333D01*
X178847619Y-70928571D01*
X178847619Y-71452380D01*
X179323809Y-70785714D02*
X179323809Y-71785714D01*
X179323809Y-70833333D02*
X179419047Y-70785714D01*
X179609523Y-70785714D01*
X179704761Y-70833333D01*
X179752380Y-70880952D01*
X179800000Y-70976190D01*
X179800000Y-71261904D01*
X179752380Y-71357142D01*
X179704761Y-71404761D01*
X179609523Y-71452380D01*
X179419047Y-71452380D01*
X179323809Y-71404761D01*
X180609523Y-71404761D02*
X180514285Y-71452380D01*
X180323809Y-71452380D01*
X180228571Y-71404761D01*
X180180952Y-71309523D01*
X180180952Y-70928571D01*
X180228571Y-70833333D01*
X180323809Y-70785714D01*
X180514285Y-70785714D01*
X180609523Y-70833333D01*
X180657142Y-70928571D01*
X180657142Y-71023809D01*
X180180952Y-71119047D01*
X181228571Y-71452380D02*
X181133333Y-71404761D01*
X181085714Y-71309523D01*
X181085714Y-70452380D01*
X181561904Y-70547619D02*
X181609523Y-70500000D01*
X181704761Y-70452380D01*
X181942857Y-70452380D01*
X182038095Y-70500000D01*
X182085714Y-70547619D01*
X182133333Y-70642857D01*
X182133333Y-70738095D01*
X182085714Y-70880952D01*
X181514285Y-71452380D01*
X182133333Y-71452380D01*
X183085714Y-71452380D02*
X182514285Y-71452380D01*
X182800000Y-71452380D02*
X182800000Y-70452380D01*
X182704761Y-70595238D01*
X182609523Y-70690476D01*
X182514285Y-70738095D01*
X195580000Y-79502000D02*
X195580000Y-80848200D01*
X141500000Y-84400000D02*
X141500000Y-89300000D01*
X193700400Y-68580000D02*
X198882000Y-68580000D01*
X198882000Y-68580000D02*
X198882000Y-79527400D01*
X198882000Y-79527400D02*
X193700400Y-79527400D01*
X193700400Y-79527400D02*
X193700400Y-68580000D01*
X203700000Y-84000000D02*
X203700000Y-89100000D01*
X199600000Y-84000000D02*
X207700000Y-84000000D01*
X207700000Y-84000000D02*
X207700000Y-89100000D01*
X207700000Y-89100000D02*
X199600000Y-89100000D01*
X199600000Y-89100000D02*
X199600000Y-84000000D01*
X197495760Y-70993000D02*
G75*
G03*
X197495760Y-70993000I-1204560J0D01*
G01*
X199600000Y-85700000D02*
X207700000Y-85700000D01*
X195580000Y-80848200D02*
X196596000Y-80848200D01*
X137900000Y-85900000D02*
X145200000Y-85900000D01*
X199600000Y-87300000D02*
X207700000Y-87300000D01*
X197495760Y-74002900D02*
G75*
G03*
X197495760Y-74002900I-1204560J0D01*
G01*
X137900000Y-84400000D02*
X145200000Y-84400000D01*
X145200000Y-84400000D02*
X145200000Y-89300000D01*
X145200000Y-89300000D02*
X137900000Y-89300000D01*
X137900000Y-89300000D02*
X137900000Y-84400000D01*
X196596000Y-80848200D02*
X196596000Y-79578200D01*
X137900000Y-87600000D02*
X145200000Y-87600000D01*
X197495760Y-77012800D02*
G75*
G03*
X197495760Y-77012800I-1204560J0D01*
G01*
D11*
X150198571Y-107561771D02*
X149698571Y-106847485D01*
X149341428Y-107561771D02*
X149341428Y-106061771D01*
X149912857Y-106061771D01*
X150055714Y-106133200D01*
X150127142Y-106204628D01*
X150198571Y-106347485D01*
X150198571Y-106561771D01*
X150127142Y-106704628D01*
X150055714Y-106776057D01*
X149912857Y-106847485D01*
X149341428Y-106847485D01*
X155698571Y-106061771D02*
X155984285Y-106061771D01*
X156127142Y-106133200D01*
X156270000Y-106276057D01*
X156341428Y-106561771D01*
X156341428Y-107061771D01*
X156270000Y-107347485D01*
X156127142Y-107490342D01*
X155984285Y-107561771D01*
X155698571Y-107561771D01*
X155555714Y-107490342D01*
X155412857Y-107347485D01*
X155341428Y-107061771D01*
X155341428Y-106561771D01*
X155412857Y-106276057D01*
X155555714Y-106133200D01*
X155698571Y-106061771D01*
X161198571Y-106133200D02*
X161055714Y-106061771D01*
X160841428Y-106061771D01*
X160627142Y-106133200D01*
X160484285Y-106276057D01*
X160412857Y-106418914D01*
X160341428Y-106704628D01*
X160341428Y-106918914D01*
X160412857Y-107204628D01*
X160484285Y-107347485D01*
X160627142Y-107490342D01*
X160841428Y-107561771D01*
X160984285Y-107561771D01*
X161198571Y-107490342D01*
X161269999Y-107418914D01*
X161269999Y-106918914D01*
X160984285Y-106918914D01*
X153955085Y-104439257D02*
X154169371Y-104510685D01*
X154240800Y-104582114D01*
X154312228Y-104724971D01*
X154312228Y-104939257D01*
X154240800Y-105082114D01*
X154169371Y-105153542D01*
X154026514Y-105224971D01*
X153455085Y-105224971D01*
X153455085Y-103724971D01*
X153955085Y-103724971D01*
X154097942Y-103796400D01*
X154169371Y-103867828D01*
X154240800Y-104010685D01*
X154240800Y-104153542D01*
X154169371Y-104296400D01*
X154097942Y-104367828D01*
X153955085Y-104439257D01*
X153455085Y-104439257D01*
X154955085Y-105224971D02*
X154955085Y-103724971D01*
X155955085Y-103724971D02*
X156240800Y-103724971D01*
X156383657Y-103796400D01*
X156526514Y-103939257D01*
X156597942Y-104224971D01*
X156597942Y-104724971D01*
X156526514Y-105010685D01*
X156383657Y-105153542D01*
X156240800Y-105224971D01*
X155955085Y-105224971D01*
X155812228Y-105153542D01*
X155669371Y-105010685D01*
X155597942Y-104724971D01*
X155597942Y-104224971D01*
X155669371Y-103939257D01*
X155812228Y-103796400D01*
X155955085Y-103724971D01*
X186698571Y-107561771D02*
X186198571Y-106847485D01*
X185841428Y-107561771D02*
X185841428Y-106061771D01*
X186412857Y-106061771D01*
X186555714Y-106133200D01*
X186627142Y-106204628D01*
X186698571Y-106347485D01*
X186698571Y-106561771D01*
X186627142Y-106704628D01*
X186555714Y-106776057D01*
X186412857Y-106847485D01*
X185841428Y-106847485D01*
X192198571Y-106061771D02*
X192484285Y-106061771D01*
X192627142Y-106133200D01*
X192770000Y-106276057D01*
X192841428Y-106561771D01*
X192841428Y-107061771D01*
X192770000Y-107347485D01*
X192627142Y-107490342D01*
X192484285Y-107561771D01*
X192198571Y-107561771D01*
X192055714Y-107490342D01*
X191912857Y-107347485D01*
X191841428Y-107061771D01*
X191841428Y-106561771D01*
X191912857Y-106276057D01*
X192055714Y-106133200D01*
X192198571Y-106061771D01*
X197698571Y-106133200D02*
X197555714Y-106061771D01*
X197341428Y-106061771D01*
X197127142Y-106133200D01*
X196984285Y-106276057D01*
X196912857Y-106418914D01*
X196841428Y-106704628D01*
X196841428Y-106918914D01*
X196912857Y-107204628D01*
X196984285Y-107347485D01*
X197127142Y-107490342D01*
X197341428Y-107561771D01*
X197484285Y-107561771D01*
X197698571Y-107490342D01*
X197769999Y-107418914D01*
X197769999Y-106918914D01*
X197484285Y-106918914D01*
D10*
X196362628Y-70972371D02*
X196505485Y-71019990D01*
X196553104Y-71067609D01*
X196600723Y-71162847D01*
X196600723Y-71305704D01*
X196553104Y-71400942D01*
X196505485Y-71448561D01*
X196410247Y-71496180D01*
X196029295Y-71496180D01*
X196029295Y-70496180D01*
X196362628Y-70496180D01*
X196457866Y-70543800D01*
X196505485Y-70591419D01*
X196553104Y-70686657D01*
X196553104Y-70781895D01*
X196505485Y-70877133D01*
X196457866Y-70924752D01*
X196362628Y-70972371D01*
X196029295Y-70972371D01*
X138404761Y-85642380D02*
X138404761Y-84642380D01*
X138785714Y-84642380D01*
X138880952Y-84690000D01*
X138928571Y-84737619D01*
X138976190Y-84832857D01*
X138976190Y-84975714D01*
X138928571Y-85070952D01*
X138880952Y-85118571D01*
X138785714Y-85166190D01*
X138404761Y-85166190D01*
X139976190Y-85547142D02*
X139928571Y-85594761D01*
X139785714Y-85642380D01*
X139690476Y-85642380D01*
X139547619Y-85594761D01*
X139452380Y-85499523D01*
X139404761Y-85404285D01*
X139357142Y-85213809D01*
X139357142Y-85070952D01*
X139404761Y-84880476D01*
X139452380Y-84785238D01*
X139547619Y-84690000D01*
X139690476Y-84642380D01*
X139785714Y-84642380D01*
X139928571Y-84690000D01*
X139976190Y-84737619D01*
X140595238Y-84642380D02*
X140690476Y-84642380D01*
X140785714Y-84690000D01*
X140833333Y-84737619D01*
X140880952Y-84832857D01*
X140928571Y-85023333D01*
X140928571Y-85261428D01*
X140880952Y-85451904D01*
X140833333Y-85547142D01*
X140785714Y-85594761D01*
X140690476Y-85642380D01*
X140595238Y-85642380D01*
X140500000Y-85594761D01*
X140452380Y-85547142D01*
X140404761Y-85451904D01*
X140357142Y-85261428D01*
X140357142Y-85023333D01*
X140404761Y-84832857D01*
X140452380Y-84737619D01*
X140500000Y-84690000D01*
X140595238Y-84642380D01*
X142119047Y-85642380D02*
X142119047Y-84642380D01*
X142500000Y-84642380D01*
X142595238Y-84690000D01*
X142642857Y-84737619D01*
X142690476Y-84832857D01*
X142690476Y-84975714D01*
X142642857Y-85070952D01*
X142595238Y-85118571D01*
X142500000Y-85166190D01*
X142119047Y-85166190D01*
X143690476Y-85547142D02*
X143642857Y-85594761D01*
X143500000Y-85642380D01*
X143404761Y-85642380D01*
X143261904Y-85594761D01*
X143166666Y-85499523D01*
X143119047Y-85404285D01*
X143071428Y-85213809D01*
X143071428Y-85070952D01*
X143119047Y-84880476D01*
X143166666Y-84785238D01*
X143261904Y-84690000D01*
X143404761Y-84642380D01*
X143500000Y-84642380D01*
X143642857Y-84690000D01*
X143690476Y-84737619D01*
X144642857Y-85642380D02*
X144071428Y-85642380D01*
X144357142Y-85642380D02*
X144357142Y-84642380D01*
X144261904Y-84785238D01*
X144166666Y-84880476D01*
X144071428Y-84928095D01*
X138404761Y-87252380D02*
X138404761Y-86252380D01*
X138785714Y-86252380D01*
X138880952Y-86300000D01*
X138928571Y-86347619D01*
X138976190Y-86442857D01*
X138976190Y-86585714D01*
X138928571Y-86680952D01*
X138880952Y-86728571D01*
X138785714Y-86776190D01*
X138404761Y-86776190D01*
X139404761Y-87252380D02*
X139404761Y-86252380D01*
X139642857Y-86252380D01*
X139785714Y-86300000D01*
X139880952Y-86395238D01*
X139928571Y-86490476D01*
X139976190Y-86680952D01*
X139976190Y-86823809D01*
X139928571Y-87014285D01*
X139880952Y-87109523D01*
X139785714Y-87204761D01*
X139642857Y-87252380D01*
X139404761Y-87252380D01*
X140357142Y-86347619D02*
X140404761Y-86300000D01*
X140500000Y-86252380D01*
X140738095Y-86252380D01*
X140833333Y-86300000D01*
X140880952Y-86347619D01*
X140928571Y-86442857D01*
X140928571Y-86538095D01*
X140880952Y-86680952D01*
X140309523Y-87252380D01*
X140928571Y-87252380D01*
X142119047Y-87252380D02*
X142119047Y-86252380D01*
X142500000Y-86252380D01*
X142595238Y-86300000D01*
X142642857Y-86347619D01*
X142690476Y-86442857D01*
X142690476Y-86585714D01*
X142642857Y-86680952D01*
X142595238Y-86728571D01*
X142500000Y-86776190D01*
X142119047Y-86776190D01*
X143119047Y-87252380D02*
X143119047Y-86252380D01*
X143357142Y-86252380D01*
X143500000Y-86300000D01*
X143595238Y-86395238D01*
X143642857Y-86490476D01*
X143690476Y-86680952D01*
X143690476Y-86823809D01*
X143642857Y-87014285D01*
X143595238Y-87109523D01*
X143500000Y-87204761D01*
X143357142Y-87252380D01*
X143119047Y-87252380D01*
X144547619Y-86585714D02*
X144547619Y-87252380D01*
X144309523Y-86204761D02*
X144071428Y-86919047D01*
X144690476Y-86919047D01*
X138309523Y-88481428D02*
X139071428Y-88481428D01*
X138690476Y-88862380D02*
X138690476Y-88100476D01*
X140023809Y-87862380D02*
X139547619Y-87862380D01*
X139500000Y-88338571D01*
X139547619Y-88290952D01*
X139642857Y-88243333D01*
X139880952Y-88243333D01*
X139976190Y-88290952D01*
X140023809Y-88338571D01*
X140071428Y-88433809D01*
X140071428Y-88671904D01*
X140023809Y-88767142D01*
X139976190Y-88814761D01*
X139880952Y-88862380D01*
X139642857Y-88862380D01*
X139547619Y-88814761D01*
X139500000Y-88767142D01*
X140357142Y-87862380D02*
X140690476Y-88862380D01*
X141023809Y-87862380D01*
X142642857Y-87910000D02*
X142547619Y-87862380D01*
X142404761Y-87862380D01*
X142261904Y-87910000D01*
X142166666Y-88005238D01*
X142119047Y-88100476D01*
X142071428Y-88290952D01*
X142071428Y-88433809D01*
X142119047Y-88624285D01*
X142166666Y-88719523D01*
X142261904Y-88814761D01*
X142404761Y-88862380D01*
X142500000Y-88862380D01*
X142642857Y-88814761D01*
X142690476Y-88767142D01*
X142690476Y-88433809D01*
X142500000Y-88433809D01*
X143119047Y-88862380D02*
X143119047Y-87862380D01*
X143690476Y-88862380D01*
X143690476Y-87862380D01*
X144166666Y-88862380D02*
X144166666Y-87862380D01*
X144404761Y-87862380D01*
X144547619Y-87910000D01*
X144642857Y-88005238D01*
X144690476Y-88100476D01*
X144738095Y-88290952D01*
X144738095Y-88433809D01*
X144690476Y-88624285D01*
X144642857Y-88719523D01*
X144547619Y-88814761D01*
X144404761Y-88862380D01*
X144166666Y-88862380D01*
D11*
X192553400Y-78871971D02*
X192553400Y-78157685D01*
X192981971Y-79014828D02*
X191481971Y-78514828D01*
X192981971Y-78014828D01*
X192981971Y-77514828D02*
X191481971Y-77514828D01*
X192553400Y-77014828D01*
X191481971Y-76514828D01*
X192981971Y-76514828D01*
X192981971Y-75800542D02*
X191481971Y-75800542D01*
X191481971Y-75229114D01*
X191553400Y-75086257D01*
X191624828Y-75014828D01*
X191767685Y-74943400D01*
X191981971Y-74943400D01*
X192124828Y-75014828D01*
X192196257Y-75086257D01*
X192267685Y-75229114D01*
X192267685Y-75800542D01*
X192196257Y-74300542D02*
X192196257Y-73800542D01*
X192981971Y-73586257D02*
X192981971Y-74300542D01*
X191481971Y-74300542D01*
X191481971Y-73586257D01*
X192981971Y-72229114D02*
X192981971Y-72943400D01*
X191481971Y-72943400D01*
X191624828Y-71800542D02*
X191553400Y-71729114D01*
X191481971Y-71586257D01*
X191481971Y-71229114D01*
X191553400Y-71086257D01*
X191624828Y-71014828D01*
X191767685Y-70943400D01*
X191910542Y-70943400D01*
X192124828Y-71014828D01*
X192981971Y-71871971D01*
X192981971Y-70943400D01*
X192981971Y-69514828D02*
X192981971Y-70371971D01*
X192981971Y-69943400D02*
X191481971Y-69943400D01*
X191696257Y-70086257D01*
X191839114Y-70229114D01*
X191910542Y-70371971D01*
X123037742Y-105904600D02*
X122894885Y-105833171D01*
X122680600Y-105833171D01*
X122466314Y-105904600D01*
X122323457Y-106047457D01*
X122252028Y-106190314D01*
X122180600Y-106476028D01*
X122180600Y-106690314D01*
X122252028Y-106976028D01*
X122323457Y-107118885D01*
X122466314Y-107261742D01*
X122680600Y-107333171D01*
X122823457Y-107333171D01*
X123037742Y-107261742D01*
X123109171Y-107190314D01*
X123109171Y-106690314D01*
X122823457Y-106690314D01*
X123752028Y-107333171D02*
X123752028Y-105833171D01*
X124609171Y-107333171D01*
X124609171Y-105833171D01*
X125323457Y-107333171D02*
X125323457Y-105833171D01*
X125680600Y-105833171D01*
X125894885Y-105904600D01*
X126037742Y-106047457D01*
X126109171Y-106190314D01*
X126180600Y-106476028D01*
X126180600Y-106690314D01*
X126109171Y-106976028D01*
X126037742Y-107118885D01*
X125894885Y-107261742D01*
X125680600Y-107333171D01*
X125323457Y-107333171D01*
X131418000Y-105985571D02*
X130703714Y-105985571D01*
X130632285Y-106699857D01*
X130703714Y-106628428D01*
X130846571Y-106557000D01*
X131203714Y-106557000D01*
X131346571Y-106628428D01*
X131418000Y-106699857D01*
X131489428Y-106842714D01*
X131489428Y-107199857D01*
X131418000Y-107342714D01*
X131346571Y-107414142D01*
X131203714Y-107485571D01*
X130846571Y-107485571D01*
X130703714Y-107414142D01*
X130632285Y-107342714D01*
X131989428Y-106485571D02*
X132346571Y-107485571D01*
X132703714Y-106485571D01*
X134418000Y-107485571D02*
X134418000Y-105985571D01*
X134775142Y-105985571D01*
X134989428Y-106057000D01*
X135132285Y-106199857D01*
X135203714Y-106342714D01*
X135275142Y-106628428D01*
X135275142Y-106842714D01*
X135203714Y-107128428D01*
X135132285Y-107271285D01*
X134989428Y-107414142D01*
X134775142Y-107485571D01*
X134418000Y-107485571D01*
X135846571Y-107057000D02*
X136560857Y-107057000D01*
X135703714Y-107485571D02*
X136203714Y-105985571D01*
X136703714Y-107485571D01*
X136989428Y-105985571D02*
X137846571Y-105985571D01*
X137418000Y-107485571D02*
X137418000Y-105985571D01*
X138275142Y-107057000D02*
X138989428Y-107057000D01*
X138132285Y-107485571D02*
X138632285Y-105985571D01*
X139132285Y-107485571D01*
X141560857Y-106057000D02*
X141418000Y-105985571D01*
X141203714Y-105985571D01*
X140989428Y-106057000D01*
X140846571Y-106199857D01*
X140775142Y-106342714D01*
X140703714Y-106628428D01*
X140703714Y-106842714D01*
X140775142Y-107128428D01*
X140846571Y-107271285D01*
X140989428Y-107414142D01*
X141203714Y-107485571D01*
X141346571Y-107485571D01*
X141560857Y-107414142D01*
X141632285Y-107342714D01*
X141632285Y-106842714D01*
X141346571Y-106842714D01*
X142275142Y-107485571D02*
X142275142Y-105985571D01*
X143132285Y-107485571D01*
X143132285Y-105985571D01*
X143846571Y-107485571D02*
X143846571Y-105985571D01*
X144203714Y-105985571D01*
X144418000Y-106057000D01*
X144560857Y-106199857D01*
X144632285Y-106342714D01*
X144703714Y-106628428D01*
X144703714Y-106842714D01*
X144632285Y-107128428D01*
X144560857Y-107271285D01*
X144418000Y-107414142D01*
X144203714Y-107485571D01*
X143846571Y-107485571D01*
X197478571Y-88714285D02*
X195978571Y-88714285D01*
X197335714Y-87142857D02*
X197407142Y-87214285D01*
X197478571Y-87428571D01*
X197478571Y-87571428D01*
X197407142Y-87785714D01*
X197264285Y-87928571D01*
X197121428Y-88000000D01*
X196835714Y-88071428D01*
X196621428Y-88071428D01*
X196335714Y-88000000D01*
X196192857Y-87928571D01*
X196050000Y-87785714D01*
X195978571Y-87571428D01*
X195978571Y-87428571D01*
X196050000Y-87214285D01*
X196121428Y-87142857D01*
X197407142Y-86571428D02*
X197478571Y-86357142D01*
X197478571Y-86000000D01*
X197407142Y-85857142D01*
X197335714Y-85785714D01*
X197192857Y-85714285D01*
X197050000Y-85714285D01*
X196907142Y-85785714D01*
X196835714Y-85857142D01*
X196764285Y-86000000D01*
X196692857Y-86285714D01*
X196621428Y-86428571D01*
X196550000Y-86500000D01*
X196407142Y-86571428D01*
X196264285Y-86571428D01*
X196121428Y-86500000D01*
X196050000Y-86428571D01*
X195978571Y-86285714D01*
X195978571Y-85928571D01*
X196050000Y-85714285D01*
X197478571Y-85071428D02*
X195978571Y-85071428D01*
X195978571Y-84500000D01*
X196050000Y-84357142D01*
X196121428Y-84285714D01*
X196264285Y-84214285D01*
X196478571Y-84214285D01*
X196621428Y-84285714D01*
X196692857Y-84357142D01*
X196764285Y-84500000D01*
X196764285Y-85071428D01*
X134571171Y-104263000D02*
X135285457Y-104263000D01*
X134428314Y-104691571D02*
X134928314Y-103191571D01*
X135428314Y-104691571D01*
X135928314Y-104691571D02*
X135928314Y-103691571D01*
X135928314Y-103834428D02*
X135999742Y-103763000D01*
X136142600Y-103691571D01*
X136356885Y-103691571D01*
X136499742Y-103763000D01*
X136571171Y-103905857D01*
X136571171Y-104691571D01*
X136571171Y-103905857D02*
X136642600Y-103763000D01*
X136785457Y-103691571D01*
X136999742Y-103691571D01*
X137142600Y-103763000D01*
X137214028Y-103905857D01*
X137214028Y-104691571D01*
X137928314Y-103691571D02*
X137928314Y-105191571D01*
X137928314Y-103763000D02*
X138071171Y-103691571D01*
X138356885Y-103691571D01*
X138499742Y-103763000D01*
X138571171Y-103834428D01*
X138642600Y-103977285D01*
X138642600Y-104405857D01*
X138571171Y-104548714D01*
X138499742Y-104620142D01*
X138356885Y-104691571D01*
X138071171Y-104691571D01*
X137928314Y-104620142D01*
X139856885Y-104620142D02*
X139714028Y-104691571D01*
X139428314Y-104691571D01*
X139285457Y-104620142D01*
X139214028Y-104477285D01*
X139214028Y-103905857D01*
X139285457Y-103763000D01*
X139428314Y-103691571D01*
X139714028Y-103691571D01*
X139856885Y-103763000D01*
X139928314Y-103905857D01*
X139928314Y-104048714D01*
X139214028Y-104191571D01*
X140785457Y-104691571D02*
X140642600Y-104620142D01*
X140571171Y-104477285D01*
X140571171Y-103191571D01*
X148092857Y-88307142D02*
X148092857Y-87807142D01*
X148878571Y-87592857D02*
X148878571Y-88307142D01*
X147378571Y-88307142D01*
X147378571Y-87592857D01*
X147378571Y-87092857D02*
X148878571Y-86092857D01*
X147378571Y-86092857D02*
X148878571Y-87092857D01*
X147378571Y-85735714D02*
X147378571Y-84878571D01*
X148878571Y-85307142D02*
X147378571Y-85307142D01*
X168198571Y-107561771D02*
X167698571Y-106847485D01*
X167341428Y-107561771D02*
X167341428Y-106061771D01*
X167912857Y-106061771D01*
X168055714Y-106133200D01*
X168127142Y-106204628D01*
X168198571Y-106347485D01*
X168198571Y-106561771D01*
X168127142Y-106704628D01*
X168055714Y-106776057D01*
X167912857Y-106847485D01*
X167341428Y-106847485D01*
X173698571Y-106061771D02*
X173984285Y-106061771D01*
X174127142Y-106133200D01*
X174270000Y-106276057D01*
X174341428Y-106561771D01*
X174341428Y-107061771D01*
X174270000Y-107347485D01*
X174127142Y-107490342D01*
X173984285Y-107561771D01*
X173698571Y-107561771D01*
X173555714Y-107490342D01*
X173412857Y-107347485D01*
X173341428Y-107061771D01*
X173341428Y-106561771D01*
X173412857Y-106276057D01*
X173555714Y-106133200D01*
X173698571Y-106061771D01*
X179198571Y-106133200D02*
X179055714Y-106061771D01*
X178841428Y-106061771D01*
X178627142Y-106133200D01*
X178484285Y-106276057D01*
X178412857Y-106418914D01*
X178341428Y-106704628D01*
X178341428Y-106918914D01*
X178412857Y-107204628D01*
X178484285Y-107347485D01*
X178627142Y-107490342D01*
X178841428Y-107561771D01*
X178984285Y-107561771D01*
X179198571Y-107490342D01*
X179269999Y-107418914D01*
X179269999Y-106918914D01*
X178984285Y-106918914D01*
D10*
X200838095Y-84390000D02*
X200742857Y-84342380D01*
X200600000Y-84342380D01*
X200457142Y-84390000D01*
X200361904Y-84485238D01*
X200314285Y-84580476D01*
X200266666Y-84770952D01*
X200266666Y-84913809D01*
X200314285Y-85104285D01*
X200361904Y-85199523D01*
X200457142Y-85294761D01*
X200600000Y-85342380D01*
X200695238Y-85342380D01*
X200838095Y-85294761D01*
X200885714Y-85247142D01*
X200885714Y-84913809D01*
X200695238Y-84913809D01*
X201314285Y-85342380D02*
X201314285Y-84342380D01*
X201885714Y-85342380D01*
X201885714Y-84342380D01*
X202361904Y-85342380D02*
X202361904Y-84342380D01*
X202600000Y-84342380D01*
X202742857Y-84390000D01*
X202838095Y-84485238D01*
X202885714Y-84580476D01*
X202933333Y-84770952D01*
X202933333Y-84913809D01*
X202885714Y-85104285D01*
X202838095Y-85199523D01*
X202742857Y-85294761D01*
X202600000Y-85342380D01*
X202361904Y-85342380D01*
X200028571Y-86952380D02*
X200028571Y-85952380D01*
X200361904Y-86666666D01*
X200695238Y-85952380D01*
X200695238Y-86952380D01*
X201361904Y-85952380D02*
X201552380Y-85952380D01*
X201647619Y-86000000D01*
X201742857Y-86095238D01*
X201790476Y-86285714D01*
X201790476Y-86619047D01*
X201742857Y-86809523D01*
X201647619Y-86904761D01*
X201552380Y-86952380D01*
X201361904Y-86952380D01*
X201266666Y-86904761D01*
X201171428Y-86809523D01*
X201123809Y-86619047D01*
X201123809Y-86285714D01*
X201171428Y-86095238D01*
X201266666Y-86000000D01*
X201361904Y-85952380D01*
X202171428Y-86904761D02*
X202314285Y-86952380D01*
X202552380Y-86952380D01*
X202647619Y-86904761D01*
X202695238Y-86857142D01*
X202742857Y-86761904D01*
X202742857Y-86666666D01*
X202695238Y-86571428D01*
X202647619Y-86523809D01*
X202552380Y-86476190D01*
X202361904Y-86428571D01*
X202266666Y-86380952D01*
X202219047Y-86333333D01*
X202171428Y-86238095D01*
X202171428Y-86142857D01*
X202219047Y-86047619D01*
X202266666Y-86000000D01*
X202361904Y-85952380D01*
X202600000Y-85952380D01*
X202742857Y-86000000D01*
X203171428Y-86952380D02*
X203171428Y-85952380D01*
X200314285Y-88181428D02*
X201076190Y-88181428D01*
X200695238Y-88562380D02*
X200695238Y-87800476D01*
X202028571Y-87562380D02*
X201552380Y-87562380D01*
X201504761Y-88038571D01*
X201552380Y-87990952D01*
X201647619Y-87943333D01*
X201885714Y-87943333D01*
X201980952Y-87990952D01*
X202028571Y-88038571D01*
X202076190Y-88133809D01*
X202076190Y-88371904D01*
X202028571Y-88467142D01*
X201980952Y-88514761D01*
X201885714Y-88562380D01*
X201647619Y-88562380D01*
X201552380Y-88514761D01*
X201504761Y-88467142D01*
X202361904Y-87562380D02*
X202695238Y-88562380D01*
X203028571Y-87562380D01*
D11*
X118581514Y-105909371D02*
X117867228Y-105909371D01*
X117795800Y-106623657D01*
X117867228Y-106552228D01*
X118010085Y-106480800D01*
X118367228Y-106480800D01*
X118510085Y-106552228D01*
X118581514Y-106623657D01*
X118652942Y-106766514D01*
X118652942Y-107123657D01*
X118581514Y-107266514D01*
X118510085Y-107337942D01*
X118367228Y-107409371D01*
X118010085Y-107409371D01*
X117867228Y-107337942D01*
X117795800Y-107266514D01*
X119152942Y-106409371D02*
X119510085Y-107409371D01*
X119867228Y-106409371D01*
X191425628Y-104718657D02*
X190925628Y-104718657D01*
X190925628Y-105504371D02*
X190925628Y-104004371D01*
X191639914Y-104004371D01*
X192211342Y-105504371D02*
X192211342Y-104004371D01*
X192925628Y-105504371D02*
X192925628Y-104004371D01*
X193782771Y-105504371D01*
X193782771Y-104004371D01*
D10*
X196524523Y-74423542D02*
X196476904Y-74471161D01*
X196334047Y-74518780D01*
X196238809Y-74518780D01*
X196095952Y-74471161D01*
X196000714Y-74375923D01*
X195953095Y-74280685D01*
X195905476Y-74090209D01*
X195905476Y-73947352D01*
X195953095Y-73756876D01*
X196000714Y-73661638D01*
X196095952Y-73566400D01*
X196238809Y-73518780D01*
X196334047Y-73518780D01*
X196476904Y-73566400D01*
X196524523Y-73614019D01*
D11*
X171797114Y-104540857D02*
X171297114Y-104540857D01*
X171297114Y-105326571D02*
X171297114Y-103826571D01*
X172011400Y-103826571D01*
X172511400Y-104898000D02*
X173225685Y-104898000D01*
X172368542Y-105326571D02*
X172868542Y-103826571D01*
X173368542Y-105326571D01*
X174725685Y-105183714D02*
X174654257Y-105255142D01*
X174439971Y-105326571D01*
X174297114Y-105326571D01*
X174082828Y-105255142D01*
X173939971Y-105112285D01*
X173868542Y-104969428D01*
X173797114Y-104683714D01*
X173797114Y-104469428D01*
X173868542Y-104183714D01*
X173939971Y-104040857D01*
X174082828Y-103898000D01*
X174297114Y-103826571D01*
X174439971Y-103826571D01*
X174654257Y-103898000D01*
X174725685Y-103969428D01*
X175368542Y-105326571D02*
X175368542Y-103826571D01*
X175368542Y-104540857D02*
X176225685Y-104540857D01*
X176225685Y-105326571D02*
X176225685Y-103826571D01*
X119565942Y-102835971D02*
X120065942Y-104335971D01*
X120565942Y-102835971D01*
X121065942Y-104335971D02*
X121065942Y-102835971D01*
X121780228Y-104335971D02*
X121780228Y-102835971D01*
X122637371Y-104335971D01*
X122637371Y-102835971D01*
D10*
X205052380Y-85442380D02*
X204719047Y-84966190D01*
X204480952Y-85442380D02*
X204480952Y-84442380D01*
X204861904Y-84442380D01*
X204957142Y-84490000D01*
X205004761Y-84537619D01*
X205052380Y-84632857D01*
X205052380Y-84775714D01*
X205004761Y-84870952D01*
X204957142Y-84918571D01*
X204861904Y-84966190D01*
X204480952Y-84966190D01*
X205433333Y-85394761D02*
X205576190Y-85442380D01*
X205814285Y-85442380D01*
X205909523Y-85394761D01*
X205957142Y-85347142D01*
X206004761Y-85251904D01*
X206004761Y-85156666D01*
X205957142Y-85061428D01*
X205909523Y-85013809D01*
X205814285Y-84966190D01*
X205623809Y-84918571D01*
X205528571Y-84870952D01*
X205480952Y-84823333D01*
X205433333Y-84728095D01*
X205433333Y-84632857D01*
X205480952Y-84537619D01*
X205528571Y-84490000D01*
X205623809Y-84442380D01*
X205861904Y-84442380D01*
X206004761Y-84490000D01*
X206290476Y-84442380D02*
X206861904Y-84442380D01*
X206576190Y-85442380D02*
X206576190Y-84442380D01*
X204314285Y-87004761D02*
X204457142Y-87052380D01*
X204695238Y-87052380D01*
X204790476Y-87004761D01*
X204838095Y-86957142D01*
X204885714Y-86861904D01*
X204885714Y-86766666D01*
X204838095Y-86671428D01*
X204790476Y-86623809D01*
X204695238Y-86576190D01*
X204504761Y-86528571D01*
X204409523Y-86480952D01*
X204361904Y-86433333D01*
X204314285Y-86338095D01*
X204314285Y-86242857D01*
X204361904Y-86147619D01*
X204409523Y-86100000D01*
X204504761Y-86052380D01*
X204742857Y-86052380D01*
X204885714Y-86100000D01*
X205885714Y-86957142D02*
X205838095Y-87004761D01*
X205695238Y-87052380D01*
X205600000Y-87052380D01*
X205457142Y-87004761D01*
X205361904Y-86909523D01*
X205314285Y-86814285D01*
X205266666Y-86623809D01*
X205266666Y-86480952D01*
X205314285Y-86290476D01*
X205361904Y-86195238D01*
X205457142Y-86100000D01*
X205600000Y-86052380D01*
X205695238Y-86052380D01*
X205838095Y-86100000D01*
X205885714Y-86147619D01*
X206314285Y-87052380D02*
X206314285Y-86052380D01*
X206885714Y-87052380D02*
X206457142Y-86480952D01*
X206885714Y-86052380D02*
X206314285Y-86623809D01*
X204028571Y-88662380D02*
X204028571Y-87662380D01*
X204361904Y-88376666D01*
X204695238Y-87662380D01*
X204695238Y-88662380D01*
X205171428Y-88662380D02*
X205171428Y-87662380D01*
X205600000Y-88614761D02*
X205742857Y-88662380D01*
X205980952Y-88662380D01*
X206076190Y-88614761D01*
X206123809Y-88567142D01*
X206171428Y-88471904D01*
X206171428Y-88376666D01*
X206123809Y-88281428D01*
X206076190Y-88233809D01*
X205980952Y-88186190D01*
X205790476Y-88138571D01*
X205695238Y-88090952D01*
X205647619Y-88043333D01*
X205600000Y-87948095D01*
X205600000Y-87852857D01*
X205647619Y-87757619D01*
X205695238Y-87710000D01*
X205790476Y-87662380D01*
X206028571Y-87662380D01*
X206171428Y-87710000D01*
X206790476Y-87662380D02*
X206980952Y-87662380D01*
X207076190Y-87710000D01*
X207171428Y-87805238D01*
X207219047Y-87995714D01*
X207219047Y-88329047D01*
X207171428Y-88519523D01*
X207076190Y-88614761D01*
X206980952Y-88662380D01*
X206790476Y-88662380D01*
X206695238Y-88614761D01*
X206600000Y-88519523D01*
X206552380Y-88329047D01*
X206552380Y-87995714D01*
X206600000Y-87805238D01*
X206695238Y-87710000D01*
X206790476Y-87662380D01*
X196265800Y-77515980D02*
X196265800Y-76515980D01*
%TO.C,C1*%
X181833333Y-90357142D02*
X181785714Y-90404761D01*
X181642857Y-90452380D01*
X181547619Y-90452380D01*
X181404761Y-90404761D01*
X181309523Y-90309523D01*
X181261904Y-90214285D01*
X181214285Y-90023809D01*
X181214285Y-89880952D01*
X181261904Y-89690476D01*
X181309523Y-89595238D01*
X181404761Y-89500000D01*
X181547619Y-89452380D01*
X181642857Y-89452380D01*
X181785714Y-89500000D01*
X181833333Y-89547619D01*
X182785714Y-90452380D02*
X182214285Y-90452380D01*
X182500000Y-90452380D02*
X182500000Y-89452380D01*
X182404761Y-89595238D01*
X182309523Y-89690476D01*
X182214285Y-89738095D01*
%TO.C,R24*%
X187877980Y-101887257D02*
X187401790Y-102220590D01*
X187877980Y-102458685D02*
X186877980Y-102458685D01*
X186877980Y-102077733D01*
X186925600Y-101982495D01*
X186973219Y-101934876D01*
X187068457Y-101887257D01*
X187211314Y-101887257D01*
X187306552Y-101934876D01*
X187354171Y-101982495D01*
X187401790Y-102077733D01*
X187401790Y-102458685D01*
X186973219Y-101506304D02*
X186925600Y-101458685D01*
X186877980Y-101363447D01*
X186877980Y-101125352D01*
X186925600Y-101030114D01*
X186973219Y-100982495D01*
X187068457Y-100934876D01*
X187163695Y-100934876D01*
X187306552Y-100982495D01*
X187877980Y-101553923D01*
X187877980Y-100934876D01*
X187211314Y-100077733D02*
X187877980Y-100077733D01*
X186830361Y-100315828D02*
X187544647Y-100553923D01*
X187544647Y-99934876D01*
%TO.C,R25*%
X136157142Y-96452380D02*
X135823809Y-95976190D01*
X135585714Y-96452380D02*
X135585714Y-95452380D01*
X135966666Y-95452380D01*
X136061904Y-95500000D01*
X136109523Y-95547619D01*
X136157142Y-95642857D01*
X136157142Y-95785714D01*
X136109523Y-95880952D01*
X136061904Y-95928571D01*
X135966666Y-95976190D01*
X135585714Y-95976190D01*
X136538095Y-95547619D02*
X136585714Y-95500000D01*
X136680952Y-95452380D01*
X136919047Y-95452380D01*
X137014285Y-95500000D01*
X137061904Y-95547619D01*
X137109523Y-95642857D01*
X137109523Y-95738095D01*
X137061904Y-95880952D01*
X136490476Y-96452380D01*
X137109523Y-96452380D01*
X138014285Y-95452380D02*
X137538095Y-95452380D01*
X137490476Y-95928571D01*
X137538095Y-95880952D01*
X137633333Y-95833333D01*
X137871428Y-95833333D01*
X137966666Y-95880952D01*
X138014285Y-95928571D01*
X138061904Y-96023809D01*
X138061904Y-96261904D01*
X138014285Y-96357142D01*
X137966666Y-96404761D01*
X137871428Y-96452380D01*
X137633333Y-96452380D01*
X137538095Y-96404761D01*
X137490476Y-96357142D01*
%TO.C,D3*%
X177147780Y-74995295D02*
X176147780Y-74995295D01*
X176147780Y-74757200D01*
X176195400Y-74614342D01*
X176290638Y-74519104D01*
X176385876Y-74471485D01*
X176576352Y-74423866D01*
X176719209Y-74423866D01*
X176909685Y-74471485D01*
X177004923Y-74519104D01*
X177100161Y-74614342D01*
X177147780Y-74757200D01*
X177147780Y-74995295D01*
X176147780Y-74090533D02*
X176147780Y-73471485D01*
X176528733Y-73804819D01*
X176528733Y-73661961D01*
X176576352Y-73566723D01*
X176623971Y-73519104D01*
X176719209Y-73471485D01*
X176957304Y-73471485D01*
X177052542Y-73519104D01*
X177100161Y-73566723D01*
X177147780Y-73661961D01*
X177147780Y-73947676D01*
X177100161Y-74042914D01*
X177052542Y-74090533D01*
%TO.C,RV1*%
X126202380Y-100595238D02*
X125726190Y-100928571D01*
X126202380Y-101166666D02*
X125202380Y-101166666D01*
X125202380Y-100785714D01*
X125250000Y-100690476D01*
X125297619Y-100642857D01*
X125392857Y-100595238D01*
X125535714Y-100595238D01*
X125630952Y-100642857D01*
X125678571Y-100690476D01*
X125726190Y-100785714D01*
X125726190Y-101166666D01*
X125202380Y-100309523D02*
X126202380Y-99976190D01*
X125202380Y-99642857D01*
X126202380Y-98785714D02*
X126202380Y-99357142D01*
X126202380Y-99071428D02*
X125202380Y-99071428D01*
X125345238Y-99166666D01*
X125440476Y-99261904D01*
X125488095Y-99357142D01*
%TO.C,C2*%
X147077133Y-71553342D02*
X147029514Y-71600961D01*
X146886657Y-71648580D01*
X146791419Y-71648580D01*
X146648561Y-71600961D01*
X146553323Y-71505723D01*
X146505704Y-71410485D01*
X146458085Y-71220009D01*
X146458085Y-71077152D01*
X146505704Y-70886676D01*
X146553323Y-70791438D01*
X146648561Y-70696200D01*
X146791419Y-70648580D01*
X146886657Y-70648580D01*
X147029514Y-70696200D01*
X147077133Y-70743819D01*
X147458085Y-70743819D02*
X147505704Y-70696200D01*
X147600942Y-70648580D01*
X147839038Y-70648580D01*
X147934276Y-70696200D01*
X147981895Y-70743819D01*
X148029514Y-70839057D01*
X148029514Y-70934295D01*
X147981895Y-71077152D01*
X147410466Y-71648580D01*
X148029514Y-71648580D01*
%TO.C,R6*%
X147077133Y-81021180D02*
X146743800Y-80544990D01*
X146505704Y-81021180D02*
X146505704Y-80021180D01*
X146886657Y-80021180D01*
X146981895Y-80068800D01*
X147029514Y-80116419D01*
X147077133Y-80211657D01*
X147077133Y-80354514D01*
X147029514Y-80449752D01*
X146981895Y-80497371D01*
X146886657Y-80544990D01*
X146505704Y-80544990D01*
X147934276Y-80021180D02*
X147743800Y-80021180D01*
X147648561Y-80068800D01*
X147600942Y-80116419D01*
X147505704Y-80259276D01*
X147458085Y-80449752D01*
X147458085Y-80830704D01*
X147505704Y-80925942D01*
X147553323Y-80973561D01*
X147648561Y-81021180D01*
X147839038Y-81021180D01*
X147934276Y-80973561D01*
X147981895Y-80925942D01*
X148029514Y-80830704D01*
X148029514Y-80592609D01*
X147981895Y-80497371D01*
X147934276Y-80449752D01*
X147839038Y-80402133D01*
X147648561Y-80402133D01*
X147553323Y-80449752D01*
X147505704Y-80497371D01*
X147458085Y-80592609D01*
%TO.C,R5*%
X182352380Y-74266666D02*
X181876190Y-74600000D01*
X182352380Y-74838095D02*
X181352380Y-74838095D01*
X181352380Y-74457142D01*
X181400000Y-74361904D01*
X181447619Y-74314285D01*
X181542857Y-74266666D01*
X181685714Y-74266666D01*
X181780952Y-74314285D01*
X181828571Y-74361904D01*
X181876190Y-74457142D01*
X181876190Y-74838095D01*
X181352380Y-73361904D02*
X181352380Y-73838095D01*
X181828571Y-73885714D01*
X181780952Y-73838095D01*
X181733333Y-73742857D01*
X181733333Y-73504761D01*
X181780952Y-73409523D01*
X181828571Y-73361904D01*
X181923809Y-73314285D01*
X182161904Y-73314285D01*
X182257142Y-73361904D01*
X182304761Y-73409523D01*
X182352380Y-73504761D01*
X182352380Y-73742857D01*
X182304761Y-73838095D01*
X182257142Y-73885714D01*
%TO.C,C5*%
X162088942Y-74366666D02*
X162136561Y-74414285D01*
X162184180Y-74557142D01*
X162184180Y-74652380D01*
X162136561Y-74795238D01*
X162041323Y-74890476D01*
X161946085Y-74938095D01*
X161755609Y-74985714D01*
X161612752Y-74985714D01*
X161422276Y-74938095D01*
X161327038Y-74890476D01*
X161231800Y-74795238D01*
X161184180Y-74652380D01*
X161184180Y-74557142D01*
X161231800Y-74414285D01*
X161279419Y-74366666D01*
X161184180Y-73461904D02*
X161184180Y-73938095D01*
X161660371Y-73985714D01*
X161612752Y-73938095D01*
X161565133Y-73842857D01*
X161565133Y-73604761D01*
X161612752Y-73509523D01*
X161660371Y-73461904D01*
X161755609Y-73414285D01*
X161993704Y-73414285D01*
X162088942Y-73461904D01*
X162136561Y-73509523D01*
X162184180Y-73604761D01*
X162184180Y-73842857D01*
X162136561Y-73938095D01*
X162088942Y-73985714D01*
%TO.C,R8*%
X147077133Y-76525380D02*
X146743800Y-76049190D01*
X146505704Y-76525380D02*
X146505704Y-75525380D01*
X146886657Y-75525380D01*
X146981895Y-75573000D01*
X147029514Y-75620619D01*
X147077133Y-75715857D01*
X147077133Y-75858714D01*
X147029514Y-75953952D01*
X146981895Y-76001571D01*
X146886657Y-76049190D01*
X146505704Y-76049190D01*
X147648561Y-75953952D02*
X147553323Y-75906333D01*
X147505704Y-75858714D01*
X147458085Y-75763476D01*
X147458085Y-75715857D01*
X147505704Y-75620619D01*
X147553323Y-75573000D01*
X147648561Y-75525380D01*
X147839038Y-75525380D01*
X147934276Y-75573000D01*
X147981895Y-75620619D01*
X148029514Y-75715857D01*
X148029514Y-75763476D01*
X147981895Y-75858714D01*
X147934276Y-75906333D01*
X147839038Y-75953952D01*
X147648561Y-75953952D01*
X147553323Y-76001571D01*
X147505704Y-76049190D01*
X147458085Y-76144428D01*
X147458085Y-76334904D01*
X147505704Y-76430142D01*
X147553323Y-76477761D01*
X147648561Y-76525380D01*
X147839038Y-76525380D01*
X147934276Y-76477761D01*
X147981895Y-76430142D01*
X148029514Y-76334904D01*
X148029514Y-76144428D01*
X147981895Y-76049190D01*
X147934276Y-76001571D01*
X147839038Y-75953952D01*
%TO.C,R7*%
X147077133Y-78811380D02*
X146743800Y-78335190D01*
X146505704Y-78811380D02*
X146505704Y-77811380D01*
X146886657Y-77811380D01*
X146981895Y-77859000D01*
X147029514Y-77906619D01*
X147077133Y-78001857D01*
X147077133Y-78144714D01*
X147029514Y-78239952D01*
X146981895Y-78287571D01*
X146886657Y-78335190D01*
X146505704Y-78335190D01*
X147410466Y-77811380D02*
X148077133Y-77811380D01*
X147648561Y-78811380D01*
%TO.C,D1*%
X140461904Y-76952380D02*
X140461904Y-75952380D01*
X140700000Y-75952380D01*
X140842857Y-76000000D01*
X140938095Y-76095238D01*
X140985714Y-76190476D01*
X141033333Y-76380952D01*
X141033333Y-76523809D01*
X140985714Y-76714285D01*
X140938095Y-76809523D01*
X140842857Y-76904761D01*
X140700000Y-76952380D01*
X140461904Y-76952380D01*
X141985714Y-76952380D02*
X141414285Y-76952380D01*
X141700000Y-76952380D02*
X141700000Y-75952380D01*
X141604761Y-76095238D01*
X141509523Y-76190476D01*
X141414285Y-76238095D01*
%TO.C,Y1*%
X156923809Y-88576190D02*
X156923809Y-89052380D01*
X156590476Y-88052380D02*
X156923809Y-88576190D01*
X157257142Y-88052380D01*
X158114285Y-89052380D02*
X157542857Y-89052380D01*
X157828571Y-89052380D02*
X157828571Y-88052380D01*
X157733333Y-88195238D01*
X157638095Y-88290476D01*
X157542857Y-88338095D01*
%TO.C,H2*%
X204238095Y-106452380D02*
X204238095Y-105452380D01*
X204238095Y-105928571D02*
X204809523Y-105928571D01*
X204809523Y-106452380D02*
X204809523Y-105452380D01*
X205238095Y-105547619D02*
X205285714Y-105500000D01*
X205380952Y-105452380D01*
X205619047Y-105452380D01*
X205714285Y-105500000D01*
X205761904Y-105547619D01*
X205809523Y-105642857D01*
X205809523Y-105738095D01*
X205761904Y-105880952D01*
X205190476Y-106452380D01*
X205809523Y-106452380D01*
%TO.C,R4*%
X172397980Y-74423866D02*
X171921790Y-74757200D01*
X172397980Y-74995295D02*
X171397980Y-74995295D01*
X171397980Y-74614342D01*
X171445600Y-74519104D01*
X171493219Y-74471485D01*
X171588457Y-74423866D01*
X171731314Y-74423866D01*
X171826552Y-74471485D01*
X171874171Y-74519104D01*
X171921790Y-74614342D01*
X171921790Y-74995295D01*
X171731314Y-73566723D02*
X172397980Y-73566723D01*
X171350361Y-73804819D02*
X172064647Y-74042914D01*
X172064647Y-73423866D01*
%TO.C,C4*%
X147077133Y-74017142D02*
X147029514Y-74064761D01*
X146886657Y-74112380D01*
X146791419Y-74112380D01*
X146648561Y-74064761D01*
X146553323Y-73969523D01*
X146505704Y-73874285D01*
X146458085Y-73683809D01*
X146458085Y-73540952D01*
X146505704Y-73350476D01*
X146553323Y-73255238D01*
X146648561Y-73160000D01*
X146791419Y-73112380D01*
X146886657Y-73112380D01*
X147029514Y-73160000D01*
X147077133Y-73207619D01*
X147934276Y-73445714D02*
X147934276Y-74112380D01*
X147696180Y-73064761D02*
X147458085Y-73779047D01*
X148077133Y-73779047D01*
%TO.C,R3*%
X174480780Y-74449266D02*
X174004590Y-74782600D01*
X174480780Y-75020695D02*
X173480780Y-75020695D01*
X173480780Y-74639742D01*
X173528400Y-74544504D01*
X173576019Y-74496885D01*
X173671257Y-74449266D01*
X173814114Y-74449266D01*
X173909352Y-74496885D01*
X173956971Y-74544504D01*
X174004590Y-74639742D01*
X174004590Y-75020695D01*
X173480780Y-74115933D02*
X173480780Y-73496885D01*
X173861733Y-73830219D01*
X173861733Y-73687361D01*
X173909352Y-73592123D01*
X173956971Y-73544504D01*
X174052209Y-73496885D01*
X174290304Y-73496885D01*
X174385542Y-73544504D01*
X174433161Y-73592123D01*
X174480780Y-73687361D01*
X174480780Y-73973076D01*
X174433161Y-74068314D01*
X174385542Y-74115933D01*
%TO.C,C3*%
X164000142Y-74366666D02*
X164047761Y-74414285D01*
X164095380Y-74557142D01*
X164095380Y-74652380D01*
X164047761Y-74795238D01*
X163952523Y-74890476D01*
X163857285Y-74938095D01*
X163666809Y-74985714D01*
X163523952Y-74985714D01*
X163333476Y-74938095D01*
X163238238Y-74890476D01*
X163143000Y-74795238D01*
X163095380Y-74652380D01*
X163095380Y-74557142D01*
X163143000Y-74414285D01*
X163190619Y-74366666D01*
X163095380Y-74033333D02*
X163095380Y-73414285D01*
X163476333Y-73747619D01*
X163476333Y-73604761D01*
X163523952Y-73509523D01*
X163571571Y-73461904D01*
X163666809Y-73414285D01*
X163904904Y-73414285D01*
X164000142Y-73461904D01*
X164047761Y-73509523D01*
X164095380Y-73604761D01*
X164095380Y-73890476D01*
X164047761Y-73985714D01*
X164000142Y-74033333D01*
%TO.C,R2*%
X166505180Y-74271466D02*
X166028990Y-74604800D01*
X166505180Y-74842895D02*
X165505180Y-74842895D01*
X165505180Y-74461942D01*
X165552800Y-74366704D01*
X165600419Y-74319085D01*
X165695657Y-74271466D01*
X165838514Y-74271466D01*
X165933752Y-74319085D01*
X165981371Y-74366704D01*
X166028990Y-74461942D01*
X166028990Y-74842895D01*
X165600419Y-73890514D02*
X165552800Y-73842895D01*
X165505180Y-73747657D01*
X165505180Y-73509561D01*
X165552800Y-73414323D01*
X165600419Y-73366704D01*
X165695657Y-73319085D01*
X165790895Y-73319085D01*
X165933752Y-73366704D01*
X166505180Y-73938133D01*
X166505180Y-73319085D01*
%TO.C,H4*%
X204238095Y-71252380D02*
X204238095Y-70252380D01*
X204238095Y-70728571D02*
X204809523Y-70728571D01*
X204809523Y-71252380D02*
X204809523Y-70252380D01*
X205714285Y-70585714D02*
X205714285Y-71252380D01*
X205476190Y-70204761D02*
X205238095Y-70919047D01*
X205857142Y-70919047D01*
%TO.C,F1*%
X142066666Y-95928571D02*
X141733333Y-95928571D01*
X141733333Y-96452380D02*
X141733333Y-95452380D01*
X142209523Y-95452380D01*
X143114285Y-96452380D02*
X142542857Y-96452380D01*
X142828571Y-96452380D02*
X142828571Y-95452380D01*
X142733333Y-95595238D01*
X142638095Y-95690476D01*
X142542857Y-95738095D01*
%TO.C,D15*%
X117885714Y-94552380D02*
X117885714Y-93552380D01*
X118123809Y-93552380D01*
X118266666Y-93600000D01*
X118361904Y-93695238D01*
X118409523Y-93790476D01*
X118457142Y-93980952D01*
X118457142Y-94123809D01*
X118409523Y-94314285D01*
X118361904Y-94409523D01*
X118266666Y-94504761D01*
X118123809Y-94552380D01*
X117885714Y-94552380D01*
X119409523Y-94552380D02*
X118838095Y-94552380D01*
X119123809Y-94552380D02*
X119123809Y-93552380D01*
X119028571Y-93695238D01*
X118933333Y-93790476D01*
X118838095Y-93838095D01*
X120314285Y-93552380D02*
X119838095Y-93552380D01*
X119790476Y-94028571D01*
X119838095Y-93980952D01*
X119933333Y-93933333D01*
X120171428Y-93933333D01*
X120266666Y-93980952D01*
X120314285Y-94028571D01*
X120361904Y-94123809D01*
X120361904Y-94361904D01*
X120314285Y-94457142D01*
X120266666Y-94504761D01*
X120171428Y-94552380D01*
X119933333Y-94552380D01*
X119838095Y-94504761D01*
X119790476Y-94457142D01*
%TO.C,D4*%
X169197580Y-74868295D02*
X168197580Y-74868295D01*
X168197580Y-74630200D01*
X168245200Y-74487342D01*
X168340438Y-74392104D01*
X168435676Y-74344485D01*
X168626152Y-74296866D01*
X168769009Y-74296866D01*
X168959485Y-74344485D01*
X169054723Y-74392104D01*
X169149961Y-74487342D01*
X169197580Y-74630200D01*
X169197580Y-74868295D01*
X168530914Y-73439723D02*
X169197580Y-73439723D01*
X168149961Y-73677819D02*
X168864247Y-73915914D01*
X168864247Y-73296866D01*
%TO.C,R1*%
X179890980Y-74322266D02*
X179414790Y-74655600D01*
X179890980Y-74893695D02*
X178890980Y-74893695D01*
X178890980Y-74512742D01*
X178938600Y-74417504D01*
X178986219Y-74369885D01*
X179081457Y-74322266D01*
X179224314Y-74322266D01*
X179319552Y-74369885D01*
X179367171Y-74417504D01*
X179414790Y-74512742D01*
X179414790Y-74893695D01*
X179890980Y-73369885D02*
X179890980Y-73941314D01*
X179890980Y-73655600D02*
X178890980Y-73655600D01*
X179033838Y-73750838D01*
X179129076Y-73846076D01*
X179176695Y-73941314D01*
%TO.C,D11*%
X138585714Y-96452380D02*
X138585714Y-95452380D01*
X138823809Y-95452380D01*
X138966666Y-95500000D01*
X139061904Y-95595238D01*
X139109523Y-95690476D01*
X139157142Y-95880952D01*
X139157142Y-96023809D01*
X139109523Y-96214285D01*
X139061904Y-96309523D01*
X138966666Y-96404761D01*
X138823809Y-96452380D01*
X138585714Y-96452380D01*
X140109523Y-96452380D02*
X139538095Y-96452380D01*
X139823809Y-96452380D02*
X139823809Y-95452380D01*
X139728571Y-95595238D01*
X139633333Y-95690476D01*
X139538095Y-95738095D01*
X141061904Y-96452380D02*
X140490476Y-96452380D01*
X140776190Y-96452380D02*
X140776190Y-95452380D01*
X140680952Y-95595238D01*
X140585714Y-95690476D01*
X140490476Y-95738095D01*
%TO.C,REF\u002A\u002A*%
G36*
X186703910Y-71142348D02*
G01*
X186782454Y-71142778D01*
X186839298Y-71143942D01*
X186878105Y-71146207D01*
X186902538Y-71149940D01*
X186916262Y-71155506D01*
X186922940Y-71163273D01*
X186926236Y-71173605D01*
X186926556Y-71174943D01*
X186931562Y-71199079D01*
X186940829Y-71246701D01*
X186953392Y-71312741D01*
X186968287Y-71392128D01*
X186984551Y-71479796D01*
X186985119Y-71482875D01*
X187001410Y-71568789D01*
X187016652Y-71644696D01*
X187029861Y-71706045D01*
X187040054Y-71748282D01*
X187046248Y-71766855D01*
X187046543Y-71767184D01*
X187064788Y-71776253D01*
X187102405Y-71791367D01*
X187151271Y-71809262D01*
X187151543Y-71809358D01*
X187213093Y-71832493D01*
X187285657Y-71861965D01*
X187354057Y-71891597D01*
X187357294Y-71893062D01*
X187468702Y-71943626D01*
X187715399Y-71775160D01*
X187791077Y-71723803D01*
X187859631Y-71677889D01*
X187917088Y-71640030D01*
X187959476Y-71612837D01*
X187982825Y-71598921D01*
X187985042Y-71597889D01*
X188002010Y-71602484D01*
X188033701Y-71624655D01*
X188081352Y-71665447D01*
X188146198Y-71725905D01*
X188212397Y-71790227D01*
X188276214Y-71853612D01*
X188333329Y-71911451D01*
X188380305Y-71960175D01*
X188413703Y-71996210D01*
X188430085Y-72015984D01*
X188430694Y-72017002D01*
X188432505Y-72030572D01*
X188425683Y-72052733D01*
X188408540Y-72086478D01*
X188379393Y-72134800D01*
X188336555Y-72200692D01*
X188279448Y-72285517D01*
X188228766Y-72360177D01*
X188183461Y-72427140D01*
X188146150Y-72482516D01*
X188119452Y-72522420D01*
X188105985Y-72542962D01*
X188105137Y-72544356D01*
X188106781Y-72564038D01*
X188119245Y-72602293D01*
X188140048Y-72651889D01*
X188147462Y-72667728D01*
X188179814Y-72738290D01*
X188214328Y-72818353D01*
X188242365Y-72887629D01*
X188262568Y-72939045D01*
X188278615Y-72978119D01*
X188287888Y-72998541D01*
X188289041Y-73000114D01*
X188306096Y-73002721D01*
X188346298Y-73009863D01*
X188404302Y-73020523D01*
X188474763Y-73033685D01*
X188552335Y-73048333D01*
X188631672Y-73063449D01*
X188707431Y-73078018D01*
X188774264Y-73091022D01*
X188826828Y-73101445D01*
X188859776Y-73108270D01*
X188867857Y-73110199D01*
X188876205Y-73114962D01*
X188882506Y-73125718D01*
X188887045Y-73146098D01*
X188890104Y-73179734D01*
X188891967Y-73230255D01*
X188892918Y-73301292D01*
X188893240Y-73396476D01*
X188893257Y-73435492D01*
X188893257Y-73752799D01*
X188817057Y-73767839D01*
X188774663Y-73775995D01*
X188711400Y-73787899D01*
X188634962Y-73802116D01*
X188553043Y-73817210D01*
X188530400Y-73821355D01*
X188454806Y-73836053D01*
X188388953Y-73850505D01*
X188338366Y-73863375D01*
X188308574Y-73873322D01*
X188303612Y-73876287D01*
X188291426Y-73897283D01*
X188273953Y-73937967D01*
X188254577Y-73990322D01*
X188250734Y-74001600D01*
X188225339Y-74071523D01*
X188193817Y-74150418D01*
X188162969Y-74221266D01*
X188162817Y-74221595D01*
X188111447Y-74332733D01*
X188280399Y-74581253D01*
X188449352Y-74829772D01*
X188232429Y-75047058D01*
X188166819Y-75111726D01*
X188106979Y-75168733D01*
X188056267Y-75215033D01*
X188018046Y-75247584D01*
X187995675Y-75263343D01*
X187992466Y-75264343D01*
X187973626Y-75256469D01*
X187935180Y-75234578D01*
X187881330Y-75201267D01*
X187816276Y-75159131D01*
X187745940Y-75111943D01*
X187674555Y-75063810D01*
X187610908Y-75021928D01*
X187559041Y-74988871D01*
X187522995Y-74967218D01*
X187506867Y-74959543D01*
X187487189Y-74966037D01*
X187449875Y-74983150D01*
X187402621Y-75007326D01*
X187397612Y-75010013D01*
X187333977Y-75041927D01*
X187290341Y-75057579D01*
X187263202Y-75057745D01*
X187249057Y-75043204D01*
X187248975Y-75043000D01*
X187241905Y-75025779D01*
X187225042Y-74984899D01*
X187199695Y-74923525D01*
X187167171Y-74844819D01*
X187128778Y-74751947D01*
X187085822Y-74648072D01*
X187044222Y-74547502D01*
X186998504Y-74436516D01*
X186956526Y-74333703D01*
X186919548Y-74242215D01*
X186888827Y-74165201D01*
X186865622Y-74105815D01*
X186851190Y-74067209D01*
X186846743Y-74052800D01*
X186857896Y-74036272D01*
X186887069Y-74009930D01*
X186925971Y-73980887D01*
X187036757Y-73889039D01*
X187123351Y-73783759D01*
X187184716Y-73667266D01*
X187219815Y-73541776D01*
X187227608Y-73409507D01*
X187221943Y-73348457D01*
X187191078Y-73221795D01*
X187137920Y-73109941D01*
X187065767Y-73014001D01*
X186977917Y-72935076D01*
X186877665Y-72874270D01*
X186768310Y-72832687D01*
X186653147Y-72811428D01*
X186535475Y-72811599D01*
X186418590Y-72834301D01*
X186305789Y-72880638D01*
X186200369Y-72951713D01*
X186156368Y-72991911D01*
X186071979Y-73095129D01*
X186013222Y-73207925D01*
X185979704Y-73327010D01*
X185971035Y-73449095D01*
X185986823Y-73570893D01*
X186026678Y-73689116D01*
X186090207Y-73800475D01*
X186177021Y-73901684D01*
X186274029Y-73980887D01*
X186314437Y-74011162D01*
X186342982Y-74037219D01*
X186353257Y-74052825D01*
X186347877Y-74069843D01*
X186332575Y-74110500D01*
X186308612Y-74171642D01*
X186277244Y-74250119D01*
X186239732Y-74342780D01*
X186197333Y-74446472D01*
X186155663Y-74547526D01*
X186109690Y-74658607D01*
X186067107Y-74761541D01*
X186029221Y-74853165D01*
X185997340Y-74930316D01*
X185972771Y-74989831D01*
X185956820Y-75028544D01*
X185950910Y-75043000D01*
X185936948Y-75057685D01*
X185909940Y-75057642D01*
X185866413Y-75042099D01*
X185802890Y-75010284D01*
X185802388Y-75010013D01*
X185754560Y-74985323D01*
X185715897Y-74967338D01*
X185694095Y-74959614D01*
X185693133Y-74959543D01*
X185676721Y-74967378D01*
X185640487Y-74989165D01*
X185588474Y-75022328D01*
X185524725Y-75064291D01*
X185454060Y-75111943D01*
X185382116Y-75160191D01*
X185317274Y-75202151D01*
X185263735Y-75235227D01*
X185225697Y-75256821D01*
X185207533Y-75264343D01*
X185190808Y-75254457D01*
X185157180Y-75226826D01*
X185110010Y-75184495D01*
X185052658Y-75130505D01*
X184988484Y-75067899D01*
X184967497Y-75046983D01*
X184750499Y-74829623D01*
X184915668Y-74587220D01*
X184965864Y-74512781D01*
X185009919Y-74445972D01*
X185045362Y-74390665D01*
X185069719Y-74350729D01*
X185080522Y-74330036D01*
X185080838Y-74328563D01*
X185075143Y-74309058D01*
X185059826Y-74269822D01*
X185037537Y-74217430D01*
X185021893Y-74182355D01*
X184992641Y-74115201D01*
X184965094Y-74047358D01*
X184943737Y-73990034D01*
X184937935Y-73972572D01*
X184921452Y-73925938D01*
X184905340Y-73889905D01*
X184896490Y-73876287D01*
X184876960Y-73867952D01*
X184834334Y-73856137D01*
X184774145Y-73842181D01*
X184701922Y-73827422D01*
X184669600Y-73821355D01*
X184587522Y-73806273D01*
X184508795Y-73791669D01*
X184441109Y-73778980D01*
X184392160Y-73769642D01*
X184382943Y-73767839D01*
X184306743Y-73752799D01*
X184306743Y-73435492D01*
X184306914Y-73331154D01*
X184307616Y-73252213D01*
X184309134Y-73195038D01*
X184311749Y-73155999D01*
X184315746Y-73131465D01*
X184321409Y-73117805D01*
X184329020Y-73111389D01*
X184332143Y-73110199D01*
X184350978Y-73105980D01*
X184392588Y-73097562D01*
X184451630Y-73085961D01*
X184522757Y-73072195D01*
X184600625Y-73057280D01*
X184679887Y-73042232D01*
X184755198Y-73028069D01*
X184821213Y-73015806D01*
X184872587Y-73006461D01*
X184903975Y-73001050D01*
X184910959Y-73000114D01*
X184917285Y-72987596D01*
X184931290Y-72954246D01*
X184950355Y-72906377D01*
X184957634Y-72887629D01*
X184986996Y-72815195D01*
X185021571Y-72735170D01*
X185052537Y-72667728D01*
X185075323Y-72616159D01*
X185090482Y-72573785D01*
X185095542Y-72547834D01*
X185094736Y-72544356D01*
X185084041Y-72527936D01*
X185059620Y-72491417D01*
X185024095Y-72438687D01*
X184980087Y-72373635D01*
X184930217Y-72300151D01*
X184920356Y-72285645D01*
X184862492Y-72199704D01*
X184819956Y-72134261D01*
X184791054Y-72086304D01*
X184774090Y-72052820D01*
X184767367Y-72030795D01*
X184769190Y-72017217D01*
X184769236Y-72017131D01*
X184783586Y-71999297D01*
X184815323Y-71964817D01*
X184861010Y-71917268D01*
X184917204Y-71860222D01*
X184980468Y-71797255D01*
X184987602Y-71790227D01*
X185067330Y-71713020D01*
X185128857Y-71656330D01*
X185173421Y-71619110D01*
X185202257Y-71600315D01*
X185214958Y-71597889D01*
X185233494Y-71608471D01*
X185271961Y-71632916D01*
X185326386Y-71668612D01*
X185392798Y-71712947D01*
X185467225Y-71763311D01*
X185484601Y-71775160D01*
X185731297Y-71943626D01*
X185842706Y-71893062D01*
X185910457Y-71863595D01*
X185983183Y-71833959D01*
X186045703Y-71810330D01*
X186048457Y-71809358D01*
X186097360Y-71791457D01*
X186135057Y-71776320D01*
X186153425Y-71767210D01*
X186153456Y-71767184D01*
X186159285Y-71750717D01*
X186169192Y-71710219D01*
X186182195Y-71650242D01*
X186197309Y-71575340D01*
X186213552Y-71490064D01*
X186214881Y-71482875D01*
X186231175Y-71395014D01*
X186246133Y-71315260D01*
X186258791Y-71248681D01*
X186268186Y-71200347D01*
X186273354Y-71175325D01*
X186273444Y-71174943D01*
X186276589Y-71164299D01*
X186282704Y-71156262D01*
X186295453Y-71150467D01*
X186318500Y-71146547D01*
X186355509Y-71144135D01*
X186410144Y-71142865D01*
X186486067Y-71142371D01*
X186586944Y-71142286D01*
X186600000Y-71142286D01*
X186703910Y-71142348D01*
G37*
D12*
X186703910Y-71142348D02*
X186782454Y-71142778D01*
X186839298Y-71143942D01*
X186878105Y-71146207D01*
X186902538Y-71149940D01*
X186916262Y-71155506D01*
X186922940Y-71163273D01*
X186926236Y-71173605D01*
X186926556Y-71174943D01*
X186931562Y-71199079D01*
X186940829Y-71246701D01*
X186953392Y-71312741D01*
X186968287Y-71392128D01*
X186984551Y-71479796D01*
X186985119Y-71482875D01*
X187001410Y-71568789D01*
X187016652Y-71644696D01*
X187029861Y-71706045D01*
X187040054Y-71748282D01*
X187046248Y-71766855D01*
X187046543Y-71767184D01*
X187064788Y-71776253D01*
X187102405Y-71791367D01*
X187151271Y-71809262D01*
X187151543Y-71809358D01*
X187213093Y-71832493D01*
X187285657Y-71861965D01*
X187354057Y-71891597D01*
X187357294Y-71893062D01*
X187468702Y-71943626D01*
X187715399Y-71775160D01*
X187791077Y-71723803D01*
X187859631Y-71677889D01*
X187917088Y-71640030D01*
X187959476Y-71612837D01*
X187982825Y-71598921D01*
X187985042Y-71597889D01*
X188002010Y-71602484D01*
X188033701Y-71624655D01*
X188081352Y-71665447D01*
X188146198Y-71725905D01*
X188212397Y-71790227D01*
X188276214Y-71853612D01*
X188333329Y-71911451D01*
X188380305Y-71960175D01*
X188413703Y-71996210D01*
X188430085Y-72015984D01*
X188430694Y-72017002D01*
X188432505Y-72030572D01*
X188425683Y-72052733D01*
X188408540Y-72086478D01*
X188379393Y-72134800D01*
X188336555Y-72200692D01*
X188279448Y-72285517D01*
X188228766Y-72360177D01*
X188183461Y-72427140D01*
X188146150Y-72482516D01*
X188119452Y-72522420D01*
X188105985Y-72542962D01*
X188105137Y-72544356D01*
X188106781Y-72564038D01*
X188119245Y-72602293D01*
X188140048Y-72651889D01*
X188147462Y-72667728D01*
X188179814Y-72738290D01*
X188214328Y-72818353D01*
X188242365Y-72887629D01*
X188262568Y-72939045D01*
X188278615Y-72978119D01*
X188287888Y-72998541D01*
X188289041Y-73000114D01*
X188306096Y-73002721D01*
X188346298Y-73009863D01*
X188404302Y-73020523D01*
X188474763Y-73033685D01*
X188552335Y-73048333D01*
X188631672Y-73063449D01*
X188707431Y-73078018D01*
X188774264Y-73091022D01*
X188826828Y-73101445D01*
X188859776Y-73108270D01*
X188867857Y-73110199D01*
X188876205Y-73114962D01*
X188882506Y-73125718D01*
X188887045Y-73146098D01*
X188890104Y-73179734D01*
X188891967Y-73230255D01*
X188892918Y-73301292D01*
X188893240Y-73396476D01*
X188893257Y-73435492D01*
X188893257Y-73752799D01*
X188817057Y-73767839D01*
X188774663Y-73775995D01*
X188711400Y-73787899D01*
X188634962Y-73802116D01*
X188553043Y-73817210D01*
X188530400Y-73821355D01*
X188454806Y-73836053D01*
X188388953Y-73850505D01*
X188338366Y-73863375D01*
X188308574Y-73873322D01*
X188303612Y-73876287D01*
X188291426Y-73897283D01*
X188273953Y-73937967D01*
X188254577Y-73990322D01*
X188250734Y-74001600D01*
X188225339Y-74071523D01*
X188193817Y-74150418D01*
X188162969Y-74221266D01*
X188162817Y-74221595D01*
X188111447Y-74332733D01*
X188280399Y-74581253D01*
X188449352Y-74829772D01*
X188232429Y-75047058D01*
X188166819Y-75111726D01*
X188106979Y-75168733D01*
X188056267Y-75215033D01*
X188018046Y-75247584D01*
X187995675Y-75263343D01*
X187992466Y-75264343D01*
X187973626Y-75256469D01*
X187935180Y-75234578D01*
X187881330Y-75201267D01*
X187816276Y-75159131D01*
X187745940Y-75111943D01*
X187674555Y-75063810D01*
X187610908Y-75021928D01*
X187559041Y-74988871D01*
X187522995Y-74967218D01*
X187506867Y-74959543D01*
X187487189Y-74966037D01*
X187449875Y-74983150D01*
X187402621Y-75007326D01*
X187397612Y-75010013D01*
X187333977Y-75041927D01*
X187290341Y-75057579D01*
X187263202Y-75057745D01*
X187249057Y-75043204D01*
X187248975Y-75043000D01*
X187241905Y-75025779D01*
X187225042Y-74984899D01*
X187199695Y-74923525D01*
X187167171Y-74844819D01*
X187128778Y-74751947D01*
X187085822Y-74648072D01*
X187044222Y-74547502D01*
X186998504Y-74436516D01*
X186956526Y-74333703D01*
X186919548Y-74242215D01*
X186888827Y-74165201D01*
X186865622Y-74105815D01*
X186851190Y-74067209D01*
X186846743Y-74052800D01*
X186857896Y-74036272D01*
X186887069Y-74009930D01*
X186925971Y-73980887D01*
X187036757Y-73889039D01*
X187123351Y-73783759D01*
X187184716Y-73667266D01*
X187219815Y-73541776D01*
X187227608Y-73409507D01*
X187221943Y-73348457D01*
X187191078Y-73221795D01*
X187137920Y-73109941D01*
X187065767Y-73014001D01*
X186977917Y-72935076D01*
X186877665Y-72874270D01*
X186768310Y-72832687D01*
X186653147Y-72811428D01*
X186535475Y-72811599D01*
X186418590Y-72834301D01*
X186305789Y-72880638D01*
X186200369Y-72951713D01*
X186156368Y-72991911D01*
X186071979Y-73095129D01*
X186013222Y-73207925D01*
X185979704Y-73327010D01*
X185971035Y-73449095D01*
X185986823Y-73570893D01*
X186026678Y-73689116D01*
X186090207Y-73800475D01*
X186177021Y-73901684D01*
X186274029Y-73980887D01*
X186314437Y-74011162D01*
X186342982Y-74037219D01*
X186353257Y-74052825D01*
X186347877Y-74069843D01*
X186332575Y-74110500D01*
X186308612Y-74171642D01*
X186277244Y-74250119D01*
X186239732Y-74342780D01*
X186197333Y-74446472D01*
X186155663Y-74547526D01*
X186109690Y-74658607D01*
X186067107Y-74761541D01*
X186029221Y-74853165D01*
X185997340Y-74930316D01*
X185972771Y-74989831D01*
X185956820Y-75028544D01*
X185950910Y-75043000D01*
X185936948Y-75057685D01*
X185909940Y-75057642D01*
X185866413Y-75042099D01*
X185802890Y-75010284D01*
X185802388Y-75010013D01*
X185754560Y-74985323D01*
X185715897Y-74967338D01*
X185694095Y-74959614D01*
X185693133Y-74959543D01*
X185676721Y-74967378D01*
X185640487Y-74989165D01*
X185588474Y-75022328D01*
X185524725Y-75064291D01*
X185454060Y-75111943D01*
X185382116Y-75160191D01*
X185317274Y-75202151D01*
X185263735Y-75235227D01*
X185225697Y-75256821D01*
X185207533Y-75264343D01*
X185190808Y-75254457D01*
X185157180Y-75226826D01*
X185110010Y-75184495D01*
X185052658Y-75130505D01*
X184988484Y-75067899D01*
X184967497Y-75046983D01*
X184750499Y-74829623D01*
X184915668Y-74587220D01*
X184965864Y-74512781D01*
X185009919Y-74445972D01*
X185045362Y-74390665D01*
X185069719Y-74350729D01*
X185080522Y-74330036D01*
X185080838Y-74328563D01*
X185075143Y-74309058D01*
X185059826Y-74269822D01*
X185037537Y-74217430D01*
X185021893Y-74182355D01*
X184992641Y-74115201D01*
X184965094Y-74047358D01*
X184943737Y-73990034D01*
X184937935Y-73972572D01*
X184921452Y-73925938D01*
X184905340Y-73889905D01*
X184896490Y-73876287D01*
X184876960Y-73867952D01*
X184834334Y-73856137D01*
X184774145Y-73842181D01*
X184701922Y-73827422D01*
X184669600Y-73821355D01*
X184587522Y-73806273D01*
X184508795Y-73791669D01*
X184441109Y-73778980D01*
X184392160Y-73769642D01*
X184382943Y-73767839D01*
X184306743Y-73752799D01*
X184306743Y-73435492D01*
X184306914Y-73331154D01*
X184307616Y-73252213D01*
X184309134Y-73195038D01*
X184311749Y-73155999D01*
X184315746Y-73131465D01*
X184321409Y-73117805D01*
X184329020Y-73111389D01*
X184332143Y-73110199D01*
X184350978Y-73105980D01*
X184392588Y-73097562D01*
X184451630Y-73085961D01*
X184522757Y-73072195D01*
X184600625Y-73057280D01*
X184679887Y-73042232D01*
X184755198Y-73028069D01*
X184821213Y-73015806D01*
X184872587Y-73006461D01*
X184903975Y-73001050D01*
X184910959Y-73000114D01*
X184917285Y-72987596D01*
X184931290Y-72954246D01*
X184950355Y-72906377D01*
X184957634Y-72887629D01*
X184986996Y-72815195D01*
X185021571Y-72735170D01*
X185052537Y-72667728D01*
X185075323Y-72616159D01*
X185090482Y-72573785D01*
X185095542Y-72547834D01*
X185094736Y-72544356D01*
X185084041Y-72527936D01*
X185059620Y-72491417D01*
X185024095Y-72438687D01*
X184980087Y-72373635D01*
X184930217Y-72300151D01*
X184920356Y-72285645D01*
X184862492Y-72199704D01*
X184819956Y-72134261D01*
X184791054Y-72086304D01*
X184774090Y-72052820D01*
X184767367Y-72030795D01*
X184769190Y-72017217D01*
X184769236Y-72017131D01*
X184783586Y-71999297D01*
X184815323Y-71964817D01*
X184861010Y-71917268D01*
X184917204Y-71860222D01*
X184980468Y-71797255D01*
X184987602Y-71790227D01*
X185067330Y-71713020D01*
X185128857Y-71656330D01*
X185173421Y-71619110D01*
X185202257Y-71600315D01*
X185214958Y-71597889D01*
X185233494Y-71608471D01*
X185271961Y-71632916D01*
X185326386Y-71668612D01*
X185392798Y-71712947D01*
X185467225Y-71763311D01*
X185484601Y-71775160D01*
X185731297Y-71943626D01*
X185842706Y-71893062D01*
X185910457Y-71863595D01*
X185983183Y-71833959D01*
X186045703Y-71810330D01*
X186048457Y-71809358D01*
X186097360Y-71791457D01*
X186135057Y-71776320D01*
X186153425Y-71767210D01*
X186153456Y-71767184D01*
X186159285Y-71750717D01*
X186169192Y-71710219D01*
X186182195Y-71650242D01*
X186197309Y-71575340D01*
X186213552Y-71490064D01*
X186214881Y-71482875D01*
X186231175Y-71395014D01*
X186246133Y-71315260D01*
X186258791Y-71248681D01*
X186268186Y-71200347D01*
X186273354Y-71175325D01*
X186273444Y-71174943D01*
X186276589Y-71164299D01*
X186282704Y-71156262D01*
X186295453Y-71150467D01*
X186318500Y-71146547D01*
X186355509Y-71144135D01*
X186410144Y-71142865D01*
X186486067Y-71142371D01*
X186586944Y-71142286D01*
X186600000Y-71142286D01*
X186703910Y-71142348D01*
G36*
X189468196Y-75995384D02*
G01*
X189481884Y-75946695D01*
X189504096Y-75910849D01*
X189536574Y-75882513D01*
X189550733Y-75873355D01*
X189615053Y-75849507D01*
X189685473Y-75848006D01*
X189753595Y-75866966D01*
X189811021Y-75904497D01*
X189838719Y-75938096D01*
X189860662Y-75999064D01*
X189862405Y-76047308D01*
X189858457Y-76111816D01*
X189709686Y-76176934D01*
X189637349Y-76210202D01*
X189590084Y-76236964D01*
X189565507Y-76260144D01*
X189561237Y-76282667D01*
X189574889Y-76307455D01*
X189589943Y-76323886D01*
X189633746Y-76350235D01*
X189681389Y-76352081D01*
X189725145Y-76331546D01*
X189757289Y-76290752D01*
X189763038Y-76276347D01*
X189790576Y-76231356D01*
X189822258Y-76212182D01*
X189865714Y-76195779D01*
X189865714Y-76257966D01*
X189861872Y-76300283D01*
X189846823Y-76335969D01*
X189815280Y-76376943D01*
X189810592Y-76382267D01*
X189775506Y-76418720D01*
X189745347Y-76438283D01*
X189707615Y-76447283D01*
X189676335Y-76450230D01*
X189620385Y-76450965D01*
X189580555Y-76441660D01*
X189555708Y-76427846D01*
X189516656Y-76397467D01*
X189489625Y-76364613D01*
X189472517Y-76323294D01*
X189463238Y-76267521D01*
X189459693Y-76191305D01*
X189459410Y-76152622D01*
X189460372Y-76106247D01*
X189548007Y-76106247D01*
X189549023Y-76131126D01*
X189551556Y-76135200D01*
X189568274Y-76129665D01*
X189604249Y-76115017D01*
X189652331Y-76094190D01*
X189662386Y-76089714D01*
X189723152Y-76058814D01*
X189756632Y-76031657D01*
X189763990Y-76006220D01*
X189746391Y-75980481D01*
X189731856Y-75969109D01*
X189679410Y-75946364D01*
X189630322Y-75950122D01*
X189589227Y-75977884D01*
X189560758Y-76027152D01*
X189551631Y-76066257D01*
X189548007Y-76106247D01*
X189460372Y-76106247D01*
X189461285Y-76062249D01*
X189468196Y-75995384D01*
G37*
X189468196Y-75995384D02*
X189481884Y-75946695D01*
X189504096Y-75910849D01*
X189536574Y-75882513D01*
X189550733Y-75873355D01*
X189615053Y-75849507D01*
X189685473Y-75848006D01*
X189753595Y-75866966D01*
X189811021Y-75904497D01*
X189838719Y-75938096D01*
X189860662Y-75999064D01*
X189862405Y-76047308D01*
X189858457Y-76111816D01*
X189709686Y-76176934D01*
X189637349Y-76210202D01*
X189590084Y-76236964D01*
X189565507Y-76260144D01*
X189561237Y-76282667D01*
X189574889Y-76307455D01*
X189589943Y-76323886D01*
X189633746Y-76350235D01*
X189681389Y-76352081D01*
X189725145Y-76331546D01*
X189757289Y-76290752D01*
X189763038Y-76276347D01*
X189790576Y-76231356D01*
X189822258Y-76212182D01*
X189865714Y-76195779D01*
X189865714Y-76257966D01*
X189861872Y-76300283D01*
X189846823Y-76335969D01*
X189815280Y-76376943D01*
X189810592Y-76382267D01*
X189775506Y-76418720D01*
X189745347Y-76438283D01*
X189707615Y-76447283D01*
X189676335Y-76450230D01*
X189620385Y-76450965D01*
X189580555Y-76441660D01*
X189555708Y-76427846D01*
X189516656Y-76397467D01*
X189489625Y-76364613D01*
X189472517Y-76323294D01*
X189463238Y-76267521D01*
X189459693Y-76191305D01*
X189459410Y-76152622D01*
X189460372Y-76106247D01*
X189548007Y-76106247D01*
X189549023Y-76131126D01*
X189551556Y-76135200D01*
X189568274Y-76129665D01*
X189604249Y-76115017D01*
X189652331Y-76094190D01*
X189662386Y-76089714D01*
X189723152Y-76058814D01*
X189756632Y-76031657D01*
X189763990Y-76006220D01*
X189746391Y-75980481D01*
X189731856Y-75969109D01*
X189679410Y-75946364D01*
X189630322Y-75950122D01*
X189589227Y-75977884D01*
X189560758Y-76027152D01*
X189551631Y-76066257D01*
X189548007Y-76106247D01*
X189460372Y-76106247D01*
X189461285Y-76062249D01*
X189468196Y-75995384D01*
G36*
X189252600Y-75858752D02*
G01*
X189269948Y-75866334D01*
X189311356Y-75899128D01*
X189346765Y-75946547D01*
X189368664Y-75997151D01*
X189372229Y-76022098D01*
X189360279Y-76056927D01*
X189334067Y-76075357D01*
X189305964Y-76086516D01*
X189293095Y-76088572D01*
X189286829Y-76073649D01*
X189274456Y-76041175D01*
X189269028Y-76026502D01*
X189238590Y-75975744D01*
X189194520Y-75950427D01*
X189138010Y-75951206D01*
X189133825Y-75952203D01*
X189103655Y-75966507D01*
X189081476Y-75994393D01*
X189066327Y-76039287D01*
X189057250Y-76104615D01*
X189053286Y-76193804D01*
X189052914Y-76241261D01*
X189052730Y-76316071D01*
X189051522Y-76367069D01*
X189048309Y-76399471D01*
X189042109Y-76418495D01*
X189031940Y-76429356D01*
X189016819Y-76437272D01*
X189015946Y-76437670D01*
X188986828Y-76449981D01*
X188972403Y-76454514D01*
X188970186Y-76440809D01*
X188968289Y-76402925D01*
X188966847Y-76345715D01*
X188965998Y-76274027D01*
X188965829Y-76221565D01*
X188966692Y-76120047D01*
X188970070Y-76043032D01*
X188977142Y-75986023D01*
X188989088Y-75944526D01*
X189007090Y-75914043D01*
X189032327Y-75890080D01*
X189057247Y-75873355D01*
X189117171Y-75851097D01*
X189186911Y-75846076D01*
X189252600Y-75858752D01*
G37*
X189252600Y-75858752D02*
X189269948Y-75866334D01*
X189311356Y-75899128D01*
X189346765Y-75946547D01*
X189368664Y-75997151D01*
X189372229Y-76022098D01*
X189360279Y-76056927D01*
X189334067Y-76075357D01*
X189305964Y-76086516D01*
X189293095Y-76088572D01*
X189286829Y-76073649D01*
X189274456Y-76041175D01*
X189269028Y-76026502D01*
X189238590Y-75975744D01*
X189194520Y-75950427D01*
X189138010Y-75951206D01*
X189133825Y-75952203D01*
X189103655Y-75966507D01*
X189081476Y-75994393D01*
X189066327Y-76039287D01*
X189057250Y-76104615D01*
X189053286Y-76193804D01*
X189052914Y-76241261D01*
X189052730Y-76316071D01*
X189051522Y-76367069D01*
X189048309Y-76399471D01*
X189042109Y-76418495D01*
X189031940Y-76429356D01*
X189016819Y-76437272D01*
X189015946Y-76437670D01*
X188986828Y-76449981D01*
X188972403Y-76454514D01*
X188970186Y-76440809D01*
X188968289Y-76402925D01*
X188966847Y-76345715D01*
X188965998Y-76274027D01*
X188965829Y-76221565D01*
X188966692Y-76120047D01*
X188970070Y-76043032D01*
X188977142Y-75986023D01*
X188989088Y-75944526D01*
X189007090Y-75914043D01*
X189032327Y-75890080D01*
X189057247Y-75873355D01*
X189117171Y-75851097D01*
X189186911Y-75846076D01*
X189252600Y-75858752D01*
G36*
X188744876Y-75856335D02*
G01*
X188786667Y-75875344D01*
X188819469Y-75898378D01*
X188843503Y-75924133D01*
X188860097Y-75957358D01*
X188870577Y-76002800D01*
X188876271Y-76065207D01*
X188878507Y-76149327D01*
X188878743Y-76204721D01*
X188878743Y-76420826D01*
X188841774Y-76437670D01*
X188812656Y-76449981D01*
X188798231Y-76454514D01*
X188795472Y-76441025D01*
X188793282Y-76404653D01*
X188791942Y-76351542D01*
X188791657Y-76309372D01*
X188790434Y-76248447D01*
X188787136Y-76200115D01*
X188782321Y-76170518D01*
X188778496Y-76164229D01*
X188752783Y-76170652D01*
X188712418Y-76187125D01*
X188665679Y-76209458D01*
X188620845Y-76233457D01*
X188586193Y-76254930D01*
X188570002Y-76269685D01*
X188569938Y-76269845D01*
X188571330Y-76297152D01*
X188583818Y-76323219D01*
X188605743Y-76344392D01*
X188637743Y-76351474D01*
X188665092Y-76350649D01*
X188703826Y-76350042D01*
X188724158Y-76359116D01*
X188736369Y-76383092D01*
X188737909Y-76387613D01*
X188743203Y-76421806D01*
X188729047Y-76442568D01*
X188692148Y-76452462D01*
X188652289Y-76454292D01*
X188580562Y-76440727D01*
X188543432Y-76421355D01*
X188497576Y-76375845D01*
X188473256Y-76319983D01*
X188471073Y-76260957D01*
X188491629Y-76205953D01*
X188522549Y-76171486D01*
X188553420Y-76152189D01*
X188601942Y-76127759D01*
X188658485Y-76102985D01*
X188667910Y-76099199D01*
X188730019Y-76071791D01*
X188765822Y-76047634D01*
X188777337Y-76023619D01*
X188766580Y-75996635D01*
X188748114Y-75975543D01*
X188704469Y-75949572D01*
X188656446Y-75947624D01*
X188612406Y-75967637D01*
X188580709Y-76007551D01*
X188576549Y-76017848D01*
X188552327Y-76055724D01*
X188516965Y-76083842D01*
X188472343Y-76106917D01*
X188472343Y-76041485D01*
X188474969Y-76001506D01*
X188486230Y-75969997D01*
X188511199Y-75936378D01*
X188535169Y-75910484D01*
X188572441Y-75873817D01*
X188601401Y-75854121D01*
X188632505Y-75846220D01*
X188667713Y-75844914D01*
X188744876Y-75856335D01*
G37*
X188744876Y-75856335D02*
X188786667Y-75875344D01*
X188819469Y-75898378D01*
X188843503Y-75924133D01*
X188860097Y-75957358D01*
X188870577Y-76002800D01*
X188876271Y-76065207D01*
X188878507Y-76149327D01*
X188878743Y-76204721D01*
X188878743Y-76420826D01*
X188841774Y-76437670D01*
X188812656Y-76449981D01*
X188798231Y-76454514D01*
X188795472Y-76441025D01*
X188793282Y-76404653D01*
X188791942Y-76351542D01*
X188791657Y-76309372D01*
X188790434Y-76248447D01*
X188787136Y-76200115D01*
X188782321Y-76170518D01*
X188778496Y-76164229D01*
X188752783Y-76170652D01*
X188712418Y-76187125D01*
X188665679Y-76209458D01*
X188620845Y-76233457D01*
X188586193Y-76254930D01*
X188570002Y-76269685D01*
X188569938Y-76269845D01*
X188571330Y-76297152D01*
X188583818Y-76323219D01*
X188605743Y-76344392D01*
X188637743Y-76351474D01*
X188665092Y-76350649D01*
X188703826Y-76350042D01*
X188724158Y-76359116D01*
X188736369Y-76383092D01*
X188737909Y-76387613D01*
X188743203Y-76421806D01*
X188729047Y-76442568D01*
X188692148Y-76452462D01*
X188652289Y-76454292D01*
X188580562Y-76440727D01*
X188543432Y-76421355D01*
X188497576Y-76375845D01*
X188473256Y-76319983D01*
X188471073Y-76260957D01*
X188491629Y-76205953D01*
X188522549Y-76171486D01*
X188553420Y-76152189D01*
X188601942Y-76127759D01*
X188658485Y-76102985D01*
X188667910Y-76099199D01*
X188730019Y-76071791D01*
X188765822Y-76047634D01*
X188777337Y-76023619D01*
X188766580Y-75996635D01*
X188748114Y-75975543D01*
X188704469Y-75949572D01*
X188656446Y-75947624D01*
X188612406Y-75967637D01*
X188580709Y-76007551D01*
X188576549Y-76017848D01*
X188552327Y-76055724D01*
X188516965Y-76083842D01*
X188472343Y-76106917D01*
X188472343Y-76041485D01*
X188474969Y-76001506D01*
X188486230Y-75969997D01*
X188511199Y-75936378D01*
X188535169Y-75910484D01*
X188572441Y-75873817D01*
X188601401Y-75854121D01*
X188632505Y-75846220D01*
X188667713Y-75844914D01*
X188744876Y-75856335D01*
G36*
X188379833Y-75858663D02*
G01*
X188382048Y-75896850D01*
X188383784Y-75954886D01*
X188384899Y-76028180D01*
X188385257Y-76105055D01*
X188385257Y-76365196D01*
X188339326Y-76411127D01*
X188307675Y-76439429D01*
X188279890Y-76450893D01*
X188241915Y-76450168D01*
X188226840Y-76448321D01*
X188179726Y-76442948D01*
X188140756Y-76439869D01*
X188131257Y-76439585D01*
X188099233Y-76441445D01*
X188053432Y-76446114D01*
X188035674Y-76448321D01*
X187992057Y-76451735D01*
X187962745Y-76444320D01*
X187933680Y-76421427D01*
X187923188Y-76411127D01*
X187877257Y-76365196D01*
X187877257Y-75878602D01*
X187914226Y-75861758D01*
X187946059Y-75849282D01*
X187964683Y-75844914D01*
X187969458Y-75858718D01*
X187973921Y-75897286D01*
X187977775Y-75956356D01*
X187980722Y-76031663D01*
X187982143Y-76095286D01*
X187986114Y-76345657D01*
X188020759Y-76350556D01*
X188052268Y-76347131D01*
X188067708Y-76336041D01*
X188072023Y-76315308D01*
X188075708Y-76271145D01*
X188078469Y-76209146D01*
X188080012Y-76134909D01*
X188080235Y-76096706D01*
X188080457Y-75876783D01*
X188126166Y-75860849D01*
X188158518Y-75850015D01*
X188176115Y-75844962D01*
X188176623Y-75844914D01*
X188178388Y-75858648D01*
X188180329Y-75896730D01*
X188182282Y-75954482D01*
X188184084Y-76027227D01*
X188185343Y-76095286D01*
X188189314Y-76345657D01*
X188276400Y-76345657D01*
X188280396Y-76117240D01*
X188284392Y-75888822D01*
X188326847Y-75866868D01*
X188358192Y-75851793D01*
X188376744Y-75844951D01*
X188377279Y-75844914D01*
X188379833Y-75858663D01*
G37*
X188379833Y-75858663D02*
X188382048Y-75896850D01*
X188383784Y-75954886D01*
X188384899Y-76028180D01*
X188385257Y-76105055D01*
X188385257Y-76365196D01*
X188339326Y-76411127D01*
X188307675Y-76439429D01*
X188279890Y-76450893D01*
X188241915Y-76450168D01*
X188226840Y-76448321D01*
X188179726Y-76442948D01*
X188140756Y-76439869D01*
X188131257Y-76439585D01*
X188099233Y-76441445D01*
X188053432Y-76446114D01*
X188035674Y-76448321D01*
X187992057Y-76451735D01*
X187962745Y-76444320D01*
X187933680Y-76421427D01*
X187923188Y-76411127D01*
X187877257Y-76365196D01*
X187877257Y-75878602D01*
X187914226Y-75861758D01*
X187946059Y-75849282D01*
X187964683Y-75844914D01*
X187969458Y-75858718D01*
X187973921Y-75897286D01*
X187977775Y-75956356D01*
X187980722Y-76031663D01*
X187982143Y-76095286D01*
X187986114Y-76345657D01*
X188020759Y-76350556D01*
X188052268Y-76347131D01*
X188067708Y-76336041D01*
X188072023Y-76315308D01*
X188075708Y-76271145D01*
X188078469Y-76209146D01*
X188080012Y-76134909D01*
X188080235Y-76096706D01*
X188080457Y-75876783D01*
X188126166Y-75860849D01*
X188158518Y-75850015D01*
X188176115Y-75844962D01*
X188176623Y-75844914D01*
X188178388Y-75858648D01*
X188180329Y-75896730D01*
X188182282Y-75954482D01*
X188184084Y-76027227D01*
X188185343Y-76095286D01*
X188189314Y-76345657D01*
X188276400Y-76345657D01*
X188280396Y-76117240D01*
X188284392Y-75888822D01*
X188326847Y-75866868D01*
X188358192Y-75851793D01*
X188376744Y-75844951D01*
X188377279Y-75844914D01*
X188379833Y-75858663D01*
G36*
X187384726Y-75990086D02*
G01*
X187407135Y-75938600D01*
X187442124Y-75898443D01*
X187469375Y-75877861D01*
X187518907Y-75855625D01*
X187576316Y-75845304D01*
X187629682Y-75848067D01*
X187659543Y-75859212D01*
X187671261Y-75862383D01*
X187679037Y-75850557D01*
X187684465Y-75818866D01*
X187688571Y-75770593D01*
X187693067Y-75716829D01*
X187699313Y-75684482D01*
X187710676Y-75665985D01*
X187730528Y-75653770D01*
X187743000Y-75648362D01*
X187790171Y-75628601D01*
X187790117Y-75965358D01*
X187789933Y-76073837D01*
X187789219Y-76157287D01*
X187787675Y-76219704D01*
X187785001Y-76265085D01*
X187780894Y-76297429D01*
X187775055Y-76320733D01*
X187767182Y-76338995D01*
X187761221Y-76349418D01*
X187711855Y-76405945D01*
X187649264Y-76441377D01*
X187580013Y-76454090D01*
X187510668Y-76442463D01*
X187469375Y-76421568D01*
X187426025Y-76385422D01*
X187396481Y-76341276D01*
X187378655Y-76283462D01*
X187370463Y-76206313D01*
X187369302Y-76149714D01*
X187369458Y-76145647D01*
X187470857Y-76145647D01*
X187471476Y-76210550D01*
X187474314Y-76253514D01*
X187480840Y-76281622D01*
X187492523Y-76301953D01*
X187506483Y-76317288D01*
X187553365Y-76346890D01*
X187603701Y-76349419D01*
X187651276Y-76324705D01*
X187654979Y-76321356D01*
X187670783Y-76303935D01*
X187680693Y-76283209D01*
X187686058Y-76252362D01*
X187688228Y-76204577D01*
X187688571Y-76151748D01*
X187687827Y-76085381D01*
X187684748Y-76041106D01*
X187678061Y-76012009D01*
X187666496Y-75991173D01*
X187657013Y-75980107D01*
X187612960Y-75952198D01*
X187562224Y-75948843D01*
X187513796Y-75970159D01*
X187504450Y-75978073D01*
X187488540Y-75995647D01*
X187478610Y-76016587D01*
X187473278Y-76047782D01*
X187471163Y-76096122D01*
X187470857Y-76145647D01*
X187369458Y-76145647D01*
X187372810Y-76058568D01*
X187384726Y-75990086D01*
G37*
X187384726Y-75990086D02*
X187407135Y-75938600D01*
X187442124Y-75898443D01*
X187469375Y-75877861D01*
X187518907Y-75855625D01*
X187576316Y-75845304D01*
X187629682Y-75848067D01*
X187659543Y-75859212D01*
X187671261Y-75862383D01*
X187679037Y-75850557D01*
X187684465Y-75818866D01*
X187688571Y-75770593D01*
X187693067Y-75716829D01*
X187699313Y-75684482D01*
X187710676Y-75665985D01*
X187730528Y-75653770D01*
X187743000Y-75648362D01*
X187790171Y-75628601D01*
X187790117Y-75965358D01*
X187789933Y-76073837D01*
X187789219Y-76157287D01*
X187787675Y-76219704D01*
X187785001Y-76265085D01*
X187780894Y-76297429D01*
X187775055Y-76320733D01*
X187767182Y-76338995D01*
X187761221Y-76349418D01*
X187711855Y-76405945D01*
X187649264Y-76441377D01*
X187580013Y-76454090D01*
X187510668Y-76442463D01*
X187469375Y-76421568D01*
X187426025Y-76385422D01*
X187396481Y-76341276D01*
X187378655Y-76283462D01*
X187370463Y-76206313D01*
X187369302Y-76149714D01*
X187369458Y-76145647D01*
X187470857Y-76145647D01*
X187471476Y-76210550D01*
X187474314Y-76253514D01*
X187480840Y-76281622D01*
X187492523Y-76301953D01*
X187506483Y-76317288D01*
X187553365Y-76346890D01*
X187603701Y-76349419D01*
X187651276Y-76324705D01*
X187654979Y-76321356D01*
X187670783Y-76303935D01*
X187680693Y-76283209D01*
X187686058Y-76252362D01*
X187688228Y-76204577D01*
X187688571Y-76151748D01*
X187687827Y-76085381D01*
X187684748Y-76041106D01*
X187678061Y-76012009D01*
X187666496Y-75991173D01*
X187657013Y-75980107D01*
X187612960Y-75952198D01*
X187562224Y-75948843D01*
X187513796Y-75970159D01*
X187504450Y-75978073D01*
X187488540Y-75995647D01*
X187478610Y-76016587D01*
X187473278Y-76047782D01*
X187471163Y-76096122D01*
X187470857Y-76145647D01*
X187369458Y-76145647D01*
X187372810Y-76058568D01*
X187384726Y-75990086D01*
G36*
X187129926Y-75849755D02*
G01*
X187195858Y-75874084D01*
X187249273Y-75917117D01*
X187270164Y-75947409D01*
X187292939Y-76002994D01*
X187292466Y-76043186D01*
X187268562Y-76070217D01*
X187259717Y-76074813D01*
X187221530Y-76089144D01*
X187202028Y-76085472D01*
X187195422Y-76061407D01*
X187195086Y-76048114D01*
X187182992Y-75999210D01*
X187151471Y-75964999D01*
X187107659Y-75948476D01*
X187058695Y-75952634D01*
X187018894Y-75974227D01*
X187005450Y-75986544D01*
X186995921Y-76001487D01*
X186989485Y-76024075D01*
X186985317Y-76059328D01*
X186982597Y-76112266D01*
X186980502Y-76187907D01*
X186979960Y-76211857D01*
X186977981Y-76293790D01*
X186975731Y-76351455D01*
X186972357Y-76389608D01*
X186967006Y-76413004D01*
X186958824Y-76426398D01*
X186946959Y-76434545D01*
X186939362Y-76438144D01*
X186907102Y-76450452D01*
X186888111Y-76454514D01*
X186881836Y-76440948D01*
X186878006Y-76399934D01*
X186876600Y-76330999D01*
X186877598Y-76233669D01*
X186877908Y-76218657D01*
X186880101Y-76129859D01*
X186882693Y-76065019D01*
X186886382Y-76019067D01*
X186891864Y-75986935D01*
X186899835Y-75963553D01*
X186910993Y-75943852D01*
X186916830Y-75935410D01*
X186950296Y-75898057D01*
X186987727Y-75869003D01*
X186992309Y-75866467D01*
X187059426Y-75846443D01*
X187129926Y-75849755D01*
G37*
X187129926Y-75849755D02*
X187195858Y-75874084D01*
X187249273Y-75917117D01*
X187270164Y-75947409D01*
X187292939Y-76002994D01*
X187292466Y-76043186D01*
X187268562Y-76070217D01*
X187259717Y-76074813D01*
X187221530Y-76089144D01*
X187202028Y-76085472D01*
X187195422Y-76061407D01*
X187195086Y-76048114D01*
X187182992Y-75999210D01*
X187151471Y-75964999D01*
X187107659Y-75948476D01*
X187058695Y-75952634D01*
X187018894Y-75974227D01*
X187005450Y-75986544D01*
X186995921Y-76001487D01*
X186989485Y-76024075D01*
X186985317Y-76059328D01*
X186982597Y-76112266D01*
X186980502Y-76187907D01*
X186979960Y-76211857D01*
X186977981Y-76293790D01*
X186975731Y-76351455D01*
X186972357Y-76389608D01*
X186967006Y-76413004D01*
X186958824Y-76426398D01*
X186946959Y-76434545D01*
X186939362Y-76438144D01*
X186907102Y-76450452D01*
X186888111Y-76454514D01*
X186881836Y-76440948D01*
X186878006Y-76399934D01*
X186876600Y-76330999D01*
X186877598Y-76233669D01*
X186877908Y-76218657D01*
X186880101Y-76129859D01*
X186882693Y-76065019D01*
X186886382Y-76019067D01*
X186891864Y-75986935D01*
X186899835Y-75963553D01*
X186910993Y-75943852D01*
X186916830Y-75935410D01*
X186950296Y-75898057D01*
X186987727Y-75869003D01*
X186992309Y-75866467D01*
X187059426Y-75846443D01*
X187129926Y-75849755D01*
G36*
X186639744Y-75850968D02*
G01*
X186696616Y-75872087D01*
X186697267Y-75872493D01*
X186732440Y-75898380D01*
X186758407Y-75928633D01*
X186776670Y-75968058D01*
X186788732Y-76021462D01*
X186796096Y-76093651D01*
X186800264Y-76189432D01*
X186800629Y-76203078D01*
X186805876Y-76408842D01*
X186761716Y-76431678D01*
X186729763Y-76447110D01*
X186710470Y-76454423D01*
X186709578Y-76454514D01*
X186706239Y-76441022D01*
X186703587Y-76404626D01*
X186701956Y-76351452D01*
X186701600Y-76308393D01*
X186701592Y-76238641D01*
X186698403Y-76194837D01*
X186687288Y-76173944D01*
X186663501Y-76172925D01*
X186622296Y-76188741D01*
X186560086Y-76217815D01*
X186514341Y-76241963D01*
X186490813Y-76262913D01*
X186483896Y-76285747D01*
X186483886Y-76286877D01*
X186495299Y-76326212D01*
X186529092Y-76347462D01*
X186580809Y-76350539D01*
X186618061Y-76350006D01*
X186637703Y-76360735D01*
X186649952Y-76386505D01*
X186657002Y-76419337D01*
X186646842Y-76437966D01*
X186643017Y-76440632D01*
X186607001Y-76451340D01*
X186556566Y-76452856D01*
X186504626Y-76445759D01*
X186467822Y-76432788D01*
X186416938Y-76389585D01*
X186388014Y-76329446D01*
X186382286Y-76282462D01*
X186386657Y-76240082D01*
X186402475Y-76205488D01*
X186433797Y-76174763D01*
X186484678Y-76143990D01*
X186559176Y-76109252D01*
X186563714Y-76107288D01*
X186630821Y-76076287D01*
X186672232Y-76050862D01*
X186689981Y-76028014D01*
X186686107Y-76004745D01*
X186662643Y-75978056D01*
X186655627Y-75971914D01*
X186608630Y-75948100D01*
X186559933Y-75949103D01*
X186517522Y-75972451D01*
X186489384Y-76015675D01*
X186486769Y-76024160D01*
X186461308Y-76065308D01*
X186429001Y-76085128D01*
X186382286Y-76104770D01*
X186382286Y-76053950D01*
X186396496Y-75980082D01*
X186438675Y-75912327D01*
X186460624Y-75889661D01*
X186510517Y-75860569D01*
X186573967Y-75847400D01*
X186639744Y-75850968D01*
G37*
X186639744Y-75850968D02*
X186696616Y-75872087D01*
X186697267Y-75872493D01*
X186732440Y-75898380D01*
X186758407Y-75928633D01*
X186776670Y-75968058D01*
X186788732Y-76021462D01*
X186796096Y-76093651D01*
X186800264Y-76189432D01*
X186800629Y-76203078D01*
X186805876Y-76408842D01*
X186761716Y-76431678D01*
X186729763Y-76447110D01*
X186710470Y-76454423D01*
X186709578Y-76454514D01*
X186706239Y-76441022D01*
X186703587Y-76404626D01*
X186701956Y-76351452D01*
X186701600Y-76308393D01*
X186701592Y-76238641D01*
X186698403Y-76194837D01*
X186687288Y-76173944D01*
X186663501Y-76172925D01*
X186622296Y-76188741D01*
X186560086Y-76217815D01*
X186514341Y-76241963D01*
X186490813Y-76262913D01*
X186483896Y-76285747D01*
X186483886Y-76286877D01*
X186495299Y-76326212D01*
X186529092Y-76347462D01*
X186580809Y-76350539D01*
X186618061Y-76350006D01*
X186637703Y-76360735D01*
X186649952Y-76386505D01*
X186657002Y-76419337D01*
X186646842Y-76437966D01*
X186643017Y-76440632D01*
X186607001Y-76451340D01*
X186556566Y-76452856D01*
X186504626Y-76445759D01*
X186467822Y-76432788D01*
X186416938Y-76389585D01*
X186388014Y-76329446D01*
X186382286Y-76282462D01*
X186386657Y-76240082D01*
X186402475Y-76205488D01*
X186433797Y-76174763D01*
X186484678Y-76143990D01*
X186559176Y-76109252D01*
X186563714Y-76107288D01*
X186630821Y-76076287D01*
X186672232Y-76050862D01*
X186689981Y-76028014D01*
X186686107Y-76004745D01*
X186662643Y-75978056D01*
X186655627Y-75971914D01*
X186608630Y-75948100D01*
X186559933Y-75949103D01*
X186517522Y-75972451D01*
X186489384Y-76015675D01*
X186486769Y-76024160D01*
X186461308Y-76065308D01*
X186429001Y-76085128D01*
X186382286Y-76104770D01*
X186382286Y-76053950D01*
X186396496Y-75980082D01*
X186438675Y-75912327D01*
X186460624Y-75889661D01*
X186510517Y-75860569D01*
X186573967Y-75847400D01*
X186639744Y-75850968D01*
G36*
X185975886Y-75751289D02*
G01*
X185980139Y-75810613D01*
X185985025Y-75845572D01*
X185991795Y-75860820D01*
X186001702Y-75861015D01*
X186004914Y-75859195D01*
X186047644Y-75846015D01*
X186103227Y-75846785D01*
X186159737Y-75860333D01*
X186195082Y-75877861D01*
X186231321Y-75905861D01*
X186257813Y-75937549D01*
X186275999Y-75977813D01*
X186287322Y-76031543D01*
X186293222Y-76103626D01*
X186295143Y-76198951D01*
X186295177Y-76217237D01*
X186295200Y-76422646D01*
X186249491Y-76438580D01*
X186217027Y-76449420D01*
X186199215Y-76454468D01*
X186198691Y-76454514D01*
X186196937Y-76440828D01*
X186195444Y-76403076D01*
X186194326Y-76346224D01*
X186193697Y-76275234D01*
X186193600Y-76232073D01*
X186193398Y-76146973D01*
X186192358Y-76085981D01*
X186189831Y-76044177D01*
X186185164Y-76016642D01*
X186177707Y-75998456D01*
X186166811Y-75984698D01*
X186160007Y-75978073D01*
X186113272Y-75951375D01*
X186062272Y-75949375D01*
X186016001Y-75971955D01*
X186007444Y-75980107D01*
X185994893Y-75995436D01*
X185986188Y-76013618D01*
X185980631Y-76039909D01*
X185977526Y-76079562D01*
X185976176Y-76137832D01*
X185975886Y-76218173D01*
X185975886Y-76422646D01*
X185930177Y-76438580D01*
X185897713Y-76449420D01*
X185879901Y-76454468D01*
X185879377Y-76454514D01*
X185878037Y-76440623D01*
X185876828Y-76401439D01*
X185875801Y-76340700D01*
X185875002Y-76262141D01*
X185874481Y-76169498D01*
X185874286Y-76066509D01*
X185874286Y-75669342D01*
X185921457Y-75649444D01*
X185968629Y-75629547D01*
X185975886Y-75751289D01*
G37*
X185975886Y-75751289D02*
X185980139Y-75810613D01*
X185985025Y-75845572D01*
X185991795Y-75860820D01*
X186001702Y-75861015D01*
X186004914Y-75859195D01*
X186047644Y-75846015D01*
X186103227Y-75846785D01*
X186159737Y-75860333D01*
X186195082Y-75877861D01*
X186231321Y-75905861D01*
X186257813Y-75937549D01*
X186275999Y-75977813D01*
X186287322Y-76031543D01*
X186293222Y-76103626D01*
X186295143Y-76198951D01*
X186295177Y-76217237D01*
X186295200Y-76422646D01*
X186249491Y-76438580D01*
X186217027Y-76449420D01*
X186199215Y-76454468D01*
X186198691Y-76454514D01*
X186196937Y-76440828D01*
X186195444Y-76403076D01*
X186194326Y-76346224D01*
X186193697Y-76275234D01*
X186193600Y-76232073D01*
X186193398Y-76146973D01*
X186192358Y-76085981D01*
X186189831Y-76044177D01*
X186185164Y-76016642D01*
X186177707Y-75998456D01*
X186166811Y-75984698D01*
X186160007Y-75978073D01*
X186113272Y-75951375D01*
X186062272Y-75949375D01*
X186016001Y-75971955D01*
X186007444Y-75980107D01*
X185994893Y-75995436D01*
X185986188Y-76013618D01*
X185980631Y-76039909D01*
X185977526Y-76079562D01*
X185976176Y-76137832D01*
X185975886Y-76218173D01*
X185975886Y-76422646D01*
X185930177Y-76438580D01*
X185897713Y-76449420D01*
X185879901Y-76454468D01*
X185879377Y-76454514D01*
X185878037Y-76440623D01*
X185876828Y-76401439D01*
X185875801Y-76340700D01*
X185875002Y-76262141D01*
X185874481Y-76169498D01*
X185874286Y-76066509D01*
X185874286Y-75669342D01*
X185921457Y-75649444D01*
X185968629Y-75629547D01*
X185975886Y-75751289D01*
G36*
X184471550Y-75936212D02*
G01*
X184505456Y-75887302D01*
X184566653Y-75837878D01*
X184634063Y-75813359D01*
X184702880Y-75811797D01*
X184768303Y-75831239D01*
X184825527Y-75869735D01*
X184869749Y-75925335D01*
X184896167Y-75996086D01*
X184901510Y-76048162D01*
X184900903Y-76069893D01*
X184895822Y-76086531D01*
X184881855Y-76101437D01*
X184854589Y-76117973D01*
X184809612Y-76139498D01*
X184742511Y-76169374D01*
X184742171Y-76169524D01*
X184680407Y-76197813D01*
X184629759Y-76222933D01*
X184595404Y-76242179D01*
X184582518Y-76252848D01*
X184582514Y-76252934D01*
X184593872Y-76276166D01*
X184620431Y-76301774D01*
X184650923Y-76320221D01*
X184666370Y-76323886D01*
X184708515Y-76311212D01*
X184744808Y-76279471D01*
X184762517Y-76244572D01*
X184779552Y-76218845D01*
X184812922Y-76189546D01*
X184852149Y-76164235D01*
X184886756Y-76150471D01*
X184893993Y-76149714D01*
X184902139Y-76162160D01*
X184902630Y-76193972D01*
X184896643Y-76236866D01*
X184885357Y-76282558D01*
X184869950Y-76322761D01*
X184869171Y-76324322D01*
X184822804Y-76389062D01*
X184762711Y-76433097D01*
X184694465Y-76454711D01*
X184623638Y-76452185D01*
X184555804Y-76423804D01*
X184552788Y-76421808D01*
X184499427Y-76373448D01*
X184464340Y-76310352D01*
X184444922Y-76227387D01*
X184442316Y-76204078D01*
X184437701Y-76094055D01*
X184443233Y-76042748D01*
X184582514Y-76042748D01*
X184584324Y-76074753D01*
X184594222Y-76084093D01*
X184618898Y-76077105D01*
X184657795Y-76060587D01*
X184701275Y-76039881D01*
X184702356Y-76039333D01*
X184739209Y-76019949D01*
X184754000Y-76007013D01*
X184750353Y-75993451D01*
X184734995Y-75975632D01*
X184695923Y-75949845D01*
X184653846Y-75947950D01*
X184616103Y-75966717D01*
X184590034Y-76002915D01*
X184582514Y-76042748D01*
X184443233Y-76042748D01*
X184447194Y-76006027D01*
X184471550Y-75936212D01*
G37*
X184471550Y-75936212D02*
X184505456Y-75887302D01*
X184566653Y-75837878D01*
X184634063Y-75813359D01*
X184702880Y-75811797D01*
X184768303Y-75831239D01*
X184825527Y-75869735D01*
X184869749Y-75925335D01*
X184896167Y-75996086D01*
X184901510Y-76048162D01*
X184900903Y-76069893D01*
X184895822Y-76086531D01*
X184881855Y-76101437D01*
X184854589Y-76117973D01*
X184809612Y-76139498D01*
X184742511Y-76169374D01*
X184742171Y-76169524D01*
X184680407Y-76197813D01*
X184629759Y-76222933D01*
X184595404Y-76242179D01*
X184582518Y-76252848D01*
X184582514Y-76252934D01*
X184593872Y-76276166D01*
X184620431Y-76301774D01*
X184650923Y-76320221D01*
X184666370Y-76323886D01*
X184708515Y-76311212D01*
X184744808Y-76279471D01*
X184762517Y-76244572D01*
X184779552Y-76218845D01*
X184812922Y-76189546D01*
X184852149Y-76164235D01*
X184886756Y-76150471D01*
X184893993Y-76149714D01*
X184902139Y-76162160D01*
X184902630Y-76193972D01*
X184896643Y-76236866D01*
X184885357Y-76282558D01*
X184869950Y-76322761D01*
X184869171Y-76324322D01*
X184822804Y-76389062D01*
X184762711Y-76433097D01*
X184694465Y-76454711D01*
X184623638Y-76452185D01*
X184555804Y-76423804D01*
X184552788Y-76421808D01*
X184499427Y-76373448D01*
X184464340Y-76310352D01*
X184444922Y-76227387D01*
X184442316Y-76204078D01*
X184437701Y-76094055D01*
X184443233Y-76042748D01*
X184582514Y-76042748D01*
X184584324Y-76074753D01*
X184594222Y-76084093D01*
X184618898Y-76077105D01*
X184657795Y-76060587D01*
X184701275Y-76039881D01*
X184702356Y-76039333D01*
X184739209Y-76019949D01*
X184754000Y-76007013D01*
X184750353Y-75993451D01*
X184734995Y-75975632D01*
X184695923Y-75949845D01*
X184653846Y-75947950D01*
X184616103Y-75966717D01*
X184590034Y-76002915D01*
X184582514Y-76042748D01*
X184443233Y-76042748D01*
X184447194Y-76006027D01*
X184471550Y-75936212D01*
G36*
X183337096Y-76008159D02*
G01*
X183342068Y-75971949D01*
X183350713Y-75945299D01*
X183364005Y-75921722D01*
X183366943Y-75917338D01*
X183416313Y-75858249D01*
X183470109Y-75823947D01*
X183535602Y-75810331D01*
X183557842Y-75809665D01*
X183641115Y-75821962D01*
X183709145Y-75857733D01*
X183759351Y-75915301D01*
X183777185Y-75952312D01*
X183791063Y-76007882D01*
X183798167Y-76078096D01*
X183798840Y-76154727D01*
X183793427Y-76229552D01*
X183782270Y-76294342D01*
X183765714Y-76340873D01*
X183760626Y-76348887D01*
X183700355Y-76408707D01*
X183628769Y-76444535D01*
X183551092Y-76455020D01*
X183472548Y-76438810D01*
X183450689Y-76429092D01*
X183408122Y-76399143D01*
X183370763Y-76359433D01*
X183367232Y-76354397D01*
X183352881Y-76330124D01*
X183343394Y-76304178D01*
X183337790Y-76270022D01*
X183335086Y-76221119D01*
X183334299Y-76150935D01*
X183334286Y-76135200D01*
X183334322Y-76130192D01*
X183479429Y-76130192D01*
X183480273Y-76196430D01*
X183483596Y-76240386D01*
X183490583Y-76268779D01*
X183502416Y-76288325D01*
X183508457Y-76294857D01*
X183543186Y-76319680D01*
X183576903Y-76318548D01*
X183610995Y-76297016D01*
X183631329Y-76274029D01*
X183643371Y-76240478D01*
X183650134Y-76187569D01*
X183650598Y-76181399D01*
X183651752Y-76085513D01*
X183639688Y-76014299D01*
X183614570Y-75968194D01*
X183576560Y-75947635D01*
X183562992Y-75946514D01*
X183527364Y-75952152D01*
X183502994Y-75971686D01*
X183488093Y-76009042D01*
X183480875Y-76068150D01*
X183479429Y-76130192D01*
X183334322Y-76130192D01*
X183334826Y-76060413D01*
X183337096Y-76008159D01*
G37*
X183337096Y-76008159D02*
X183342068Y-75971949D01*
X183350713Y-75945299D01*
X183364005Y-75921722D01*
X183366943Y-75917338D01*
X183416313Y-75858249D01*
X183470109Y-75823947D01*
X183535602Y-75810331D01*
X183557842Y-75809665D01*
X183641115Y-75821962D01*
X183709145Y-75857733D01*
X183759351Y-75915301D01*
X183777185Y-75952312D01*
X183791063Y-76007882D01*
X183798167Y-76078096D01*
X183798840Y-76154727D01*
X183793427Y-76229552D01*
X183782270Y-76294342D01*
X183765714Y-76340873D01*
X183760626Y-76348887D01*
X183700355Y-76408707D01*
X183628769Y-76444535D01*
X183551092Y-76455020D01*
X183472548Y-76438810D01*
X183450689Y-76429092D01*
X183408122Y-76399143D01*
X183370763Y-76359433D01*
X183367232Y-76354397D01*
X183352881Y-76330124D01*
X183343394Y-76304178D01*
X183337790Y-76270022D01*
X183335086Y-76221119D01*
X183334299Y-76150935D01*
X183334286Y-76135200D01*
X183334322Y-76130192D01*
X183479429Y-76130192D01*
X183480273Y-76196430D01*
X183483596Y-76240386D01*
X183490583Y-76268779D01*
X183502416Y-76288325D01*
X183508457Y-76294857D01*
X183543186Y-76319680D01*
X183576903Y-76318548D01*
X183610995Y-76297016D01*
X183631329Y-76274029D01*
X183643371Y-76240478D01*
X183650134Y-76187569D01*
X183650598Y-76181399D01*
X183651752Y-76085513D01*
X183639688Y-76014299D01*
X183614570Y-75968194D01*
X183576560Y-75947635D01*
X183562992Y-75946514D01*
X183527364Y-75952152D01*
X183502994Y-75971686D01*
X183488093Y-76009042D01*
X183480875Y-76068150D01*
X183479429Y-76130192D01*
X183334322Y-76130192D01*
X183334826Y-76060413D01*
X183337096Y-76008159D01*
G36*
X185316093Y-75827780D02*
G01*
X185362672Y-75854723D01*
X185395057Y-75881466D01*
X185418742Y-75909484D01*
X185435059Y-75943748D01*
X185445339Y-75989227D01*
X185450914Y-76050892D01*
X185453116Y-76133711D01*
X185453371Y-76193246D01*
X185453371Y-76412391D01*
X185391686Y-76440044D01*
X185330000Y-76467697D01*
X185322743Y-76227670D01*
X185319744Y-76138028D01*
X185316598Y-76072962D01*
X185312701Y-76028026D01*
X185307447Y-75998770D01*
X185300231Y-75980748D01*
X185290450Y-75969511D01*
X185287312Y-75967079D01*
X185239761Y-75948083D01*
X185191697Y-75955600D01*
X185163086Y-75975543D01*
X185151447Y-75989675D01*
X185143391Y-76008220D01*
X185138271Y-76036334D01*
X185135441Y-76079173D01*
X185134256Y-76141895D01*
X185134057Y-76207261D01*
X185134018Y-76289268D01*
X185132614Y-76347316D01*
X185127914Y-76386465D01*
X185117987Y-76411780D01*
X185100903Y-76428323D01*
X185074732Y-76441156D01*
X185039775Y-76454491D01*
X185001596Y-76469007D01*
X185006141Y-76211389D01*
X185007971Y-76118519D01*
X185010112Y-76049889D01*
X185013181Y-76000711D01*
X185017794Y-75966198D01*
X185024568Y-75941562D01*
X185034119Y-75922016D01*
X185045634Y-75904770D01*
X185101190Y-75849680D01*
X185168980Y-75817822D01*
X185242713Y-75810191D01*
X185316093Y-75827780D01*
G37*
X185316093Y-75827780D02*
X185362672Y-75854723D01*
X185395057Y-75881466D01*
X185418742Y-75909484D01*
X185435059Y-75943748D01*
X185445339Y-75989227D01*
X185450914Y-76050892D01*
X185453116Y-76133711D01*
X185453371Y-76193246D01*
X185453371Y-76412391D01*
X185391686Y-76440044D01*
X185330000Y-76467697D01*
X185322743Y-76227670D01*
X185319744Y-76138028D01*
X185316598Y-76072962D01*
X185312701Y-76028026D01*
X185307447Y-75998770D01*
X185300231Y-75980748D01*
X185290450Y-75969511D01*
X185287312Y-75967079D01*
X185239761Y-75948083D01*
X185191697Y-75955600D01*
X185163086Y-75975543D01*
X185151447Y-75989675D01*
X185143391Y-76008220D01*
X185138271Y-76036334D01*
X185135441Y-76079173D01*
X185134256Y-76141895D01*
X185134057Y-76207261D01*
X185134018Y-76289268D01*
X185132614Y-76347316D01*
X185127914Y-76386465D01*
X185117987Y-76411780D01*
X185100903Y-76428323D01*
X185074732Y-76441156D01*
X185039775Y-76454491D01*
X185001596Y-76469007D01*
X185006141Y-76211389D01*
X185007971Y-76118519D01*
X185010112Y-76049889D01*
X185013181Y-76000711D01*
X185017794Y-75966198D01*
X185024568Y-75941562D01*
X185034119Y-75922016D01*
X185045634Y-75904770D01*
X185101190Y-75849680D01*
X185168980Y-75817822D01*
X185242713Y-75810191D01*
X185316093Y-75827780D01*
G36*
X183893677Y-76050333D02*
G01*
X183896450Y-76002958D01*
X183900388Y-75969290D01*
X183905849Y-75945498D01*
X183913192Y-75927753D01*
X183922777Y-75912224D01*
X183926887Y-75906381D01*
X183981405Y-75851185D01*
X184050336Y-75819890D01*
X184130072Y-75811165D01*
X184199744Y-75819918D01*
X184255201Y-75847568D01*
X184304148Y-75898480D01*
X184317629Y-75917338D01*
X184332314Y-75942015D01*
X184341842Y-75968816D01*
X184347293Y-76004587D01*
X184349747Y-76056169D01*
X184350286Y-76124267D01*
X184347852Y-76217588D01*
X184339394Y-76287657D01*
X184323174Y-76339931D01*
X184297454Y-76379869D01*
X184260497Y-76412929D01*
X184257782Y-76414886D01*
X184221360Y-76434908D01*
X184177502Y-76444815D01*
X184121724Y-76447257D01*
X184031048Y-76447257D01*
X184031010Y-76535283D01*
X184030166Y-76584308D01*
X184025024Y-76613065D01*
X184011587Y-76630311D01*
X183985858Y-76644808D01*
X183979679Y-76647769D01*
X183950764Y-76661648D01*
X183928376Y-76670414D01*
X183911729Y-76671171D01*
X183900036Y-76661023D01*
X183892510Y-76637073D01*
X183888366Y-76596426D01*
X183886815Y-76536186D01*
X183887071Y-76453455D01*
X183888349Y-76345339D01*
X183888748Y-76313000D01*
X183890185Y-76201524D01*
X183891472Y-76128603D01*
X184030971Y-76128603D01*
X184031755Y-76190499D01*
X184035240Y-76230997D01*
X184043124Y-76257708D01*
X184057105Y-76278244D01*
X184066597Y-76288260D01*
X184105404Y-76317567D01*
X184139763Y-76319952D01*
X184175216Y-76295750D01*
X184176114Y-76294857D01*
X184190539Y-76276153D01*
X184199313Y-76250732D01*
X184203739Y-76211584D01*
X184205118Y-76151697D01*
X184205143Y-76138430D01*
X184201812Y-76055901D01*
X184190969Y-75998691D01*
X184171340Y-75963766D01*
X184141650Y-75948094D01*
X184124491Y-75946514D01*
X184083766Y-75953926D01*
X184055832Y-75978330D01*
X184039017Y-76022980D01*
X184031650Y-76091130D01*
X184030971Y-76128603D01*
X183891472Y-76128603D01*
X183891708Y-76115245D01*
X183893677Y-76050333D01*
G37*
X183893677Y-76050333D02*
X183896450Y-76002958D01*
X183900388Y-75969290D01*
X183905849Y-75945498D01*
X183913192Y-75927753D01*
X183922777Y-75912224D01*
X183926887Y-75906381D01*
X183981405Y-75851185D01*
X184050336Y-75819890D01*
X184130072Y-75811165D01*
X184199744Y-75819918D01*
X184255201Y-75847568D01*
X184304148Y-75898480D01*
X184317629Y-75917338D01*
X184332314Y-75942015D01*
X184341842Y-75968816D01*
X184347293Y-76004587D01*
X184349747Y-76056169D01*
X184350286Y-76124267D01*
X184347852Y-76217588D01*
X184339394Y-76287657D01*
X184323174Y-76339931D01*
X184297454Y-76379869D01*
X184260497Y-76412929D01*
X184257782Y-76414886D01*
X184221360Y-76434908D01*
X184177502Y-76444815D01*
X184121724Y-76447257D01*
X184031048Y-76447257D01*
X184031010Y-76535283D01*
X184030166Y-76584308D01*
X184025024Y-76613065D01*
X184011587Y-76630311D01*
X183985858Y-76644808D01*
X183979679Y-76647769D01*
X183950764Y-76661648D01*
X183928376Y-76670414D01*
X183911729Y-76671171D01*
X183900036Y-76661023D01*
X183892510Y-76637073D01*
X183888366Y-76596426D01*
X183886815Y-76536186D01*
X183887071Y-76453455D01*
X183888349Y-76345339D01*
X183888748Y-76313000D01*
X183890185Y-76201524D01*
X183891472Y-76128603D01*
X184030971Y-76128603D01*
X184031755Y-76190499D01*
X184035240Y-76230997D01*
X184043124Y-76257708D01*
X184057105Y-76278244D01*
X184066597Y-76288260D01*
X184105404Y-76317567D01*
X184139763Y-76319952D01*
X184175216Y-76295750D01*
X184176114Y-76294857D01*
X184190539Y-76276153D01*
X184199313Y-76250732D01*
X184203739Y-76211584D01*
X184205118Y-76151697D01*
X184205143Y-76138430D01*
X184201812Y-76055901D01*
X184190969Y-75998691D01*
X184171340Y-75963766D01*
X184141650Y-75948094D01*
X184124491Y-75946514D01*
X184083766Y-75953926D01*
X184055832Y-75978330D01*
X184039017Y-76022980D01*
X184031650Y-76091130D01*
X184030971Y-76128603D01*
X183891472Y-76128603D01*
X183891708Y-76115245D01*
X183893677Y-76050333D01*
D13*
%TO.C,C1*%
X182701000Y-86406222D02*
X182701000Y-86923378D01*
X181281000Y-86406222D02*
X181281000Y-86923378D01*
%TO.C,R24*%
X186485600Y-100985822D02*
X186485600Y-101502978D01*
X185065600Y-100985822D02*
X185065600Y-101502978D01*
%TO.C,C8*%
X162660400Y-101087422D02*
X162660400Y-101604578D01*
X161240400Y-101087422D02*
X161240400Y-101604578D01*
%TO.C,R28*%
X173557000Y-100985822D02*
X173557000Y-101502978D01*
X172137000Y-100985822D02*
X172137000Y-101502978D01*
%TO.C,R25*%
X136805600Y-100376322D02*
X136805600Y-100893478D01*
X138225600Y-100376322D02*
X138225600Y-100893478D01*
%TO.C,D13*%
X173607400Y-99452800D02*
X173607400Y-97167800D01*
X172137400Y-99452800D02*
X173607400Y-99452800D01*
X172137400Y-97167800D02*
X172137400Y-99452800D01*
%TO.C,J7*%
X129838800Y-117283600D02*
X129838800Y-117923600D01*
X136631800Y-113897600D02*
X136251800Y-114277600D01*
X131356800Y-114170600D02*
X131250800Y-114277600D01*
X144292800Y-111235600D02*
X143897800Y-111631600D01*
X130078800Y-116123600D02*
X145198800Y-116123600D01*
X141380800Y-113615600D02*
X140985800Y-114011600D01*
X130078800Y-108563600D02*
X145198800Y-108563600D01*
X141631800Y-113897600D02*
X141251800Y-114277600D01*
X130078800Y-117223600D02*
X145198800Y-117223600D01*
X139292800Y-111235600D02*
X138897800Y-111631600D01*
X139026800Y-110969600D02*
X138646800Y-111349600D01*
X129838800Y-117923600D02*
X130238800Y-117923600D01*
X144026800Y-110969600D02*
X143646800Y-111349600D01*
X130078800Y-117683600D02*
X145198800Y-117683600D01*
X145198800Y-108563600D02*
X145198800Y-117683600D01*
X134292800Y-111235600D02*
X134185800Y-111342600D01*
X136380800Y-113615600D02*
X135985800Y-114011600D01*
X134026800Y-110969600D02*
X133919800Y-111076600D01*
X130078800Y-108563600D02*
X130078800Y-117683600D01*
X131090800Y-113904600D02*
X130984800Y-114011600D01*
X139818800Y-112623600D02*
G75*
G03*
X139818800Y-112623600I-2180000J0D01*
G01*
X144818800Y-112623600D02*
G75*
G03*
X144818800Y-112623600I-2180000J0D01*
G01*
X134818800Y-112623600D02*
G75*
G03*
X134818800Y-112623600I-2180000J0D01*
G01*
%TO.C,J5*%
X172499600Y-113615600D02*
X172104600Y-114011600D01*
X172750600Y-113897600D02*
X172370600Y-114277600D01*
X166197600Y-117683600D02*
X181317600Y-117683600D01*
X166197600Y-108563600D02*
X166197600Y-117683600D01*
X165957600Y-117923600D02*
X166357600Y-117923600D01*
X165957600Y-117283600D02*
X165957600Y-117923600D01*
X167475600Y-114170600D02*
X167369600Y-114277600D01*
X180145600Y-110969600D02*
X179765600Y-111349600D01*
X166197600Y-116123600D02*
X181317600Y-116123600D01*
X175411600Y-111235600D02*
X175016600Y-111631600D01*
X181317600Y-108563600D02*
X181317600Y-117683600D01*
X167209600Y-113904600D02*
X167103600Y-114011600D01*
X170411600Y-111235600D02*
X170304600Y-111342600D01*
X166197600Y-117223600D02*
X181317600Y-117223600D01*
X177499600Y-113615600D02*
X177104600Y-114011600D01*
X175145600Y-110969600D02*
X174765600Y-111349600D01*
X166197600Y-108563600D02*
X181317600Y-108563600D01*
X180411600Y-111235600D02*
X180016600Y-111631600D01*
X177750600Y-113897600D02*
X177370600Y-114277600D01*
X170145600Y-110969600D02*
X170038600Y-111076600D01*
X170937600Y-112623600D02*
G75*
G03*
X170937600Y-112623600I-2180000J0D01*
G01*
X175937600Y-112623600D02*
G75*
G03*
X175937600Y-112623600I-2180000J0D01*
G01*
X180937600Y-112623600D02*
G75*
G03*
X180937600Y-112623600I-2180000J0D01*
G01*
%TO.C,C13*%
X152221000Y-100985822D02*
X152221000Y-101502978D01*
X150801000Y-100985822D02*
X150801000Y-101502978D01*
%TO.C,D3*%
X175760800Y-77321200D02*
X175760800Y-80006200D01*
X177680800Y-80006200D02*
X177680800Y-77321200D01*
X175760800Y-80006200D02*
X177680800Y-80006200D01*
%TO.C,J8*%
X150330000Y-90630000D02*
X155530000Y-90630000D01*
X152930000Y-85490000D02*
X152930000Y-82890000D01*
X150330000Y-84220000D02*
X150330000Y-82890000D01*
X152930000Y-82890000D02*
X155530000Y-82890000D01*
X150330000Y-82890000D02*
X151660000Y-82890000D01*
X155530000Y-82890000D02*
X155530000Y-90630000D01*
X150330000Y-85490000D02*
X150330000Y-90630000D01*
X150330000Y-85490000D02*
X152930000Y-85490000D01*
%TO.C,RV1*%
X123390000Y-99741422D02*
X123390000Y-100258578D01*
X124810000Y-99741422D02*
X124810000Y-100258578D01*
%TO.C,R26*%
X150265200Y-100985822D02*
X150265200Y-101502978D01*
X148845200Y-100985822D02*
X148845200Y-101502978D01*
%TO.C,C2*%
X144741878Y-72004600D02*
X144224722Y-72004600D01*
X144741878Y-70584600D02*
X144224722Y-70584600D01*
%TO.C,R16*%
X156090000Y-97541422D02*
X156090000Y-98058578D01*
X157510000Y-97541422D02*
X157510000Y-98058578D01*
%TO.C,D5*%
X195378400Y-99427400D02*
X196848400Y-99427400D01*
X196848400Y-99427400D02*
X196848400Y-97142400D01*
X195378400Y-97142400D02*
X195378400Y-99427400D01*
%TO.C,R23*%
X155548400Y-100985822D02*
X155548400Y-101502978D01*
X154128400Y-100985822D02*
X154128400Y-101502978D01*
%TO.C,R21*%
X190501200Y-100985822D02*
X190501200Y-101502978D01*
X191921200Y-100985822D02*
X191921200Y-101502978D01*
%TO.C,R27*%
X177267800Y-100985822D02*
X177267800Y-101502978D01*
X178687800Y-100985822D02*
X178687800Y-101502978D01*
%TO.C,R9*%
X168581000Y-97556822D02*
X168581000Y-98073978D01*
X170001000Y-97556822D02*
X170001000Y-98073978D01*
%TO.C,R6*%
X144173922Y-81097800D02*
X144691078Y-81097800D01*
X144173922Y-79677800D02*
X144691078Y-79677800D01*
%TO.C,R14*%
X198957000Y-97531422D02*
X198957000Y-98048578D01*
X197537000Y-97531422D02*
X197537000Y-98048578D01*
%TO.C,J3*%
X184434800Y-117632800D02*
X199554800Y-117632800D01*
X198382800Y-110918800D02*
X198002800Y-111298800D01*
X185712800Y-114119800D02*
X185606800Y-114226800D01*
X184434800Y-116072800D02*
X199554800Y-116072800D01*
X195987800Y-113846800D02*
X195607800Y-114226800D01*
X193648800Y-111184800D02*
X193253800Y-111580800D01*
X184194800Y-117872800D02*
X184594800Y-117872800D01*
X184434800Y-108512800D02*
X184434800Y-117632800D01*
X188648800Y-111184800D02*
X188541800Y-111291800D01*
X193382800Y-110918800D02*
X193002800Y-111298800D01*
X190736800Y-113564800D02*
X190341800Y-113960800D01*
X184434800Y-108512800D02*
X199554800Y-108512800D01*
X188382800Y-110918800D02*
X188275800Y-111025800D01*
X190987800Y-113846800D02*
X190607800Y-114226800D01*
X199554800Y-108512800D02*
X199554800Y-117632800D01*
X184434800Y-117172800D02*
X199554800Y-117172800D01*
X198648800Y-111184800D02*
X198253800Y-111580800D01*
X184194800Y-117232800D02*
X184194800Y-117872800D01*
X195736800Y-113564800D02*
X195341800Y-113960800D01*
X185446800Y-113853800D02*
X185340800Y-113960800D01*
X199174800Y-112572800D02*
G75*
G03*
X199174800Y-112572800I-2180000J0D01*
G01*
X189174800Y-112572800D02*
G75*
G03*
X189174800Y-112572800I-2180000J0D01*
G01*
X194174800Y-112572800D02*
G75*
G03*
X194174800Y-112572800I-2180000J0D01*
G01*
%TO.C,R13*%
X192482400Y-97556822D02*
X192482400Y-98073978D01*
X193902400Y-97556822D02*
X193902400Y-98073978D01*
%TO.C,D7*%
X190527000Y-97142400D02*
X190527000Y-99427400D01*
X191997000Y-99427400D02*
X191997000Y-97142400D01*
X190527000Y-99427400D02*
X191997000Y-99427400D01*
%TO.C,R15*%
X150851800Y-97506022D02*
X150851800Y-98023178D01*
X152271800Y-97506022D02*
X152271800Y-98023178D01*
%TO.C,R5*%
X181290000Y-78558578D02*
X181290000Y-78041422D01*
X182710000Y-78558578D02*
X182710000Y-78041422D01*
%TO.C,R11*%
X180719800Y-97556822D02*
X180719800Y-98073978D01*
X179299800Y-97556822D02*
X179299800Y-98073978D01*
%TO.C,C5*%
X160990000Y-78103922D02*
X160990000Y-78621078D01*
X162410000Y-78103922D02*
X162410000Y-78621078D01*
%TO.C,R20*%
X160679200Y-101087422D02*
X160679200Y-101604578D01*
X159259200Y-101087422D02*
X159259200Y-101604578D01*
%TO.C,R29*%
X166625200Y-100985822D02*
X166625200Y-101502978D01*
X168045200Y-100985822D02*
X168045200Y-101502978D01*
%TO.C,D9*%
X185066000Y-99427400D02*
X186536000Y-99427400D01*
X185066000Y-97142400D02*
X185066000Y-99427400D01*
X186536000Y-99427400D02*
X186536000Y-97142400D01*
%TO.C,J2*%
X194039800Y-88000000D02*
X191439800Y-88000000D01*
X188839800Y-90600000D02*
X188839800Y-82860000D01*
X194039800Y-89270000D02*
X194039800Y-90600000D01*
X194039800Y-82860000D02*
X188839800Y-82860000D01*
X194039800Y-88000000D02*
X194039800Y-82860000D01*
X191439800Y-88000000D02*
X191439800Y-90600000D01*
X191439800Y-90600000D02*
X188839800Y-90600000D01*
X194039800Y-90600000D02*
X192709800Y-90600000D01*
%TO.C,D6*%
X159282600Y-97271700D02*
X159282600Y-99556700D01*
X160752600Y-99556700D02*
X160752600Y-97271700D01*
X159282600Y-99556700D02*
X160752600Y-99556700D01*
%TO.C,R8*%
X144691078Y-75258200D02*
X144173922Y-75258200D01*
X144691078Y-76678200D02*
X144173922Y-76678200D01*
%TO.C,R7*%
X144173922Y-77493400D02*
X144691078Y-77493400D01*
X144173922Y-78913400D02*
X144691078Y-78913400D01*
%TO.C,D1*%
X136500000Y-78080000D02*
X139450000Y-78080000D01*
X138900000Y-74980000D02*
X136500000Y-74980000D01*
%TO.C,Y1*%
X161700000Y-86800000D02*
X163700000Y-86800000D01*
X164100000Y-90400000D02*
X164100000Y-90250000D01*
X164100000Y-86800000D02*
X164100000Y-86950000D01*
X164100000Y-89350000D02*
X164100000Y-89400000D01*
X161700000Y-90600000D02*
X163700000Y-90600000D01*
X163700000Y-90400000D02*
X164100000Y-90400000D01*
X164100000Y-89350000D02*
X164500000Y-89350000D01*
X163700000Y-90400000D02*
X161700000Y-90400000D01*
X161700000Y-90400000D02*
X161700000Y-90250000D01*
X163700000Y-90600000D02*
X164100000Y-90600000D01*
X161700000Y-86800000D02*
X161700000Y-86950000D01*
X163700000Y-86800000D02*
X164100000Y-86800000D01*
%TO.C,R4*%
X171235600Y-78579778D02*
X171235600Y-78062622D01*
X172655600Y-78579778D02*
X172655600Y-78062622D01*
%TO.C,D10*%
X148718600Y-97200000D02*
X148718600Y-99485000D01*
X148718600Y-99485000D02*
X150188600Y-99485000D01*
X150188600Y-99485000D02*
X150188600Y-97200000D01*
%TO.C,C4*%
X144659878Y-74286200D02*
X144142722Y-74286200D01*
X144659878Y-72866200D02*
X144142722Y-72866200D01*
%TO.C,R3*%
X173267600Y-78579778D02*
X173267600Y-78062622D01*
X174687600Y-78579778D02*
X174687600Y-78062622D01*
%TO.C,D12*%
X178738200Y-99452800D02*
X178738200Y-97167800D01*
X177268200Y-99452800D02*
X178738200Y-99452800D01*
X177268200Y-97167800D02*
X177268200Y-99452800D01*
%TO.C,C14*%
X179299800Y-100985822D02*
X179299800Y-101502978D01*
X180719800Y-100985822D02*
X180719800Y-101502978D01*
%TO.C,J4*%
X149437200Y-113955400D02*
X149331200Y-114062400D01*
X162373200Y-111020400D02*
X161993200Y-111400400D01*
X152639200Y-111286400D02*
X152532200Y-111393400D01*
X148425200Y-117274400D02*
X163545200Y-117274400D01*
X148185200Y-117974400D02*
X148585200Y-117974400D01*
X148185200Y-117334400D02*
X148185200Y-117974400D01*
X148425200Y-108614400D02*
X163545200Y-108614400D01*
X148425200Y-108614400D02*
X148425200Y-117734400D01*
X154978200Y-113948400D02*
X154598200Y-114328400D01*
X159978200Y-113948400D02*
X159598200Y-114328400D01*
X157639200Y-111286400D02*
X157244200Y-111682400D01*
X148425200Y-116174400D02*
X163545200Y-116174400D01*
X162639200Y-111286400D02*
X162244200Y-111682400D01*
X148425200Y-117734400D02*
X163545200Y-117734400D01*
X149703200Y-114221400D02*
X149597200Y-114328400D01*
X152373200Y-111020400D02*
X152266200Y-111127400D01*
X163545200Y-108614400D02*
X163545200Y-117734400D01*
X157373200Y-111020400D02*
X156993200Y-111400400D01*
X159727200Y-113666400D02*
X159332200Y-114062400D01*
X154727200Y-113666400D02*
X154332200Y-114062400D01*
X158165200Y-112674400D02*
G75*
G03*
X158165200Y-112674400I-2180000J0D01*
G01*
X163165200Y-112674400D02*
G75*
G03*
X163165200Y-112674400I-2180000J0D01*
G01*
X153165200Y-112674400D02*
G75*
G03*
X153165200Y-112674400I-2180000J0D01*
G01*
%TO.C,C3*%
X164403800Y-78621078D02*
X164403800Y-78103922D01*
X162983800Y-78621078D02*
X162983800Y-78103922D01*
%TO.C,R2*%
X165393600Y-78630578D02*
X165393600Y-78113422D01*
X166813600Y-78630578D02*
X166813600Y-78113422D01*
%TO.C,R17*%
X161238000Y-97584622D02*
X161238000Y-98101778D01*
X162658000Y-97584622D02*
X162658000Y-98101778D01*
%TO.C,C15*%
X175538200Y-100985822D02*
X175538200Y-101502978D01*
X174118200Y-100985822D02*
X174118200Y-101502978D01*
%TO.C,J1*%
X124510800Y-82181200D02*
X124010800Y-82681200D01*
X118710800Y-68881200D02*
X132810800Y-68881200D01*
X125010800Y-82681200D02*
X124510800Y-82181200D01*
X132810800Y-81981200D02*
X118710800Y-81981200D01*
X118710800Y-73681200D02*
X118710800Y-68881200D01*
X124010800Y-82681200D02*
X125010800Y-82681200D01*
X118710800Y-81981200D02*
X118710800Y-77181200D01*
X132810800Y-77181200D02*
X132810800Y-81981200D01*
X132810800Y-68881200D02*
X132810800Y-73681200D01*
%TO.C,C11*%
X188492200Y-100985822D02*
X188492200Y-101502978D01*
X187072200Y-100985822D02*
X187072200Y-101502978D01*
%TO.C,C9*%
X192482400Y-100985822D02*
X192482400Y-101502978D01*
X193902400Y-100985822D02*
X193902400Y-101502978D01*
%TO.C,J6*%
X116351400Y-116978800D02*
X116351400Y-117618800D01*
X123144400Y-113592800D02*
X122764400Y-113972800D01*
X122893400Y-113310800D02*
X122498400Y-113706800D01*
X116591400Y-117378800D02*
X126711400Y-117378800D01*
X116591400Y-115818800D02*
X126711400Y-115818800D01*
X125805400Y-110930800D02*
X125410400Y-111326800D01*
X126711400Y-108258800D02*
X126711400Y-117378800D01*
X117869400Y-113865800D02*
X117763400Y-113972800D01*
X116591400Y-108258800D02*
X126711400Y-108258800D01*
X116351400Y-117618800D02*
X116751400Y-117618800D01*
X120539400Y-110664800D02*
X120432400Y-110771800D01*
X125539400Y-110664800D02*
X125159400Y-111044800D01*
X116591400Y-108258800D02*
X116591400Y-117378800D01*
X120805400Y-110930800D02*
X120698400Y-111037800D01*
X116591400Y-116918800D02*
X126711400Y-116918800D01*
X117603400Y-113599800D02*
X117497400Y-113706800D01*
X126331400Y-112318800D02*
G75*
G03*
X126331400Y-112318800I-2180000J0D01*
G01*
X121331400Y-112318800D02*
G75*
G03*
X121331400Y-112318800I-2180000J0D01*
G01*
%TO.C,F1*%
X141690000Y-100441422D02*
X141690000Y-100958578D01*
X143110000Y-100441422D02*
X143110000Y-100958578D01*
%TO.C,C7*%
X198957000Y-100960422D02*
X198957000Y-101477578D01*
X197537000Y-100960422D02*
X197537000Y-101477578D01*
%TO.C,R12*%
X187072200Y-97556822D02*
X187072200Y-98073978D01*
X188492200Y-97556822D02*
X188492200Y-98073978D01*
%TO.C,C16*%
X168581000Y-100985822D02*
X168581000Y-101502978D01*
X170001000Y-100985822D02*
X170001000Y-101502978D01*
%TO.C,D14*%
X168095600Y-99452800D02*
X168095600Y-97167800D01*
X166625600Y-99452800D02*
X168095600Y-99452800D01*
X166625600Y-97167800D02*
X166625600Y-99452800D01*
%TO.C,C10*%
X156109600Y-100985822D02*
X156109600Y-101502978D01*
X157529600Y-100985822D02*
X157529600Y-101502978D01*
%TO.C,D15*%
X117771250Y-101880000D02*
X117771250Y-96900000D01*
X120491250Y-101880000D02*
X120491250Y-96900000D01*
X117771250Y-101880000D02*
X120491250Y-101880000D01*
%TO.C,R10*%
X174118200Y-97556822D02*
X174118200Y-98073978D01*
X175538200Y-97556822D02*
X175538200Y-98073978D01*
%TO.C,D4*%
X167785200Y-80057000D02*
X169705200Y-80057000D01*
X169705200Y-80057000D02*
X169705200Y-77372000D01*
X167785200Y-77372000D02*
X167785200Y-80057000D01*
%TO.C,U2*%
X149477200Y-72159600D02*
X149952200Y-72159600D01*
X149477200Y-72634600D02*
X149477200Y-72159600D01*
X149477200Y-75904600D02*
X149477200Y-76379600D01*
X153697200Y-76379600D02*
X153222200Y-76379600D01*
X149477200Y-76379600D02*
X149952200Y-76379600D01*
X153697200Y-75904600D02*
X153697200Y-76379600D01*
X153697200Y-72634600D02*
X153697200Y-72159600D01*
%TO.C,R18*%
X195581200Y-100935022D02*
X195581200Y-101452178D01*
X197001200Y-100935022D02*
X197001200Y-101452178D01*
%TO.C,R1*%
X178703200Y-78630578D02*
X178703200Y-78113422D01*
X180123200Y-78630578D02*
X180123200Y-78113422D01*
D10*
%TO.C,U1*%
X169946200Y-89769400D02*
X170271200Y-89769400D01*
X169946200Y-89769400D02*
X169946200Y-89444400D01*
X177196200Y-82519400D02*
X177196200Y-82844400D01*
X177196200Y-82519400D02*
X176871200Y-82519400D01*
X177196200Y-89769400D02*
X176871200Y-89769400D01*
X169946200Y-82519400D02*
X169946200Y-82744400D01*
X169946200Y-82744400D02*
X168521200Y-82744400D01*
X177196200Y-89769400D02*
X177196200Y-89444400D01*
X169946200Y-82519400D02*
X170271200Y-82519400D01*
D13*
%TO.C,D11*%
X140535000Y-102185000D02*
X140535000Y-99900000D01*
X139065000Y-102185000D02*
X140535000Y-102185000D01*
X139065000Y-99900000D02*
X139065000Y-102185000D01*
%TO.C,D8*%
X154154200Y-99503600D02*
X155624200Y-99503600D01*
X155624200Y-99503600D02*
X155624200Y-97218600D01*
X154154200Y-97218600D02*
X154154200Y-99503600D01*
%TD*%
M02*
