%TF.GenerationSoftware,KiCad,Pcbnew,5.99.0-unknown-a0c54951d~102~ubuntu18.04.1*%
%TF.CreationDate,2020-08-17T14:08:56+02:00*%
%TF.ProjectId,AMPEL,414d5045-4c2e-46b6-9963-61645f706362,rev?*%
%TF.SameCoordinates,Original*%
%TF.FileFunction,Copper,L1,Top*%
%TF.FilePolarity,Positive*%
%FSLAX46Y46*%
G04 Gerber Fmt 4.6, Leading zero omitted, Abs format (unit mm)*
G04 Created by KiCad (PCBNEW 5.99.0-unknown-a0c54951d~102~ubuntu18.04.1) date 2020-08-17 14:08:56*
%MOMM*%
%LPD*%
G01*
G04 APERTURE LIST*
%TA.AperFunction,ComponentPad*%
%ADD10R,2.600000X2.600000*%
%TD*%
%TA.AperFunction,ComponentPad*%
%ADD11C,2.600000*%
%TD*%
%TA.AperFunction,ComponentPad*%
%ADD12R,1.700000X1.700000*%
%TD*%
%TA.AperFunction,ComponentPad*%
%ADD13O,1.700000X1.700000*%
%TD*%
%TA.AperFunction,ComponentPad*%
%ADD14C,0.800000*%
%TD*%
%TA.AperFunction,ComponentPad*%
%ADD15C,6.400000*%
%TD*%
%TA.AperFunction,SMDPad,CuDef*%
%ADD16R,1.400000X1.200000*%
%TD*%
%TA.AperFunction,SMDPad,CuDef*%
%ADD17R,1.400000X1.000000*%
%TD*%
%TA.AperFunction,SMDPad,CuDef*%
%ADD18R,3.200000X0.400000*%
%TD*%
%TA.AperFunction,ComponentPad*%
%ADD19R,1.400000X1.400000*%
%TD*%
%TA.AperFunction,ComponentPad*%
%ADD20C,1.400000*%
%TD*%
%TA.AperFunction,ComponentPad*%
%ADD21C,3.000000*%
%TD*%
%TA.AperFunction,SMDPad,CuDef*%
%ADD22R,2.100000X1.400000*%
%TD*%
%TA.AperFunction,SMDPad,CuDef*%
%ADD23R,2.600000X2.600000*%
%TD*%
%TA.AperFunction,SMDPad,CuDef*%
%ADD24R,1.600000X0.550000*%
%TD*%
%TA.AperFunction,SMDPad,CuDef*%
%ADD25R,0.550000X1.600000*%
%TD*%
%TA.AperFunction,ViaPad*%
%ADD26C,0.800000*%
%TD*%
%TA.AperFunction,Conductor*%
%ADD27C,0.250000*%
%TD*%
%TA.AperFunction,Conductor*%
%ADD28C,0.200000*%
%TD*%
%TA.AperFunction,Conductor*%
%ADD29C,1.000000*%
%TD*%
G04 APERTURE END LIST*
%TO.P,C1,1*%
%TO.N,GND*%
%TA.AperFunction,SMDPad,CuDef*%
G36*
G01*
X181534750Y-85239800D02*
X182447250Y-85239800D01*
G75*
G02*
X182691000Y-85483550I0J-243750D01*
G01*
X182691000Y-85971050D01*
G75*
G02*
X182447250Y-86214800I-243750J0D01*
G01*
X181534750Y-86214800D01*
G75*
G02*
X181291000Y-85971050I0J243750D01*
G01*
X181291000Y-85483550D01*
G75*
G02*
X181534750Y-85239800I243750J0D01*
G01*
G37*
%TD.AperFunction*%
%TO.P,C1,2*%
%TO.N,Net-(C1-Pad2)*%
%TA.AperFunction,SMDPad,CuDef*%
G36*
G01*
X181534750Y-87114800D02*
X182447250Y-87114800D01*
G75*
G02*
X182691000Y-87358550I0J-243750D01*
G01*
X182691000Y-87846050D01*
G75*
G02*
X182447250Y-88089800I-243750J0D01*
G01*
X181534750Y-88089800D01*
G75*
G02*
X181291000Y-87846050I0J243750D01*
G01*
X181291000Y-87358550D01*
G75*
G02*
X181534750Y-87114800I243750J0D01*
G01*
G37*
%TD.AperFunction*%
%TD*%
%TO.P,R24,1*%
%TO.N,FIN_RED*%
%TA.AperFunction,SMDPad,CuDef*%
G36*
G01*
X185319350Y-99819400D02*
X186231850Y-99819400D01*
G75*
G02*
X186475600Y-100063150I0J-243750D01*
G01*
X186475600Y-100550650D01*
G75*
G02*
X186231850Y-100794400I-243750J0D01*
G01*
X185319350Y-100794400D01*
G75*
G02*
X185075600Y-100550650I0J243750D01*
G01*
X185075600Y-100063150D01*
G75*
G02*
X185319350Y-99819400I243750J0D01*
G01*
G37*
%TD.AperFunction*%
%TO.P,R24,2*%
%TO.N,GND*%
%TA.AperFunction,SMDPad,CuDef*%
G36*
G01*
X185319350Y-101694400D02*
X186231850Y-101694400D01*
G75*
G02*
X186475600Y-101938150I0J-243750D01*
G01*
X186475600Y-102425650D01*
G75*
G02*
X186231850Y-102669400I-243750J0D01*
G01*
X185319350Y-102669400D01*
G75*
G02*
X185075600Y-102425650I0J243750D01*
G01*
X185075600Y-101938150D01*
G75*
G02*
X185319350Y-101694400I243750J0D01*
G01*
G37*
%TD.AperFunction*%
%TD*%
%TO.P,C8,1*%
%TO.N,BIO_GREEN*%
%TA.AperFunction,SMDPad,CuDef*%
G36*
G01*
X161494150Y-99921000D02*
X162406650Y-99921000D01*
G75*
G02*
X162650400Y-100164750I0J-243750D01*
G01*
X162650400Y-100652250D01*
G75*
G02*
X162406650Y-100896000I-243750J0D01*
G01*
X161494150Y-100896000D01*
G75*
G02*
X161250400Y-100652250I0J243750D01*
G01*
X161250400Y-100164750D01*
G75*
G02*
X161494150Y-99921000I243750J0D01*
G01*
G37*
%TD.AperFunction*%
%TO.P,C8,2*%
%TO.N,GND*%
%TA.AperFunction,SMDPad,CuDef*%
G36*
G01*
X161494150Y-101796000D02*
X162406650Y-101796000D01*
G75*
G02*
X162650400Y-102039750I0J-243750D01*
G01*
X162650400Y-102527250D01*
G75*
G02*
X162406650Y-102771000I-243750J0D01*
G01*
X161494150Y-102771000D01*
G75*
G02*
X161250400Y-102527250I0J243750D01*
G01*
X161250400Y-102039750D01*
G75*
G02*
X161494150Y-101796000I243750J0D01*
G01*
G37*
%TD.AperFunction*%
%TD*%
%TO.P,R28,1*%
%TO.N,FACH_YELLOW*%
%TA.AperFunction,SMDPad,CuDef*%
G36*
G01*
X172390750Y-99819400D02*
X173303250Y-99819400D01*
G75*
G02*
X173547000Y-100063150I0J-243750D01*
G01*
X173547000Y-100550650D01*
G75*
G02*
X173303250Y-100794400I-243750J0D01*
G01*
X172390750Y-100794400D01*
G75*
G02*
X172147000Y-100550650I0J243750D01*
G01*
X172147000Y-100063150D01*
G75*
G02*
X172390750Y-99819400I243750J0D01*
G01*
G37*
%TD.AperFunction*%
%TO.P,R28,2*%
%TO.N,GND*%
%TA.AperFunction,SMDPad,CuDef*%
G36*
G01*
X172390750Y-101694400D02*
X173303250Y-101694400D01*
G75*
G02*
X173547000Y-101938150I0J-243750D01*
G01*
X173547000Y-102425650D01*
G75*
G02*
X173303250Y-102669400I-243750J0D01*
G01*
X172390750Y-102669400D01*
G75*
G02*
X172147000Y-102425650I0J243750D01*
G01*
X172147000Y-101938150D01*
G75*
G02*
X172390750Y-101694400I243750J0D01*
G01*
G37*
%TD.AperFunction*%
%TD*%
%TO.P,R25,1*%
%TO.N,DATA*%
%TA.AperFunction,SMDPad,CuDef*%
G36*
G01*
X137059350Y-99209900D02*
X137971850Y-99209900D01*
G75*
G02*
X138215600Y-99453650I0J-243750D01*
G01*
X138215600Y-99941150D01*
G75*
G02*
X137971850Y-100184900I-243750J0D01*
G01*
X137059350Y-100184900D01*
G75*
G02*
X136815600Y-99941150I0J243750D01*
G01*
X136815600Y-99453650D01*
G75*
G02*
X137059350Y-99209900I243750J0D01*
G01*
G37*
%TD.AperFunction*%
%TO.P,R25,2*%
%TO.N,Net-(J7-Pad2)*%
%TA.AperFunction,SMDPad,CuDef*%
G36*
G01*
X137059350Y-101084900D02*
X137971850Y-101084900D01*
G75*
G02*
X138215600Y-101328650I0J-243750D01*
G01*
X138215600Y-101816150D01*
G75*
G02*
X137971850Y-102059900I-243750J0D01*
G01*
X137059350Y-102059900D01*
G75*
G02*
X136815600Y-101816150I0J243750D01*
G01*
X136815600Y-101328650D01*
G75*
G02*
X137059350Y-101084900I243750J0D01*
G01*
G37*
%TD.AperFunction*%
%TD*%
%TO.P,D13,1,A1*%
%TO.N,FACH_YELLOW*%
%TA.AperFunction,SMDPad,CuDef*%
G36*
G01*
X173128650Y-99192800D02*
X172616150Y-99192800D01*
G75*
G02*
X172397400Y-98974050I0J218750D01*
G01*
X172397400Y-98536550D01*
G75*
G02*
X172616150Y-98317800I218750J0D01*
G01*
X173128650Y-98317800D01*
G75*
G02*
X173347400Y-98536550I0J-218750D01*
G01*
X173347400Y-98974050D01*
G75*
G02*
X173128650Y-99192800I-218750J0D01*
G01*
G37*
%TD.AperFunction*%
%TO.P,D13,2,A2*%
%TO.N,GND*%
%TA.AperFunction,SMDPad,CuDef*%
G36*
G01*
X173128650Y-97617800D02*
X172616150Y-97617800D01*
G75*
G02*
X172397400Y-97399050I0J218750D01*
G01*
X172397400Y-96961550D01*
G75*
G02*
X172616150Y-96742800I218750J0D01*
G01*
X173128650Y-96742800D01*
G75*
G02*
X173347400Y-96961550I0J-218750D01*
G01*
X173347400Y-97399050D01*
G75*
G02*
X173128650Y-97617800I-218750J0D01*
G01*
G37*
%TD.AperFunction*%
%TD*%
D10*
%TO.P,J7,1,Pin_1*%
%TO.N,+5V*%
X132638800Y-112623600D03*
D11*
%TO.P,J7,2,Pin_2*%
%TO.N,Net-(J7-Pad2)*%
X137638800Y-112623600D03*
%TO.P,J7,3,Pin_3*%
%TO.N,Net-(F1-Pad2)*%
X142638800Y-112623600D03*
%TD*%
D10*
%TO.P,J5,1,Pin_1*%
%TO.N,FACH_RED*%
X168757600Y-112623600D03*
D11*
%TO.P,J5,2,Pin_2*%
%TO.N,FACH_YELLOW*%
X173757600Y-112623600D03*
%TO.P,J5,3,Pin_3*%
%TO.N,FACH_GREEN*%
X178757600Y-112623600D03*
%TD*%
%TO.P,C13,1*%
%TO.N,BIO_RED*%
%TA.AperFunction,SMDPad,CuDef*%
G36*
G01*
X151054750Y-99819400D02*
X151967250Y-99819400D01*
G75*
G02*
X152211000Y-100063150I0J-243750D01*
G01*
X152211000Y-100550650D01*
G75*
G02*
X151967250Y-100794400I-243750J0D01*
G01*
X151054750Y-100794400D01*
G75*
G02*
X150811000Y-100550650I0J243750D01*
G01*
X150811000Y-100063150D01*
G75*
G02*
X151054750Y-99819400I243750J0D01*
G01*
G37*
%TD.AperFunction*%
%TO.P,C13,2*%
%TO.N,GND*%
%TA.AperFunction,SMDPad,CuDef*%
G36*
G01*
X151054750Y-101694400D02*
X151967250Y-101694400D01*
G75*
G02*
X152211000Y-101938150I0J-243750D01*
G01*
X152211000Y-102425650D01*
G75*
G02*
X151967250Y-102669400I-243750J0D01*
G01*
X151054750Y-102669400D01*
G75*
G02*
X150811000Y-102425650I0J243750D01*
G01*
X150811000Y-101938150D01*
G75*
G02*
X151054750Y-101694400I243750J0D01*
G01*
G37*
%TD.AperFunction*%
%TD*%
%TO.P,D3,1,K*%
%TO.N,Net-(D3-Pad1)*%
%TA.AperFunction,SMDPad,CuDef*%
G36*
G01*
X177177050Y-79746200D02*
X176264550Y-79746200D01*
G75*
G02*
X176020800Y-79502450I0J243750D01*
G01*
X176020800Y-79014950D01*
G75*
G02*
X176264550Y-78771200I243750J0D01*
G01*
X177177050Y-78771200D01*
G75*
G02*
X177420800Y-79014950I0J-243750D01*
G01*
X177420800Y-79502450D01*
G75*
G02*
X177177050Y-79746200I-243750J0D01*
G01*
G37*
%TD.AperFunction*%
%TO.P,D3,2,A*%
%TO.N,Net-(D3-Pad2)*%
%TA.AperFunction,SMDPad,CuDef*%
G36*
G01*
X177177050Y-77871200D02*
X176264550Y-77871200D01*
G75*
G02*
X176020800Y-77627450I0J243750D01*
G01*
X176020800Y-77139950D01*
G75*
G02*
X176264550Y-76896200I243750J0D01*
G01*
X177177050Y-76896200D01*
G75*
G02*
X177420800Y-77139950I0J-243750D01*
G01*
X177420800Y-77627450D01*
G75*
G02*
X177177050Y-77871200I-243750J0D01*
G01*
G37*
%TD.AperFunction*%
%TD*%
D12*
%TO.P,J8,1,Pin_1*%
%TO.N,PC0*%
X151660000Y-84220000D03*
D13*
%TO.P,J8,2,Pin_2*%
%TO.N,PC1*%
X154200000Y-84220000D03*
%TO.P,J8,3,Pin_3*%
%TO.N,PD2*%
X151660000Y-86760000D03*
%TO.P,J8,4,Pin_4*%
%TO.N,PD4*%
X154200000Y-86760000D03*
%TO.P,J8,5,Pin_5*%
%TO.N,+5V*%
X151660000Y-89300000D03*
%TO.P,J8,6,Pin_6*%
%TO.N,GND*%
X154200000Y-89300000D03*
%TD*%
%TO.P,RV1,1*%
%TO.N,+5V*%
%TA.AperFunction,SMDPad,CuDef*%
G36*
G01*
X123643750Y-98575000D02*
X124556250Y-98575000D01*
G75*
G02*
X124800000Y-98818750I0J-243750D01*
G01*
X124800000Y-99306250D01*
G75*
G02*
X124556250Y-99550000I-243750J0D01*
G01*
X123643750Y-99550000D01*
G75*
G02*
X123400000Y-99306250I0J243750D01*
G01*
X123400000Y-98818750D01*
G75*
G02*
X123643750Y-98575000I243750J0D01*
G01*
G37*
%TD.AperFunction*%
%TO.P,RV1,2*%
%TO.N,GND*%
%TA.AperFunction,SMDPad,CuDef*%
G36*
G01*
X123643750Y-100450000D02*
X124556250Y-100450000D01*
G75*
G02*
X124800000Y-100693750I0J-243750D01*
G01*
X124800000Y-101181250D01*
G75*
G02*
X124556250Y-101425000I-243750J0D01*
G01*
X123643750Y-101425000D01*
G75*
G02*
X123400000Y-101181250I0J243750D01*
G01*
X123400000Y-100693750D01*
G75*
G02*
X123643750Y-100450000I243750J0D01*
G01*
G37*
%TD.AperFunction*%
%TD*%
%TO.P,R26,1*%
%TO.N,BIO_RED*%
%TA.AperFunction,SMDPad,CuDef*%
G36*
G01*
X149098950Y-99819400D02*
X150011450Y-99819400D01*
G75*
G02*
X150255200Y-100063150I0J-243750D01*
G01*
X150255200Y-100550650D01*
G75*
G02*
X150011450Y-100794400I-243750J0D01*
G01*
X149098950Y-100794400D01*
G75*
G02*
X148855200Y-100550650I0J243750D01*
G01*
X148855200Y-100063150D01*
G75*
G02*
X149098950Y-99819400I243750J0D01*
G01*
G37*
%TD.AperFunction*%
%TO.P,R26,2*%
%TO.N,GND*%
%TA.AperFunction,SMDPad,CuDef*%
G36*
G01*
X149098950Y-101694400D02*
X150011450Y-101694400D01*
G75*
G02*
X150255200Y-101938150I0J-243750D01*
G01*
X150255200Y-102425650D01*
G75*
G02*
X150011450Y-102669400I-243750J0D01*
G01*
X149098950Y-102669400D01*
G75*
G02*
X148855200Y-102425650I0J243750D01*
G01*
X148855200Y-101938150D01*
G75*
G02*
X149098950Y-101694400I243750J0D01*
G01*
G37*
%TD.AperFunction*%
%TD*%
%TO.P,C2,1*%
%TO.N,CP2102_VDD*%
%TA.AperFunction,SMDPad,CuDef*%
G36*
G01*
X145908300Y-70838350D02*
X145908300Y-71750850D01*
G75*
G02*
X145664550Y-71994600I-243750J0D01*
G01*
X145177050Y-71994600D01*
G75*
G02*
X144933300Y-71750850I0J243750D01*
G01*
X144933300Y-70838350D01*
G75*
G02*
X145177050Y-70594600I243750J0D01*
G01*
X145664550Y-70594600D01*
G75*
G02*
X145908300Y-70838350I0J-243750D01*
G01*
G37*
%TD.AperFunction*%
%TO.P,C2,2*%
%TO.N,GND*%
%TA.AperFunction,SMDPad,CuDef*%
G36*
G01*
X144033300Y-70838350D02*
X144033300Y-71750850D01*
G75*
G02*
X143789550Y-71994600I-243750J0D01*
G01*
X143302050Y-71994600D01*
G75*
G02*
X143058300Y-71750850I0J243750D01*
G01*
X143058300Y-70838350D01*
G75*
G02*
X143302050Y-70594600I243750J0D01*
G01*
X143789550Y-70594600D01*
G75*
G02*
X144033300Y-70838350I0J-243750D01*
G01*
G37*
%TD.AperFunction*%
%TD*%
%TO.P,R16,1*%
%TO.N,Net-(R16-Pad1)*%
%TA.AperFunction,SMDPad,CuDef*%
G36*
G01*
X156343750Y-96375000D02*
X157256250Y-96375000D01*
G75*
G02*
X157500000Y-96618750I0J-243750D01*
G01*
X157500000Y-97106250D01*
G75*
G02*
X157256250Y-97350000I-243750J0D01*
G01*
X156343750Y-97350000D01*
G75*
G02*
X156100000Y-97106250I0J243750D01*
G01*
X156100000Y-96618750D01*
G75*
G02*
X156343750Y-96375000I243750J0D01*
G01*
G37*
%TD.AperFunction*%
%TO.P,R16,2*%
%TO.N,BIO_YELLOW*%
%TA.AperFunction,SMDPad,CuDef*%
G36*
G01*
X156343750Y-98250000D02*
X157256250Y-98250000D01*
G75*
G02*
X157500000Y-98493750I0J-243750D01*
G01*
X157500000Y-98981250D01*
G75*
G02*
X157256250Y-99225000I-243750J0D01*
G01*
X156343750Y-99225000D01*
G75*
G02*
X156100000Y-98981250I0J243750D01*
G01*
X156100000Y-98493750D01*
G75*
G02*
X156343750Y-98250000I243750J0D01*
G01*
G37*
%TD.AperFunction*%
%TD*%
%TO.P,D5,1,A1*%
%TO.N,FIN_GREEN*%
%TA.AperFunction,SMDPad,CuDef*%
G36*
G01*
X196369650Y-99167400D02*
X195857150Y-99167400D01*
G75*
G02*
X195638400Y-98948650I0J218750D01*
G01*
X195638400Y-98511150D01*
G75*
G02*
X195857150Y-98292400I218750J0D01*
G01*
X196369650Y-98292400D01*
G75*
G02*
X196588400Y-98511150I0J-218750D01*
G01*
X196588400Y-98948650D01*
G75*
G02*
X196369650Y-99167400I-218750J0D01*
G01*
G37*
%TD.AperFunction*%
%TO.P,D5,2,A2*%
%TO.N,GND*%
%TA.AperFunction,SMDPad,CuDef*%
G36*
G01*
X196369650Y-97592400D02*
X195857150Y-97592400D01*
G75*
G02*
X195638400Y-97373650I0J218750D01*
G01*
X195638400Y-96936150D01*
G75*
G02*
X195857150Y-96717400I218750J0D01*
G01*
X196369650Y-96717400D01*
G75*
G02*
X196588400Y-96936150I0J-218750D01*
G01*
X196588400Y-97373650D01*
G75*
G02*
X196369650Y-97592400I-218750J0D01*
G01*
G37*
%TD.AperFunction*%
%TD*%
%TO.P,R23,1*%
%TO.N,BIO_YELLOW*%
%TA.AperFunction,SMDPad,CuDef*%
G36*
G01*
X154382150Y-99819400D02*
X155294650Y-99819400D01*
G75*
G02*
X155538400Y-100063150I0J-243750D01*
G01*
X155538400Y-100550650D01*
G75*
G02*
X155294650Y-100794400I-243750J0D01*
G01*
X154382150Y-100794400D01*
G75*
G02*
X154138400Y-100550650I0J243750D01*
G01*
X154138400Y-100063150D01*
G75*
G02*
X154382150Y-99819400I243750J0D01*
G01*
G37*
%TD.AperFunction*%
%TO.P,R23,2*%
%TO.N,GND*%
%TA.AperFunction,SMDPad,CuDef*%
G36*
G01*
X154382150Y-101694400D02*
X155294650Y-101694400D01*
G75*
G02*
X155538400Y-101938150I0J-243750D01*
G01*
X155538400Y-102425650D01*
G75*
G02*
X155294650Y-102669400I-243750J0D01*
G01*
X154382150Y-102669400D01*
G75*
G02*
X154138400Y-102425650I0J243750D01*
G01*
X154138400Y-101938150D01*
G75*
G02*
X154382150Y-101694400I243750J0D01*
G01*
G37*
%TD.AperFunction*%
%TD*%
%TO.P,R21,1*%
%TO.N,FIN_YELLOW*%
%TA.AperFunction,SMDPad,CuDef*%
G36*
G01*
X190754950Y-99819400D02*
X191667450Y-99819400D01*
G75*
G02*
X191911200Y-100063150I0J-243750D01*
G01*
X191911200Y-100550650D01*
G75*
G02*
X191667450Y-100794400I-243750J0D01*
G01*
X190754950Y-100794400D01*
G75*
G02*
X190511200Y-100550650I0J243750D01*
G01*
X190511200Y-100063150D01*
G75*
G02*
X190754950Y-99819400I243750J0D01*
G01*
G37*
%TD.AperFunction*%
%TO.P,R21,2*%
%TO.N,GND*%
%TA.AperFunction,SMDPad,CuDef*%
G36*
G01*
X190754950Y-101694400D02*
X191667450Y-101694400D01*
G75*
G02*
X191911200Y-101938150I0J-243750D01*
G01*
X191911200Y-102425650D01*
G75*
G02*
X191667450Y-102669400I-243750J0D01*
G01*
X190754950Y-102669400D01*
G75*
G02*
X190511200Y-102425650I0J243750D01*
G01*
X190511200Y-101938150D01*
G75*
G02*
X190754950Y-101694400I243750J0D01*
G01*
G37*
%TD.AperFunction*%
%TD*%
%TO.P,R27,1*%
%TO.N,FACH_GREEN*%
%TA.AperFunction,SMDPad,CuDef*%
G36*
G01*
X177521550Y-99819400D02*
X178434050Y-99819400D01*
G75*
G02*
X178677800Y-100063150I0J-243750D01*
G01*
X178677800Y-100550650D01*
G75*
G02*
X178434050Y-100794400I-243750J0D01*
G01*
X177521550Y-100794400D01*
G75*
G02*
X177277800Y-100550650I0J243750D01*
G01*
X177277800Y-100063150D01*
G75*
G02*
X177521550Y-99819400I243750J0D01*
G01*
G37*
%TD.AperFunction*%
%TO.P,R27,2*%
%TO.N,GND*%
%TA.AperFunction,SMDPad,CuDef*%
G36*
G01*
X177521550Y-101694400D02*
X178434050Y-101694400D01*
G75*
G02*
X178677800Y-101938150I0J-243750D01*
G01*
X178677800Y-102425650D01*
G75*
G02*
X178434050Y-102669400I-243750J0D01*
G01*
X177521550Y-102669400D01*
G75*
G02*
X177277800Y-102425650I0J243750D01*
G01*
X177277800Y-101938150D01*
G75*
G02*
X177521550Y-101694400I243750J0D01*
G01*
G37*
%TD.AperFunction*%
%TD*%
%TO.P,R9,1*%
%TO.N,Net-(R9-Pad1)*%
%TA.AperFunction,SMDPad,CuDef*%
G36*
G01*
X168834750Y-96390400D02*
X169747250Y-96390400D01*
G75*
G02*
X169991000Y-96634150I0J-243750D01*
G01*
X169991000Y-97121650D01*
G75*
G02*
X169747250Y-97365400I-243750J0D01*
G01*
X168834750Y-97365400D01*
G75*
G02*
X168591000Y-97121650I0J243750D01*
G01*
X168591000Y-96634150D01*
G75*
G02*
X168834750Y-96390400I243750J0D01*
G01*
G37*
%TD.AperFunction*%
%TO.P,R9,2*%
%TO.N,FACH_RED*%
%TA.AperFunction,SMDPad,CuDef*%
G36*
G01*
X168834750Y-98265400D02*
X169747250Y-98265400D01*
G75*
G02*
X169991000Y-98509150I0J-243750D01*
G01*
X169991000Y-98996650D01*
G75*
G02*
X169747250Y-99240400I-243750J0D01*
G01*
X168834750Y-99240400D01*
G75*
G02*
X168591000Y-98996650I0J243750D01*
G01*
X168591000Y-98509150D01*
G75*
G02*
X168834750Y-98265400I243750J0D01*
G01*
G37*
%TD.AperFunction*%
%TD*%
%TO.P,R6,1*%
%TO.N,CP2102_VDD*%
%TA.AperFunction,SMDPad,CuDef*%
G36*
G01*
X143007500Y-80844050D02*
X143007500Y-79931550D01*
G75*
G02*
X143251250Y-79687800I243750J0D01*
G01*
X143738750Y-79687800D01*
G75*
G02*
X143982500Y-79931550I0J-243750D01*
G01*
X143982500Y-80844050D01*
G75*
G02*
X143738750Y-81087800I-243750J0D01*
G01*
X143251250Y-81087800D01*
G75*
G02*
X143007500Y-80844050I0J243750D01*
G01*
G37*
%TD.AperFunction*%
%TO.P,R6,2*%
%TO.N,Net-(R6-Pad2)*%
%TA.AperFunction,SMDPad,CuDef*%
G36*
G01*
X144882500Y-80844050D02*
X144882500Y-79931550D01*
G75*
G02*
X145126250Y-79687800I243750J0D01*
G01*
X145613750Y-79687800D01*
G75*
G02*
X145857500Y-79931550I0J-243750D01*
G01*
X145857500Y-80844050D01*
G75*
G02*
X145613750Y-81087800I-243750J0D01*
G01*
X145126250Y-81087800D01*
G75*
G02*
X144882500Y-80844050I0J243750D01*
G01*
G37*
%TD.AperFunction*%
%TD*%
%TO.P,R14,1*%
%TO.N,SCK*%
%TA.AperFunction,SMDPad,CuDef*%
G36*
G01*
X197790750Y-96365000D02*
X198703250Y-96365000D01*
G75*
G02*
X198947000Y-96608750I0J-243750D01*
G01*
X198947000Y-97096250D01*
G75*
G02*
X198703250Y-97340000I-243750J0D01*
G01*
X197790750Y-97340000D01*
G75*
G02*
X197547000Y-97096250I0J243750D01*
G01*
X197547000Y-96608750D01*
G75*
G02*
X197790750Y-96365000I243750J0D01*
G01*
G37*
%TD.AperFunction*%
%TO.P,R14,2*%
%TO.N,FIN_GREEN*%
%TA.AperFunction,SMDPad,CuDef*%
G36*
G01*
X197790750Y-98240000D02*
X198703250Y-98240000D01*
G75*
G02*
X198947000Y-98483750I0J-243750D01*
G01*
X198947000Y-98971250D01*
G75*
G02*
X198703250Y-99215000I-243750J0D01*
G01*
X197790750Y-99215000D01*
G75*
G02*
X197547000Y-98971250I0J243750D01*
G01*
X197547000Y-98483750D01*
G75*
G02*
X197790750Y-98240000I243750J0D01*
G01*
G37*
%TD.AperFunction*%
%TD*%
D10*
%TO.P,J3,1,Pin_1*%
%TO.N,FIN_RED*%
X186994800Y-112572800D03*
D11*
%TO.P,J3,2,Pin_2*%
%TO.N,FIN_YELLOW*%
X191994800Y-112572800D03*
%TO.P,J3,3,Pin_3*%
%TO.N,FIN_GREEN*%
X196994800Y-112572800D03*
%TD*%
%TO.P,R13,1*%
%TO.N,MISO*%
%TA.AperFunction,SMDPad,CuDef*%
G36*
G01*
X192736150Y-96390400D02*
X193648650Y-96390400D01*
G75*
G02*
X193892400Y-96634150I0J-243750D01*
G01*
X193892400Y-97121650D01*
G75*
G02*
X193648650Y-97365400I-243750J0D01*
G01*
X192736150Y-97365400D01*
G75*
G02*
X192492400Y-97121650I0J243750D01*
G01*
X192492400Y-96634150D01*
G75*
G02*
X192736150Y-96390400I243750J0D01*
G01*
G37*
%TD.AperFunction*%
%TO.P,R13,2*%
%TO.N,FIN_YELLOW*%
%TA.AperFunction,SMDPad,CuDef*%
G36*
G01*
X192736150Y-98265400D02*
X193648650Y-98265400D01*
G75*
G02*
X193892400Y-98509150I0J-243750D01*
G01*
X193892400Y-98996650D01*
G75*
G02*
X193648650Y-99240400I-243750J0D01*
G01*
X192736150Y-99240400D01*
G75*
G02*
X192492400Y-98996650I0J243750D01*
G01*
X192492400Y-98509150D01*
G75*
G02*
X192736150Y-98265400I243750J0D01*
G01*
G37*
%TD.AperFunction*%
%TD*%
%TO.P,D7,1,A1*%
%TO.N,FIN_YELLOW*%
%TA.AperFunction,SMDPad,CuDef*%
G36*
G01*
X191518250Y-99167400D02*
X191005750Y-99167400D01*
G75*
G02*
X190787000Y-98948650I0J218750D01*
G01*
X190787000Y-98511150D01*
G75*
G02*
X191005750Y-98292400I218750J0D01*
G01*
X191518250Y-98292400D01*
G75*
G02*
X191737000Y-98511150I0J-218750D01*
G01*
X191737000Y-98948650D01*
G75*
G02*
X191518250Y-99167400I-218750J0D01*
G01*
G37*
%TD.AperFunction*%
%TO.P,D7,2,A2*%
%TO.N,GND*%
%TA.AperFunction,SMDPad,CuDef*%
G36*
G01*
X191518250Y-97592400D02*
X191005750Y-97592400D01*
G75*
G02*
X190787000Y-97373650I0J218750D01*
G01*
X190787000Y-96936150D01*
G75*
G02*
X191005750Y-96717400I218750J0D01*
G01*
X191518250Y-96717400D01*
G75*
G02*
X191737000Y-96936150I0J-218750D01*
G01*
X191737000Y-97373650D01*
G75*
G02*
X191518250Y-97592400I-218750J0D01*
G01*
G37*
%TD.AperFunction*%
%TD*%
%TO.P,R15,1*%
%TO.N,Net-(R15-Pad1)*%
%TA.AperFunction,SMDPad,CuDef*%
G36*
G01*
X151105550Y-96339600D02*
X152018050Y-96339600D01*
G75*
G02*
X152261800Y-96583350I0J-243750D01*
G01*
X152261800Y-97070850D01*
G75*
G02*
X152018050Y-97314600I-243750J0D01*
G01*
X151105550Y-97314600D01*
G75*
G02*
X150861800Y-97070850I0J243750D01*
G01*
X150861800Y-96583350D01*
G75*
G02*
X151105550Y-96339600I243750J0D01*
G01*
G37*
%TD.AperFunction*%
%TO.P,R15,2*%
%TO.N,BIO_RED*%
%TA.AperFunction,SMDPad,CuDef*%
G36*
G01*
X151105550Y-98214600D02*
X152018050Y-98214600D01*
G75*
G02*
X152261800Y-98458350I0J-243750D01*
G01*
X152261800Y-98945850D01*
G75*
G02*
X152018050Y-99189600I-243750J0D01*
G01*
X151105550Y-99189600D01*
G75*
G02*
X150861800Y-98945850I0J243750D01*
G01*
X150861800Y-98458350D01*
G75*
G02*
X151105550Y-98214600I243750J0D01*
G01*
G37*
%TD.AperFunction*%
%TD*%
%TO.P,R5,1*%
%TO.N,+5V*%
%TA.AperFunction,SMDPad,CuDef*%
G36*
G01*
X182456250Y-79725000D02*
X181543750Y-79725000D01*
G75*
G02*
X181300000Y-79481250I0J243750D01*
G01*
X181300000Y-78993750D01*
G75*
G02*
X181543750Y-78750000I243750J0D01*
G01*
X182456250Y-78750000D01*
G75*
G02*
X182700000Y-78993750I0J-243750D01*
G01*
X182700000Y-79481250D01*
G75*
G02*
X182456250Y-79725000I-243750J0D01*
G01*
G37*
%TD.AperFunction*%
%TO.P,R5,2*%
%TO.N,RST*%
%TA.AperFunction,SMDPad,CuDef*%
G36*
G01*
X182456250Y-77850000D02*
X181543750Y-77850000D01*
G75*
G02*
X181300000Y-77606250I0J243750D01*
G01*
X181300000Y-77118750D01*
G75*
G02*
X181543750Y-76875000I243750J0D01*
G01*
X182456250Y-76875000D01*
G75*
G02*
X182700000Y-77118750I0J-243750D01*
G01*
X182700000Y-77606250D01*
G75*
G02*
X182456250Y-77850000I-243750J0D01*
G01*
G37*
%TD.AperFunction*%
%TD*%
%TO.P,R11,1*%
%TO.N,Net-(R11-Pad1)*%
%TA.AperFunction,SMDPad,CuDef*%
G36*
G01*
X179553550Y-96390400D02*
X180466050Y-96390400D01*
G75*
G02*
X180709800Y-96634150I0J-243750D01*
G01*
X180709800Y-97121650D01*
G75*
G02*
X180466050Y-97365400I-243750J0D01*
G01*
X179553550Y-97365400D01*
G75*
G02*
X179309800Y-97121650I0J243750D01*
G01*
X179309800Y-96634150D01*
G75*
G02*
X179553550Y-96390400I243750J0D01*
G01*
G37*
%TD.AperFunction*%
%TO.P,R11,2*%
%TO.N,FACH_GREEN*%
%TA.AperFunction,SMDPad,CuDef*%
G36*
G01*
X179553550Y-98265400D02*
X180466050Y-98265400D01*
G75*
G02*
X180709800Y-98509150I0J-243750D01*
G01*
X180709800Y-98996650D01*
G75*
G02*
X180466050Y-99240400I-243750J0D01*
G01*
X179553550Y-99240400D01*
G75*
G02*
X179309800Y-98996650I0J243750D01*
G01*
X179309800Y-98509150D01*
G75*
G02*
X179553550Y-98265400I243750J0D01*
G01*
G37*
%TD.AperFunction*%
%TD*%
%TO.P,C5,1*%
%TO.N,GND*%
%TA.AperFunction,SMDPad,CuDef*%
G36*
G01*
X161243750Y-76937500D02*
X162156250Y-76937500D01*
G75*
G02*
X162400000Y-77181250I0J-243750D01*
G01*
X162400000Y-77668750D01*
G75*
G02*
X162156250Y-77912500I-243750J0D01*
G01*
X161243750Y-77912500D01*
G75*
G02*
X161000000Y-77668750I0J243750D01*
G01*
X161000000Y-77181250D01*
G75*
G02*
X161243750Y-76937500I243750J0D01*
G01*
G37*
%TD.AperFunction*%
%TO.P,C5,2*%
%TO.N,+5V*%
%TA.AperFunction,SMDPad,CuDef*%
G36*
G01*
X161243750Y-78812500D02*
X162156250Y-78812500D01*
G75*
G02*
X162400000Y-79056250I0J-243750D01*
G01*
X162400000Y-79543750D01*
G75*
G02*
X162156250Y-79787500I-243750J0D01*
G01*
X161243750Y-79787500D01*
G75*
G02*
X161000000Y-79543750I0J243750D01*
G01*
X161000000Y-79056250D01*
G75*
G02*
X161243750Y-78812500I243750J0D01*
G01*
G37*
%TD.AperFunction*%
%TD*%
%TO.P,R20,1*%
%TO.N,BIO_GREEN*%
%TA.AperFunction,SMDPad,CuDef*%
G36*
G01*
X159512950Y-99921000D02*
X160425450Y-99921000D01*
G75*
G02*
X160669200Y-100164750I0J-243750D01*
G01*
X160669200Y-100652250D01*
G75*
G02*
X160425450Y-100896000I-243750J0D01*
G01*
X159512950Y-100896000D01*
G75*
G02*
X159269200Y-100652250I0J243750D01*
G01*
X159269200Y-100164750D01*
G75*
G02*
X159512950Y-99921000I243750J0D01*
G01*
G37*
%TD.AperFunction*%
%TO.P,R20,2*%
%TO.N,GND*%
%TA.AperFunction,SMDPad,CuDef*%
G36*
G01*
X159512950Y-101796000D02*
X160425450Y-101796000D01*
G75*
G02*
X160669200Y-102039750I0J-243750D01*
G01*
X160669200Y-102527250D01*
G75*
G02*
X160425450Y-102771000I-243750J0D01*
G01*
X159512950Y-102771000D01*
G75*
G02*
X159269200Y-102527250I0J243750D01*
G01*
X159269200Y-102039750D01*
G75*
G02*
X159512950Y-101796000I243750J0D01*
G01*
G37*
%TD.AperFunction*%
%TD*%
%TO.P,R29,1*%
%TO.N,FACH_RED*%
%TA.AperFunction,SMDPad,CuDef*%
G36*
G01*
X166878950Y-99819400D02*
X167791450Y-99819400D01*
G75*
G02*
X168035200Y-100063150I0J-243750D01*
G01*
X168035200Y-100550650D01*
G75*
G02*
X167791450Y-100794400I-243750J0D01*
G01*
X166878950Y-100794400D01*
G75*
G02*
X166635200Y-100550650I0J243750D01*
G01*
X166635200Y-100063150D01*
G75*
G02*
X166878950Y-99819400I243750J0D01*
G01*
G37*
%TD.AperFunction*%
%TO.P,R29,2*%
%TO.N,GND*%
%TA.AperFunction,SMDPad,CuDef*%
G36*
G01*
X166878950Y-101694400D02*
X167791450Y-101694400D01*
G75*
G02*
X168035200Y-101938150I0J-243750D01*
G01*
X168035200Y-102425650D01*
G75*
G02*
X167791450Y-102669400I-243750J0D01*
G01*
X166878950Y-102669400D01*
G75*
G02*
X166635200Y-102425650I0J243750D01*
G01*
X166635200Y-101938150D01*
G75*
G02*
X166878950Y-101694400I243750J0D01*
G01*
G37*
%TD.AperFunction*%
%TD*%
%TO.P,D9,1,A1*%
%TO.N,FIN_RED*%
%TA.AperFunction,SMDPad,CuDef*%
G36*
G01*
X186057250Y-99167400D02*
X185544750Y-99167400D01*
G75*
G02*
X185326000Y-98948650I0J218750D01*
G01*
X185326000Y-98511150D01*
G75*
G02*
X185544750Y-98292400I218750J0D01*
G01*
X186057250Y-98292400D01*
G75*
G02*
X186276000Y-98511150I0J-218750D01*
G01*
X186276000Y-98948650D01*
G75*
G02*
X186057250Y-99167400I-218750J0D01*
G01*
G37*
%TD.AperFunction*%
%TO.P,D9,2,A2*%
%TO.N,GND*%
%TA.AperFunction,SMDPad,CuDef*%
G36*
G01*
X186057250Y-97592400D02*
X185544750Y-97592400D01*
G75*
G02*
X185326000Y-97373650I0J218750D01*
G01*
X185326000Y-96936150D01*
G75*
G02*
X185544750Y-96717400I218750J0D01*
G01*
X186057250Y-96717400D01*
G75*
G02*
X186276000Y-96936150I0J-218750D01*
G01*
X186276000Y-97373650D01*
G75*
G02*
X186057250Y-97592400I-218750J0D01*
G01*
G37*
%TD.AperFunction*%
%TD*%
D14*
%TO.P,H3,1,1*%
%TO.N,GND*%
X112697056Y-111897056D03*
D15*
X111000000Y-110200000D03*
D14*
X113400000Y-110200000D03*
X109302944Y-111897056D03*
X112697056Y-108502944D03*
X111000000Y-112600000D03*
X108600000Y-110200000D03*
X109302944Y-108502944D03*
X111000000Y-107800000D03*
%TD*%
D12*
%TO.P,J2,1,Pin_1*%
%TO.N,MISO*%
X192709800Y-89270000D03*
D13*
%TO.P,J2,2,Pin_2*%
%TO.N,+5V*%
X190169800Y-89270000D03*
%TO.P,J2,3,Pin_3*%
%TO.N,SCK*%
X192709800Y-86730000D03*
%TO.P,J2,4,Pin_4*%
%TO.N,MOSI*%
X190169800Y-86730000D03*
%TO.P,J2,5,Pin_5*%
%TO.N,RST*%
X192709800Y-84190000D03*
%TO.P,J2,6,Pin_6*%
%TO.N,GND*%
X190169800Y-84190000D03*
%TD*%
%TO.P,D6,1,A1*%
%TO.N,BIO_GREEN*%
%TA.AperFunction,SMDPad,CuDef*%
G36*
G01*
X160273850Y-99296700D02*
X159761350Y-99296700D01*
G75*
G02*
X159542600Y-99077950I0J218750D01*
G01*
X159542600Y-98640450D01*
G75*
G02*
X159761350Y-98421700I218750J0D01*
G01*
X160273850Y-98421700D01*
G75*
G02*
X160492600Y-98640450I0J-218750D01*
G01*
X160492600Y-99077950D01*
G75*
G02*
X160273850Y-99296700I-218750J0D01*
G01*
G37*
%TD.AperFunction*%
%TO.P,D6,2,A2*%
%TO.N,GND*%
%TA.AperFunction,SMDPad,CuDef*%
G36*
G01*
X160273850Y-97721700D02*
X159761350Y-97721700D01*
G75*
G02*
X159542600Y-97502950I0J218750D01*
G01*
X159542600Y-97065450D01*
G75*
G02*
X159761350Y-96846700I218750J0D01*
G01*
X160273850Y-96846700D01*
G75*
G02*
X160492600Y-97065450I0J-218750D01*
G01*
X160492600Y-97502950D01*
G75*
G02*
X160273850Y-97721700I-218750J0D01*
G01*
G37*
%TD.AperFunction*%
%TD*%
%TO.P,R8,1*%
%TO.N,VBUS_DET*%
%TA.AperFunction,SMDPad,CuDef*%
G36*
G01*
X145857500Y-75511950D02*
X145857500Y-76424450D01*
G75*
G02*
X145613750Y-76668200I-243750J0D01*
G01*
X145126250Y-76668200D01*
G75*
G02*
X144882500Y-76424450I0J243750D01*
G01*
X144882500Y-75511950D01*
G75*
G02*
X145126250Y-75268200I243750J0D01*
G01*
X145613750Y-75268200D01*
G75*
G02*
X145857500Y-75511950I0J-243750D01*
G01*
G37*
%TD.AperFunction*%
%TO.P,R8,2*%
%TO.N,GND*%
%TA.AperFunction,SMDPad,CuDef*%
G36*
G01*
X143982500Y-75511950D02*
X143982500Y-76424450D01*
G75*
G02*
X143738750Y-76668200I-243750J0D01*
G01*
X143251250Y-76668200D01*
G75*
G02*
X143007500Y-76424450I0J243750D01*
G01*
X143007500Y-75511950D01*
G75*
G02*
X143251250Y-75268200I243750J0D01*
G01*
X143738750Y-75268200D01*
G75*
G02*
X143982500Y-75511950I0J-243750D01*
G01*
G37*
%TD.AperFunction*%
%TD*%
%TO.P,R7,1*%
%TO.N,VBUS*%
%TA.AperFunction,SMDPad,CuDef*%
G36*
G01*
X143007500Y-78659650D02*
X143007500Y-77747150D01*
G75*
G02*
X143251250Y-77503400I243750J0D01*
G01*
X143738750Y-77503400D01*
G75*
G02*
X143982500Y-77747150I0J-243750D01*
G01*
X143982500Y-78659650D01*
G75*
G02*
X143738750Y-78903400I-243750J0D01*
G01*
X143251250Y-78903400D01*
G75*
G02*
X143007500Y-78659650I0J243750D01*
G01*
G37*
%TD.AperFunction*%
%TO.P,R7,2*%
%TO.N,VBUS_DET*%
%TA.AperFunction,SMDPad,CuDef*%
G36*
G01*
X144882500Y-78659650D02*
X144882500Y-77747150D01*
G75*
G02*
X145126250Y-77503400I243750J0D01*
G01*
X145613750Y-77503400D01*
G75*
G02*
X145857500Y-77747150I0J-243750D01*
G01*
X145857500Y-78659650D01*
G75*
G02*
X145613750Y-78903400I-243750J0D01*
G01*
X145126250Y-78903400D01*
G75*
G02*
X144882500Y-78659650I0J243750D01*
G01*
G37*
%TD.AperFunction*%
%TD*%
D16*
%TO.P,D1,1,A*%
%TO.N,GND*%
X138800000Y-77300000D03*
D17*
%TO.P,D1,2,K*%
%TO.N,D-*%
X138800000Y-75580000D03*
%TO.P,D1,3,K*%
%TO.N,D+*%
X136600000Y-75580000D03*
%TO.P,D1,4,K*%
%TO.N,VBUS*%
X136600000Y-77480000D03*
%TD*%
D18*
%TO.P,Y1,1,1*%
%TO.N,Net-(U1-Pad8)*%
X162900000Y-89800000D03*
%TO.P,Y1,2,2*%
%TO.N,GND*%
X162900000Y-88600000D03*
%TO.P,Y1,3,3*%
%TO.N,Net-(U1-Pad7)*%
X162900000Y-87400000D03*
%TD*%
D14*
%TO.P,H2,1,1*%
%TO.N,GND*%
X206697056Y-111897056D03*
D15*
X205000000Y-110200000D03*
D14*
X207400000Y-110200000D03*
X203302944Y-111897056D03*
X206697056Y-108502944D03*
X205000000Y-112600000D03*
X202600000Y-110200000D03*
X203302944Y-108502944D03*
X205000000Y-107800000D03*
%TD*%
%TO.P,R4,1*%
%TO.N,Net-(D4-Pad1)*%
%TA.AperFunction,SMDPad,CuDef*%
G36*
G01*
X172401850Y-79746200D02*
X171489350Y-79746200D01*
G75*
G02*
X171245600Y-79502450I0J243750D01*
G01*
X171245600Y-79014950D01*
G75*
G02*
X171489350Y-78771200I243750J0D01*
G01*
X172401850Y-78771200D01*
G75*
G02*
X172645600Y-79014950I0J-243750D01*
G01*
X172645600Y-79502450D01*
G75*
G02*
X172401850Y-79746200I-243750J0D01*
G01*
G37*
%TD.AperFunction*%
%TO.P,R4,2*%
%TO.N,RXD*%
%TA.AperFunction,SMDPad,CuDef*%
G36*
G01*
X172401850Y-77871200D02*
X171489350Y-77871200D01*
G75*
G02*
X171245600Y-77627450I0J243750D01*
G01*
X171245600Y-77139950D01*
G75*
G02*
X171489350Y-76896200I243750J0D01*
G01*
X172401850Y-76896200D01*
G75*
G02*
X172645600Y-77139950I0J-243750D01*
G01*
X172645600Y-77627450D01*
G75*
G02*
X172401850Y-77871200I-243750J0D01*
G01*
G37*
%TD.AperFunction*%
%TD*%
%TO.P,D10,1,A1*%
%TO.N,BIO_RED*%
%TA.AperFunction,SMDPad,CuDef*%
G36*
G01*
X149709850Y-99225000D02*
X149197350Y-99225000D01*
G75*
G02*
X148978600Y-99006250I0J218750D01*
G01*
X148978600Y-98568750D01*
G75*
G02*
X149197350Y-98350000I218750J0D01*
G01*
X149709850Y-98350000D01*
G75*
G02*
X149928600Y-98568750I0J-218750D01*
G01*
X149928600Y-99006250D01*
G75*
G02*
X149709850Y-99225000I-218750J0D01*
G01*
G37*
%TD.AperFunction*%
%TO.P,D10,2,A2*%
%TO.N,GND*%
%TA.AperFunction,SMDPad,CuDef*%
G36*
G01*
X149709850Y-97650000D02*
X149197350Y-97650000D01*
G75*
G02*
X148978600Y-97431250I0J218750D01*
G01*
X148978600Y-96993750D01*
G75*
G02*
X149197350Y-96775000I218750J0D01*
G01*
X149709850Y-96775000D01*
G75*
G02*
X149928600Y-96993750I0J-218750D01*
G01*
X149928600Y-97431250D01*
G75*
G02*
X149709850Y-97650000I-218750J0D01*
G01*
G37*
%TD.AperFunction*%
%TD*%
%TO.P,C4,1*%
%TO.N,CP2102_VDD*%
%TA.AperFunction,SMDPad,CuDef*%
G36*
G01*
X145826300Y-73119950D02*
X145826300Y-74032450D01*
G75*
G02*
X145582550Y-74276200I-243750J0D01*
G01*
X145095050Y-74276200D01*
G75*
G02*
X144851300Y-74032450I0J243750D01*
G01*
X144851300Y-73119950D01*
G75*
G02*
X145095050Y-72876200I243750J0D01*
G01*
X145582550Y-72876200D01*
G75*
G02*
X145826300Y-73119950I0J-243750D01*
G01*
G37*
%TD.AperFunction*%
%TO.P,C4,2*%
%TO.N,GND*%
%TA.AperFunction,SMDPad,CuDef*%
G36*
G01*
X143951300Y-73119950D02*
X143951300Y-74032450D01*
G75*
G02*
X143707550Y-74276200I-243750J0D01*
G01*
X143220050Y-74276200D01*
G75*
G02*
X142976300Y-74032450I0J243750D01*
G01*
X142976300Y-73119950D01*
G75*
G02*
X143220050Y-72876200I243750J0D01*
G01*
X143707550Y-72876200D01*
G75*
G02*
X143951300Y-73119950I0J-243750D01*
G01*
G37*
%TD.AperFunction*%
%TD*%
%TO.P,R3,1*%
%TO.N,Net-(D3-Pad1)*%
%TA.AperFunction,SMDPad,CuDef*%
G36*
G01*
X174433850Y-79746200D02*
X173521350Y-79746200D01*
G75*
G02*
X173277600Y-79502450I0J243750D01*
G01*
X173277600Y-79014950D01*
G75*
G02*
X173521350Y-78771200I243750J0D01*
G01*
X174433850Y-78771200D01*
G75*
G02*
X174677600Y-79014950I0J-243750D01*
G01*
X174677600Y-79502450D01*
G75*
G02*
X174433850Y-79746200I-243750J0D01*
G01*
G37*
%TD.AperFunction*%
%TO.P,R3,2*%
%TO.N,TXD*%
%TA.AperFunction,SMDPad,CuDef*%
G36*
G01*
X174433850Y-77871200D02*
X173521350Y-77871200D01*
G75*
G02*
X173277600Y-77627450I0J243750D01*
G01*
X173277600Y-77139950D01*
G75*
G02*
X173521350Y-76896200I243750J0D01*
G01*
X174433850Y-76896200D01*
G75*
G02*
X174677600Y-77139950I0J-243750D01*
G01*
X174677600Y-77627450D01*
G75*
G02*
X174433850Y-77871200I-243750J0D01*
G01*
G37*
%TD.AperFunction*%
%TD*%
%TO.P,D12,1,A1*%
%TO.N,FACH_GREEN*%
%TA.AperFunction,SMDPad,CuDef*%
G36*
G01*
X178259450Y-99192800D02*
X177746950Y-99192800D01*
G75*
G02*
X177528200Y-98974050I0J218750D01*
G01*
X177528200Y-98536550D01*
G75*
G02*
X177746950Y-98317800I218750J0D01*
G01*
X178259450Y-98317800D01*
G75*
G02*
X178478200Y-98536550I0J-218750D01*
G01*
X178478200Y-98974050D01*
G75*
G02*
X178259450Y-99192800I-218750J0D01*
G01*
G37*
%TD.AperFunction*%
%TO.P,D12,2,A2*%
%TO.N,GND*%
%TA.AperFunction,SMDPad,CuDef*%
G36*
G01*
X178259450Y-97617800D02*
X177746950Y-97617800D01*
G75*
G02*
X177528200Y-97399050I0J218750D01*
G01*
X177528200Y-96961550D01*
G75*
G02*
X177746950Y-96742800I218750J0D01*
G01*
X178259450Y-96742800D01*
G75*
G02*
X178478200Y-96961550I0J-218750D01*
G01*
X178478200Y-97399050D01*
G75*
G02*
X178259450Y-97617800I-218750J0D01*
G01*
G37*
%TD.AperFunction*%
%TD*%
%TO.P,C14,1*%
%TO.N,FACH_GREEN*%
%TA.AperFunction,SMDPad,CuDef*%
G36*
G01*
X179553550Y-99819400D02*
X180466050Y-99819400D01*
G75*
G02*
X180709800Y-100063150I0J-243750D01*
G01*
X180709800Y-100550650D01*
G75*
G02*
X180466050Y-100794400I-243750J0D01*
G01*
X179553550Y-100794400D01*
G75*
G02*
X179309800Y-100550650I0J243750D01*
G01*
X179309800Y-100063150D01*
G75*
G02*
X179553550Y-99819400I243750J0D01*
G01*
G37*
%TD.AperFunction*%
%TO.P,C14,2*%
%TO.N,GND*%
%TA.AperFunction,SMDPad,CuDef*%
G36*
G01*
X179553550Y-101694400D02*
X180466050Y-101694400D01*
G75*
G02*
X180709800Y-101938150I0J-243750D01*
G01*
X180709800Y-102425650D01*
G75*
G02*
X180466050Y-102669400I-243750J0D01*
G01*
X179553550Y-102669400D01*
G75*
G02*
X179309800Y-102425650I0J243750D01*
G01*
X179309800Y-101938150D01*
G75*
G02*
X179553550Y-101694400I243750J0D01*
G01*
G37*
%TD.AperFunction*%
%TD*%
D10*
%TO.P,J4,1,Pin_1*%
%TO.N,BIO_RED*%
X150985200Y-112674400D03*
D11*
%TO.P,J4,2,Pin_2*%
%TO.N,BIO_YELLOW*%
X155985200Y-112674400D03*
%TO.P,J4,3,Pin_3*%
%TO.N,BIO_GREEN*%
X160985200Y-112674400D03*
%TD*%
D14*
%TO.P,H1,1,1*%
%TO.N,GND*%
X112697056Y-76697056D03*
D15*
X111000000Y-75000000D03*
D14*
X113400000Y-75000000D03*
X109302944Y-76697056D03*
X112697056Y-73302944D03*
X111000000Y-77400000D03*
X108600000Y-75000000D03*
X109302944Y-73302944D03*
X111000000Y-72600000D03*
%TD*%
%TO.P,C3,1*%
%TO.N,+5V*%
%TA.AperFunction,SMDPad,CuDef*%
G36*
G01*
X164150050Y-79787500D02*
X163237550Y-79787500D01*
G75*
G02*
X162993800Y-79543750I0J243750D01*
G01*
X162993800Y-79056250D01*
G75*
G02*
X163237550Y-78812500I243750J0D01*
G01*
X164150050Y-78812500D01*
G75*
G02*
X164393800Y-79056250I0J-243750D01*
G01*
X164393800Y-79543750D01*
G75*
G02*
X164150050Y-79787500I-243750J0D01*
G01*
G37*
%TD.AperFunction*%
%TO.P,C3,2*%
%TO.N,GND*%
%TA.AperFunction,SMDPad,CuDef*%
G36*
G01*
X164150050Y-77912500D02*
X163237550Y-77912500D01*
G75*
G02*
X162993800Y-77668750I0J243750D01*
G01*
X162993800Y-77181250D01*
G75*
G02*
X163237550Y-76937500I243750J0D01*
G01*
X164150050Y-76937500D01*
G75*
G02*
X164393800Y-77181250I0J-243750D01*
G01*
X164393800Y-77668750D01*
G75*
G02*
X164150050Y-77912500I-243750J0D01*
G01*
G37*
%TD.AperFunction*%
%TD*%
%TO.P,R2,1*%
%TO.N,+5V*%
%TA.AperFunction,SMDPad,CuDef*%
G36*
G01*
X166559850Y-79797000D02*
X165647350Y-79797000D01*
G75*
G02*
X165403600Y-79553250I0J243750D01*
G01*
X165403600Y-79065750D01*
G75*
G02*
X165647350Y-78822000I243750J0D01*
G01*
X166559850Y-78822000D01*
G75*
G02*
X166803600Y-79065750I0J-243750D01*
G01*
X166803600Y-79553250D01*
G75*
G02*
X166559850Y-79797000I-243750J0D01*
G01*
G37*
%TD.AperFunction*%
%TO.P,R2,2*%
%TO.N,Net-(D4-Pad2)*%
%TA.AperFunction,SMDPad,CuDef*%
G36*
G01*
X166559850Y-77922000D02*
X165647350Y-77922000D01*
G75*
G02*
X165403600Y-77678250I0J243750D01*
G01*
X165403600Y-77190750D01*
G75*
G02*
X165647350Y-76947000I243750J0D01*
G01*
X166559850Y-76947000D01*
G75*
G02*
X166803600Y-77190750I0J-243750D01*
G01*
X166803600Y-77678250D01*
G75*
G02*
X166559850Y-77922000I-243750J0D01*
G01*
G37*
%TD.AperFunction*%
%TD*%
%TO.P,R17,1*%
%TO.N,Net-(R17-Pad1)*%
%TA.AperFunction,SMDPad,CuDef*%
G36*
G01*
X161491750Y-96418200D02*
X162404250Y-96418200D01*
G75*
G02*
X162648000Y-96661950I0J-243750D01*
G01*
X162648000Y-97149450D01*
G75*
G02*
X162404250Y-97393200I-243750J0D01*
G01*
X161491750Y-97393200D01*
G75*
G02*
X161248000Y-97149450I0J243750D01*
G01*
X161248000Y-96661950D01*
G75*
G02*
X161491750Y-96418200I243750J0D01*
G01*
G37*
%TD.AperFunction*%
%TO.P,R17,2*%
%TO.N,BIO_GREEN*%
%TA.AperFunction,SMDPad,CuDef*%
G36*
G01*
X161491750Y-98293200D02*
X162404250Y-98293200D01*
G75*
G02*
X162648000Y-98536950I0J-243750D01*
G01*
X162648000Y-99024450D01*
G75*
G02*
X162404250Y-99268200I-243750J0D01*
G01*
X161491750Y-99268200D01*
G75*
G02*
X161248000Y-99024450I0J243750D01*
G01*
X161248000Y-98536950D01*
G75*
G02*
X161491750Y-98293200I243750J0D01*
G01*
G37*
%TD.AperFunction*%
%TD*%
%TO.P,H4,1,1*%
%TO.N,GND*%
X206697056Y-76697056D03*
D15*
X205000000Y-75000000D03*
D14*
X207400000Y-75000000D03*
X203302944Y-76697056D03*
X206697056Y-73302944D03*
X205000000Y-77400000D03*
X202600000Y-75000000D03*
X203302944Y-73302944D03*
X205000000Y-72600000D03*
%TD*%
%TO.P,C15,1*%
%TO.N,FACH_YELLOW*%
%TA.AperFunction,SMDPad,CuDef*%
G36*
G01*
X174371950Y-99819400D02*
X175284450Y-99819400D01*
G75*
G02*
X175528200Y-100063150I0J-243750D01*
G01*
X175528200Y-100550650D01*
G75*
G02*
X175284450Y-100794400I-243750J0D01*
G01*
X174371950Y-100794400D01*
G75*
G02*
X174128200Y-100550650I0J243750D01*
G01*
X174128200Y-100063150D01*
G75*
G02*
X174371950Y-99819400I243750J0D01*
G01*
G37*
%TD.AperFunction*%
%TO.P,C15,2*%
%TO.N,GND*%
%TA.AperFunction,SMDPad,CuDef*%
G36*
G01*
X174371950Y-101694400D02*
X175284450Y-101694400D01*
G75*
G02*
X175528200Y-101938150I0J-243750D01*
G01*
X175528200Y-102425650D01*
G75*
G02*
X175284450Y-102669400I-243750J0D01*
G01*
X174371950Y-102669400D01*
G75*
G02*
X174128200Y-102425650I0J243750D01*
G01*
X174128200Y-101938150D01*
G75*
G02*
X174371950Y-101694400I243750J0D01*
G01*
G37*
%TD.AperFunction*%
%TD*%
D19*
%TO.P,J1,1,VBUS*%
%TO.N,VBUS*%
X124510800Y-78181200D03*
D20*
%TO.P,J1,2,D-*%
%TO.N,D-*%
X127010800Y-78181200D03*
%TO.P,J1,3,D+*%
%TO.N,D+*%
X127010800Y-74981200D03*
%TO.P,J1,4,GND*%
%TO.N,GND*%
X124510800Y-74981200D03*
D21*
%TO.P,J1,5,Shield*%
X119740800Y-75471200D03*
X131780800Y-75471200D03*
%TD*%
%TO.P,C11,1*%
%TO.N,FIN_RED*%
%TA.AperFunction,SMDPad,CuDef*%
G36*
G01*
X187325950Y-99819400D02*
X188238450Y-99819400D01*
G75*
G02*
X188482200Y-100063150I0J-243750D01*
G01*
X188482200Y-100550650D01*
G75*
G02*
X188238450Y-100794400I-243750J0D01*
G01*
X187325950Y-100794400D01*
G75*
G02*
X187082200Y-100550650I0J243750D01*
G01*
X187082200Y-100063150D01*
G75*
G02*
X187325950Y-99819400I243750J0D01*
G01*
G37*
%TD.AperFunction*%
%TO.P,C11,2*%
%TO.N,GND*%
%TA.AperFunction,SMDPad,CuDef*%
G36*
G01*
X187325950Y-101694400D02*
X188238450Y-101694400D01*
G75*
G02*
X188482200Y-101938150I0J-243750D01*
G01*
X188482200Y-102425650D01*
G75*
G02*
X188238450Y-102669400I-243750J0D01*
G01*
X187325950Y-102669400D01*
G75*
G02*
X187082200Y-102425650I0J243750D01*
G01*
X187082200Y-101938150D01*
G75*
G02*
X187325950Y-101694400I243750J0D01*
G01*
G37*
%TD.AperFunction*%
%TD*%
%TO.P,C9,1*%
%TO.N,FIN_YELLOW*%
%TA.AperFunction,SMDPad,CuDef*%
G36*
G01*
X192736150Y-99819400D02*
X193648650Y-99819400D01*
G75*
G02*
X193892400Y-100063150I0J-243750D01*
G01*
X193892400Y-100550650D01*
G75*
G02*
X193648650Y-100794400I-243750J0D01*
G01*
X192736150Y-100794400D01*
G75*
G02*
X192492400Y-100550650I0J243750D01*
G01*
X192492400Y-100063150D01*
G75*
G02*
X192736150Y-99819400I243750J0D01*
G01*
G37*
%TD.AperFunction*%
%TO.P,C9,2*%
%TO.N,GND*%
%TA.AperFunction,SMDPad,CuDef*%
G36*
G01*
X192736150Y-101694400D02*
X193648650Y-101694400D01*
G75*
G02*
X193892400Y-101938150I0J-243750D01*
G01*
X193892400Y-102425650D01*
G75*
G02*
X193648650Y-102669400I-243750J0D01*
G01*
X192736150Y-102669400D01*
G75*
G02*
X192492400Y-102425650I0J243750D01*
G01*
X192492400Y-101938150D01*
G75*
G02*
X192736150Y-101694400I243750J0D01*
G01*
G37*
%TD.AperFunction*%
%TD*%
D10*
%TO.P,J6,1,Pin_1*%
%TO.N,+5V*%
X119151400Y-112318800D03*
D11*
%TO.P,J6,2,Pin_2*%
%TO.N,GND*%
X124151400Y-112318800D03*
%TD*%
%TO.P,F1,1*%
%TO.N,GND*%
%TA.AperFunction,SMDPad,CuDef*%
G36*
G01*
X141943750Y-99275000D02*
X142856250Y-99275000D01*
G75*
G02*
X143100000Y-99518750I0J-243750D01*
G01*
X143100000Y-100006250D01*
G75*
G02*
X142856250Y-100250000I-243750J0D01*
G01*
X141943750Y-100250000D01*
G75*
G02*
X141700000Y-100006250I0J243750D01*
G01*
X141700000Y-99518750D01*
G75*
G02*
X141943750Y-99275000I243750J0D01*
G01*
G37*
%TD.AperFunction*%
%TO.P,F1,2*%
%TO.N,Net-(F1-Pad2)*%
%TA.AperFunction,SMDPad,CuDef*%
G36*
G01*
X141943750Y-101150000D02*
X142856250Y-101150000D01*
G75*
G02*
X143100000Y-101393750I0J-243750D01*
G01*
X143100000Y-101881250D01*
G75*
G02*
X142856250Y-102125000I-243750J0D01*
G01*
X141943750Y-102125000D01*
G75*
G02*
X141700000Y-101881250I0J243750D01*
G01*
X141700000Y-101393750D01*
G75*
G02*
X141943750Y-101150000I243750J0D01*
G01*
G37*
%TD.AperFunction*%
%TD*%
%TO.P,C7,1*%
%TO.N,FIN_GREEN*%
%TA.AperFunction,SMDPad,CuDef*%
G36*
G01*
X197790750Y-99794000D02*
X198703250Y-99794000D01*
G75*
G02*
X198947000Y-100037750I0J-243750D01*
G01*
X198947000Y-100525250D01*
G75*
G02*
X198703250Y-100769000I-243750J0D01*
G01*
X197790750Y-100769000D01*
G75*
G02*
X197547000Y-100525250I0J243750D01*
G01*
X197547000Y-100037750D01*
G75*
G02*
X197790750Y-99794000I243750J0D01*
G01*
G37*
%TD.AperFunction*%
%TO.P,C7,2*%
%TO.N,GND*%
%TA.AperFunction,SMDPad,CuDef*%
G36*
G01*
X197790750Y-101669000D02*
X198703250Y-101669000D01*
G75*
G02*
X198947000Y-101912750I0J-243750D01*
G01*
X198947000Y-102400250D01*
G75*
G02*
X198703250Y-102644000I-243750J0D01*
G01*
X197790750Y-102644000D01*
G75*
G02*
X197547000Y-102400250I0J243750D01*
G01*
X197547000Y-101912750D01*
G75*
G02*
X197790750Y-101669000I243750J0D01*
G01*
G37*
%TD.AperFunction*%
%TD*%
%TO.P,R12,1*%
%TO.N,MOSI*%
%TA.AperFunction,SMDPad,CuDef*%
G36*
G01*
X187325950Y-96390400D02*
X188238450Y-96390400D01*
G75*
G02*
X188482200Y-96634150I0J-243750D01*
G01*
X188482200Y-97121650D01*
G75*
G02*
X188238450Y-97365400I-243750J0D01*
G01*
X187325950Y-97365400D01*
G75*
G02*
X187082200Y-97121650I0J243750D01*
G01*
X187082200Y-96634150D01*
G75*
G02*
X187325950Y-96390400I243750J0D01*
G01*
G37*
%TD.AperFunction*%
%TO.P,R12,2*%
%TO.N,FIN_RED*%
%TA.AperFunction,SMDPad,CuDef*%
G36*
G01*
X187325950Y-98265400D02*
X188238450Y-98265400D01*
G75*
G02*
X188482200Y-98509150I0J-243750D01*
G01*
X188482200Y-98996650D01*
G75*
G02*
X188238450Y-99240400I-243750J0D01*
G01*
X187325950Y-99240400D01*
G75*
G02*
X187082200Y-98996650I0J243750D01*
G01*
X187082200Y-98509150D01*
G75*
G02*
X187325950Y-98265400I243750J0D01*
G01*
G37*
%TD.AperFunction*%
%TD*%
%TO.P,C16,1*%
%TO.N,FACH_RED*%
%TA.AperFunction,SMDPad,CuDef*%
G36*
G01*
X168834750Y-99819400D02*
X169747250Y-99819400D01*
G75*
G02*
X169991000Y-100063150I0J-243750D01*
G01*
X169991000Y-100550650D01*
G75*
G02*
X169747250Y-100794400I-243750J0D01*
G01*
X168834750Y-100794400D01*
G75*
G02*
X168591000Y-100550650I0J243750D01*
G01*
X168591000Y-100063150D01*
G75*
G02*
X168834750Y-99819400I243750J0D01*
G01*
G37*
%TD.AperFunction*%
%TO.P,C16,2*%
%TO.N,GND*%
%TA.AperFunction,SMDPad,CuDef*%
G36*
G01*
X168834750Y-101694400D02*
X169747250Y-101694400D01*
G75*
G02*
X169991000Y-101938150I0J-243750D01*
G01*
X169991000Y-102425650D01*
G75*
G02*
X169747250Y-102669400I-243750J0D01*
G01*
X168834750Y-102669400D01*
G75*
G02*
X168591000Y-102425650I0J243750D01*
G01*
X168591000Y-101938150D01*
G75*
G02*
X168834750Y-101694400I243750J0D01*
G01*
G37*
%TD.AperFunction*%
%TD*%
%TO.P,D14,1,A1*%
%TO.N,FACH_RED*%
%TA.AperFunction,SMDPad,CuDef*%
G36*
G01*
X167616850Y-99192800D02*
X167104350Y-99192800D01*
G75*
G02*
X166885600Y-98974050I0J218750D01*
G01*
X166885600Y-98536550D01*
G75*
G02*
X167104350Y-98317800I218750J0D01*
G01*
X167616850Y-98317800D01*
G75*
G02*
X167835600Y-98536550I0J-218750D01*
G01*
X167835600Y-98974050D01*
G75*
G02*
X167616850Y-99192800I-218750J0D01*
G01*
G37*
%TD.AperFunction*%
%TO.P,D14,2,A2*%
%TO.N,GND*%
%TA.AperFunction,SMDPad,CuDef*%
G36*
G01*
X167616850Y-97617800D02*
X167104350Y-97617800D01*
G75*
G02*
X166885600Y-97399050I0J218750D01*
G01*
X166885600Y-96961550D01*
G75*
G02*
X167104350Y-96742800I218750J0D01*
G01*
X167616850Y-96742800D01*
G75*
G02*
X167835600Y-96961550I0J-218750D01*
G01*
X167835600Y-97399050D01*
G75*
G02*
X167616850Y-97617800I-218750J0D01*
G01*
G37*
%TD.AperFunction*%
%TD*%
%TO.P,C10,1*%
%TO.N,BIO_YELLOW*%
%TA.AperFunction,SMDPad,CuDef*%
G36*
G01*
X156363350Y-99819400D02*
X157275850Y-99819400D01*
G75*
G02*
X157519600Y-100063150I0J-243750D01*
G01*
X157519600Y-100550650D01*
G75*
G02*
X157275850Y-100794400I-243750J0D01*
G01*
X156363350Y-100794400D01*
G75*
G02*
X156119600Y-100550650I0J243750D01*
G01*
X156119600Y-100063150D01*
G75*
G02*
X156363350Y-99819400I243750J0D01*
G01*
G37*
%TD.AperFunction*%
%TO.P,C10,2*%
%TO.N,GND*%
%TA.AperFunction,SMDPad,CuDef*%
G36*
G01*
X156363350Y-101694400D02*
X157275850Y-101694400D01*
G75*
G02*
X157519600Y-101938150I0J-243750D01*
G01*
X157519600Y-102425650D01*
G75*
G02*
X157275850Y-102669400I-243750J0D01*
G01*
X156363350Y-102669400D01*
G75*
G02*
X156119600Y-102425650I0J243750D01*
G01*
X156119600Y-101938150D01*
G75*
G02*
X156363350Y-101694400I243750J0D01*
G01*
G37*
%TD.AperFunction*%
%TD*%
D22*
%TO.P,D15,1,K*%
%TO.N,+5V*%
X119131250Y-101000000D03*
%TO.P,D15,2,A*%
%TO.N,VBUS*%
X119131250Y-96600000D03*
%TD*%
%TO.P,R10,1*%
%TO.N,Net-(R10-Pad1)*%
%TA.AperFunction,SMDPad,CuDef*%
G36*
G01*
X174371950Y-96390400D02*
X175284450Y-96390400D01*
G75*
G02*
X175528200Y-96634150I0J-243750D01*
G01*
X175528200Y-97121650D01*
G75*
G02*
X175284450Y-97365400I-243750J0D01*
G01*
X174371950Y-97365400D01*
G75*
G02*
X174128200Y-97121650I0J243750D01*
G01*
X174128200Y-96634150D01*
G75*
G02*
X174371950Y-96390400I243750J0D01*
G01*
G37*
%TD.AperFunction*%
%TO.P,R10,2*%
%TO.N,FACH_YELLOW*%
%TA.AperFunction,SMDPad,CuDef*%
G36*
G01*
X174371950Y-98265400D02*
X175284450Y-98265400D01*
G75*
G02*
X175528200Y-98509150I0J-243750D01*
G01*
X175528200Y-98996650D01*
G75*
G02*
X175284450Y-99240400I-243750J0D01*
G01*
X174371950Y-99240400D01*
G75*
G02*
X174128200Y-98996650I0J243750D01*
G01*
X174128200Y-98509150D01*
G75*
G02*
X174371950Y-98265400I243750J0D01*
G01*
G37*
%TD.AperFunction*%
%TD*%
%TO.P,D4,1,K*%
%TO.N,Net-(D4-Pad1)*%
%TA.AperFunction,SMDPad,CuDef*%
G36*
G01*
X169201450Y-79797000D02*
X168288950Y-79797000D01*
G75*
G02*
X168045200Y-79553250I0J243750D01*
G01*
X168045200Y-79065750D01*
G75*
G02*
X168288950Y-78822000I243750J0D01*
G01*
X169201450Y-78822000D01*
G75*
G02*
X169445200Y-79065750I0J-243750D01*
G01*
X169445200Y-79553250D01*
G75*
G02*
X169201450Y-79797000I-243750J0D01*
G01*
G37*
%TD.AperFunction*%
%TO.P,D4,2,A*%
%TO.N,Net-(D4-Pad2)*%
%TA.AperFunction,SMDPad,CuDef*%
G36*
G01*
X169201450Y-77922000D02*
X168288950Y-77922000D01*
G75*
G02*
X168045200Y-77678250I0J243750D01*
G01*
X168045200Y-77190750D01*
G75*
G02*
X168288950Y-76947000I243750J0D01*
G01*
X169201450Y-76947000D01*
G75*
G02*
X169445200Y-77190750I0J-243750D01*
G01*
X169445200Y-77678250D01*
G75*
G02*
X169201450Y-77922000I-243750J0D01*
G01*
G37*
%TD.AperFunction*%
%TD*%
%TO.P,U2,1,RI/CLK*%
%TO.N,N/C*%
%TA.AperFunction,SMDPad,CuDef*%
G36*
G01*
X152774700Y-71919600D02*
X152899700Y-71919600D01*
G75*
G02*
X152962200Y-71982100I0J-62500D01*
G01*
X152962200Y-72682100D01*
G75*
G02*
X152899700Y-72744600I-62500J0D01*
G01*
X152774700Y-72744600D01*
G75*
G02*
X152712200Y-72682100I0J62500D01*
G01*
X152712200Y-71982100D01*
G75*
G02*
X152774700Y-71919600I62500J0D01*
G01*
G37*
%TD.AperFunction*%
%TO.P,U2,2,GND*%
%TO.N,GND*%
%TA.AperFunction,SMDPad,CuDef*%
G36*
G01*
X152274700Y-71919600D02*
X152399700Y-71919600D01*
G75*
G02*
X152462200Y-71982100I0J-62500D01*
G01*
X152462200Y-72682100D01*
G75*
G02*
X152399700Y-72744600I-62500J0D01*
G01*
X152274700Y-72744600D01*
G75*
G02*
X152212200Y-72682100I0J62500D01*
G01*
X152212200Y-71982100D01*
G75*
G02*
X152274700Y-71919600I62500J0D01*
G01*
G37*
%TD.AperFunction*%
%TO.P,U2,3,D+*%
%TO.N,D+*%
%TA.AperFunction,SMDPad,CuDef*%
G36*
G01*
X151774700Y-71919600D02*
X151899700Y-71919600D01*
G75*
G02*
X151962200Y-71982100I0J-62500D01*
G01*
X151962200Y-72682100D01*
G75*
G02*
X151899700Y-72744600I-62500J0D01*
G01*
X151774700Y-72744600D01*
G75*
G02*
X151712200Y-72682100I0J62500D01*
G01*
X151712200Y-71982100D01*
G75*
G02*
X151774700Y-71919600I62500J0D01*
G01*
G37*
%TD.AperFunction*%
%TO.P,U2,4,D-*%
%TO.N,D-*%
%TA.AperFunction,SMDPad,CuDef*%
G36*
G01*
X151274700Y-71919600D02*
X151399700Y-71919600D01*
G75*
G02*
X151462200Y-71982100I0J-62500D01*
G01*
X151462200Y-72682100D01*
G75*
G02*
X151399700Y-72744600I-62500J0D01*
G01*
X151274700Y-72744600D01*
G75*
G02*
X151212200Y-72682100I0J62500D01*
G01*
X151212200Y-71982100D01*
G75*
G02*
X151274700Y-71919600I62500J0D01*
G01*
G37*
%TD.AperFunction*%
%TO.P,U2,5,VIO*%
%TO.N,CP2102_VDD*%
%TA.AperFunction,SMDPad,CuDef*%
G36*
G01*
X150774700Y-71919600D02*
X150899700Y-71919600D01*
G75*
G02*
X150962200Y-71982100I0J-62500D01*
G01*
X150962200Y-72682100D01*
G75*
G02*
X150899700Y-72744600I-62500J0D01*
G01*
X150774700Y-72744600D01*
G75*
G02*
X150712200Y-72682100I0J62500D01*
G01*
X150712200Y-71982100D01*
G75*
G02*
X150774700Y-71919600I62500J0D01*
G01*
G37*
%TD.AperFunction*%
%TO.P,U2,6,VDD*%
%TA.AperFunction,SMDPad,CuDef*%
G36*
G01*
X150274700Y-71919600D02*
X150399700Y-71919600D01*
G75*
G02*
X150462200Y-71982100I0J-62500D01*
G01*
X150462200Y-72682100D01*
G75*
G02*
X150399700Y-72744600I-62500J0D01*
G01*
X150274700Y-72744600D01*
G75*
G02*
X150212200Y-72682100I0J62500D01*
G01*
X150212200Y-71982100D01*
G75*
G02*
X150274700Y-71919600I62500J0D01*
G01*
G37*
%TD.AperFunction*%
%TO.P,U2,7,REGIN*%
%TO.N,+5V*%
%TA.AperFunction,SMDPad,CuDef*%
G36*
G01*
X149299700Y-72894600D02*
X149999700Y-72894600D01*
G75*
G02*
X150062200Y-72957100I0J-62500D01*
G01*
X150062200Y-73082100D01*
G75*
G02*
X149999700Y-73144600I-62500J0D01*
G01*
X149299700Y-73144600D01*
G75*
G02*
X149237200Y-73082100I0J62500D01*
G01*
X149237200Y-72957100D01*
G75*
G02*
X149299700Y-72894600I62500J0D01*
G01*
G37*
%TD.AperFunction*%
%TO.P,U2,8,VBUS*%
%TO.N,VBUS_DET*%
%TA.AperFunction,SMDPad,CuDef*%
G36*
G01*
X149299700Y-73394600D02*
X149999700Y-73394600D01*
G75*
G02*
X150062200Y-73457100I0J-62500D01*
G01*
X150062200Y-73582100D01*
G75*
G02*
X149999700Y-73644600I-62500J0D01*
G01*
X149299700Y-73644600D01*
G75*
G02*
X149237200Y-73582100I0J62500D01*
G01*
X149237200Y-73457100D01*
G75*
G02*
X149299700Y-73394600I62500J0D01*
G01*
G37*
%TD.AperFunction*%
%TO.P,U2,9,~RSTb*%
%TO.N,Net-(R6-Pad2)*%
%TA.AperFunction,SMDPad,CuDef*%
G36*
G01*
X149299700Y-73894600D02*
X149999700Y-73894600D01*
G75*
G02*
X150062200Y-73957100I0J-62500D01*
G01*
X150062200Y-74082100D01*
G75*
G02*
X149999700Y-74144600I-62500J0D01*
G01*
X149299700Y-74144600D01*
G75*
G02*
X149237200Y-74082100I0J62500D01*
G01*
X149237200Y-73957100D01*
G75*
G02*
X149299700Y-73894600I62500J0D01*
G01*
G37*
%TD.AperFunction*%
%TO.P,U2,10,NC*%
%TO.N,N/C*%
%TA.AperFunction,SMDPad,CuDef*%
G36*
G01*
X149299700Y-74394600D02*
X149999700Y-74394600D01*
G75*
G02*
X150062200Y-74457100I0J-62500D01*
G01*
X150062200Y-74582100D01*
G75*
G02*
X149999700Y-74644600I-62500J0D01*
G01*
X149299700Y-74644600D01*
G75*
G02*
X149237200Y-74582100I0J62500D01*
G01*
X149237200Y-74457100D01*
G75*
G02*
X149299700Y-74394600I62500J0D01*
G01*
G37*
%TD.AperFunction*%
%TO.P,U2,11,GPIO.3*%
%TA.AperFunction,SMDPad,CuDef*%
G36*
G01*
X149299700Y-74894600D02*
X149999700Y-74894600D01*
G75*
G02*
X150062200Y-74957100I0J-62500D01*
G01*
X150062200Y-75082100D01*
G75*
G02*
X149999700Y-75144600I-62500J0D01*
G01*
X149299700Y-75144600D01*
G75*
G02*
X149237200Y-75082100I0J62500D01*
G01*
X149237200Y-74957100D01*
G75*
G02*
X149299700Y-74894600I62500J0D01*
G01*
G37*
%TD.AperFunction*%
%TO.P,U2,12,GPIO.2*%
%TA.AperFunction,SMDPad,CuDef*%
G36*
G01*
X149299700Y-75394600D02*
X149999700Y-75394600D01*
G75*
G02*
X150062200Y-75457100I0J-62500D01*
G01*
X150062200Y-75582100D01*
G75*
G02*
X149999700Y-75644600I-62500J0D01*
G01*
X149299700Y-75644600D01*
G75*
G02*
X149237200Y-75582100I0J62500D01*
G01*
X149237200Y-75457100D01*
G75*
G02*
X149299700Y-75394600I62500J0D01*
G01*
G37*
%TD.AperFunction*%
%TO.P,U2,13,GPIO.1*%
%TA.AperFunction,SMDPad,CuDef*%
G36*
G01*
X150274700Y-75794600D02*
X150399700Y-75794600D01*
G75*
G02*
X150462200Y-75857100I0J-62500D01*
G01*
X150462200Y-76557100D01*
G75*
G02*
X150399700Y-76619600I-62500J0D01*
G01*
X150274700Y-76619600D01*
G75*
G02*
X150212200Y-76557100I0J62500D01*
G01*
X150212200Y-75857100D01*
G75*
G02*
X150274700Y-75794600I62500J0D01*
G01*
G37*
%TD.AperFunction*%
%TO.P,U2,14,GPIO.0*%
%TA.AperFunction,SMDPad,CuDef*%
G36*
G01*
X150774700Y-75794600D02*
X150899700Y-75794600D01*
G75*
G02*
X150962200Y-75857100I0J-62500D01*
G01*
X150962200Y-76557100D01*
G75*
G02*
X150899700Y-76619600I-62500J0D01*
G01*
X150774700Y-76619600D01*
G75*
G02*
X150712200Y-76557100I0J62500D01*
G01*
X150712200Y-75857100D01*
G75*
G02*
X150774700Y-75794600I62500J0D01*
G01*
G37*
%TD.AperFunction*%
%TO.P,U2,15,~SUSPENDb*%
%TA.AperFunction,SMDPad,CuDef*%
G36*
G01*
X151274700Y-75794600D02*
X151399700Y-75794600D01*
G75*
G02*
X151462200Y-75857100I0J-62500D01*
G01*
X151462200Y-76557100D01*
G75*
G02*
X151399700Y-76619600I-62500J0D01*
G01*
X151274700Y-76619600D01*
G75*
G02*
X151212200Y-76557100I0J62500D01*
G01*
X151212200Y-75857100D01*
G75*
G02*
X151274700Y-75794600I62500J0D01*
G01*
G37*
%TD.AperFunction*%
%TO.P,U2,16,NC*%
%TA.AperFunction,SMDPad,CuDef*%
G36*
G01*
X151774700Y-75794600D02*
X151899700Y-75794600D01*
G75*
G02*
X151962200Y-75857100I0J-62500D01*
G01*
X151962200Y-76557100D01*
G75*
G02*
X151899700Y-76619600I-62500J0D01*
G01*
X151774700Y-76619600D01*
G75*
G02*
X151712200Y-76557100I0J62500D01*
G01*
X151712200Y-75857100D01*
G75*
G02*
X151774700Y-75794600I62500J0D01*
G01*
G37*
%TD.AperFunction*%
%TO.P,U2,17,SUSPEND*%
%TA.AperFunction,SMDPad,CuDef*%
G36*
G01*
X152274700Y-75794600D02*
X152399700Y-75794600D01*
G75*
G02*
X152462200Y-75857100I0J-62500D01*
G01*
X152462200Y-76557100D01*
G75*
G02*
X152399700Y-76619600I-62500J0D01*
G01*
X152274700Y-76619600D01*
G75*
G02*
X152212200Y-76557100I0J62500D01*
G01*
X152212200Y-75857100D01*
G75*
G02*
X152274700Y-75794600I62500J0D01*
G01*
G37*
%TD.AperFunction*%
%TO.P,U2,18,CTS*%
%TA.AperFunction,SMDPad,CuDef*%
G36*
G01*
X152774700Y-75794600D02*
X152899700Y-75794600D01*
G75*
G02*
X152962200Y-75857100I0J-62500D01*
G01*
X152962200Y-76557100D01*
G75*
G02*
X152899700Y-76619600I-62500J0D01*
G01*
X152774700Y-76619600D01*
G75*
G02*
X152712200Y-76557100I0J62500D01*
G01*
X152712200Y-75857100D01*
G75*
G02*
X152774700Y-75794600I62500J0D01*
G01*
G37*
%TD.AperFunction*%
%TO.P,U2,19,RTS*%
%TA.AperFunction,SMDPad,CuDef*%
G36*
G01*
X153174700Y-75394600D02*
X153874700Y-75394600D01*
G75*
G02*
X153937200Y-75457100I0J-62500D01*
G01*
X153937200Y-75582100D01*
G75*
G02*
X153874700Y-75644600I-62500J0D01*
G01*
X153174700Y-75644600D01*
G75*
G02*
X153112200Y-75582100I0J62500D01*
G01*
X153112200Y-75457100D01*
G75*
G02*
X153174700Y-75394600I62500J0D01*
G01*
G37*
%TD.AperFunction*%
%TO.P,U2,20,RXD*%
%TO.N,RXD*%
%TA.AperFunction,SMDPad,CuDef*%
G36*
G01*
X153174700Y-74894600D02*
X153874700Y-74894600D01*
G75*
G02*
X153937200Y-74957100I0J-62500D01*
G01*
X153937200Y-75082100D01*
G75*
G02*
X153874700Y-75144600I-62500J0D01*
G01*
X153174700Y-75144600D01*
G75*
G02*
X153112200Y-75082100I0J62500D01*
G01*
X153112200Y-74957100D01*
G75*
G02*
X153174700Y-74894600I62500J0D01*
G01*
G37*
%TD.AperFunction*%
%TO.P,U2,21,TXD*%
%TO.N,TXD*%
%TA.AperFunction,SMDPad,CuDef*%
G36*
G01*
X153174700Y-74394600D02*
X153874700Y-74394600D01*
G75*
G02*
X153937200Y-74457100I0J-62500D01*
G01*
X153937200Y-74582100D01*
G75*
G02*
X153874700Y-74644600I-62500J0D01*
G01*
X153174700Y-74644600D01*
G75*
G02*
X153112200Y-74582100I0J62500D01*
G01*
X153112200Y-74457100D01*
G75*
G02*
X153174700Y-74394600I62500J0D01*
G01*
G37*
%TD.AperFunction*%
%TO.P,U2,22,DSR*%
%TO.N,N/C*%
%TA.AperFunction,SMDPad,CuDef*%
G36*
G01*
X153174700Y-73894600D02*
X153874700Y-73894600D01*
G75*
G02*
X153937200Y-73957100I0J-62500D01*
G01*
X153937200Y-74082100D01*
G75*
G02*
X153874700Y-74144600I-62500J0D01*
G01*
X153174700Y-74144600D01*
G75*
G02*
X153112200Y-74082100I0J62500D01*
G01*
X153112200Y-73957100D01*
G75*
G02*
X153174700Y-73894600I62500J0D01*
G01*
G37*
%TD.AperFunction*%
%TO.P,U2,23,DTR*%
%TA.AperFunction,SMDPad,CuDef*%
G36*
G01*
X153174700Y-73394600D02*
X153874700Y-73394600D01*
G75*
G02*
X153937200Y-73457100I0J-62500D01*
G01*
X153937200Y-73582100D01*
G75*
G02*
X153874700Y-73644600I-62500J0D01*
G01*
X153174700Y-73644600D01*
G75*
G02*
X153112200Y-73582100I0J62500D01*
G01*
X153112200Y-73457100D01*
G75*
G02*
X153174700Y-73394600I62500J0D01*
G01*
G37*
%TD.AperFunction*%
%TO.P,U2,24,DCD*%
%TA.AperFunction,SMDPad,CuDef*%
G36*
G01*
X153174700Y-72894600D02*
X153874700Y-72894600D01*
G75*
G02*
X153937200Y-72957100I0J-62500D01*
G01*
X153937200Y-73082100D01*
G75*
G02*
X153874700Y-73144600I-62500J0D01*
G01*
X153174700Y-73144600D01*
G75*
G02*
X153112200Y-73082100I0J62500D01*
G01*
X153112200Y-72957100D01*
G75*
G02*
X153174700Y-72894600I62500J0D01*
G01*
G37*
%TD.AperFunction*%
D23*
%TO.P,U2,25,GND*%
%TO.N,GND*%
X151587200Y-74269600D03*
%TD*%
%TO.P,R18,1*%
%TO.N,FIN_GREEN*%
%TA.AperFunction,SMDPad,CuDef*%
G36*
G01*
X195834950Y-99768600D02*
X196747450Y-99768600D01*
G75*
G02*
X196991200Y-100012350I0J-243750D01*
G01*
X196991200Y-100499850D01*
G75*
G02*
X196747450Y-100743600I-243750J0D01*
G01*
X195834950Y-100743600D01*
G75*
G02*
X195591200Y-100499850I0J243750D01*
G01*
X195591200Y-100012350D01*
G75*
G02*
X195834950Y-99768600I243750J0D01*
G01*
G37*
%TD.AperFunction*%
%TO.P,R18,2*%
%TO.N,GND*%
%TA.AperFunction,SMDPad,CuDef*%
G36*
G01*
X195834950Y-101643600D02*
X196747450Y-101643600D01*
G75*
G02*
X196991200Y-101887350I0J-243750D01*
G01*
X196991200Y-102374850D01*
G75*
G02*
X196747450Y-102618600I-243750J0D01*
G01*
X195834950Y-102618600D01*
G75*
G02*
X195591200Y-102374850I0J243750D01*
G01*
X195591200Y-101887350D01*
G75*
G02*
X195834950Y-101643600I243750J0D01*
G01*
G37*
%TD.AperFunction*%
%TD*%
%TO.P,R1,1*%
%TO.N,+5V*%
%TA.AperFunction,SMDPad,CuDef*%
G36*
G01*
X179869450Y-79797000D02*
X178956950Y-79797000D01*
G75*
G02*
X178713200Y-79553250I0J243750D01*
G01*
X178713200Y-79065750D01*
G75*
G02*
X178956950Y-78822000I243750J0D01*
G01*
X179869450Y-78822000D01*
G75*
G02*
X180113200Y-79065750I0J-243750D01*
G01*
X180113200Y-79553250D01*
G75*
G02*
X179869450Y-79797000I-243750J0D01*
G01*
G37*
%TD.AperFunction*%
%TO.P,R1,2*%
%TO.N,Net-(D3-Pad2)*%
%TA.AperFunction,SMDPad,CuDef*%
G36*
G01*
X179869450Y-77922000D02*
X178956950Y-77922000D01*
G75*
G02*
X178713200Y-77678250I0J243750D01*
G01*
X178713200Y-77190750D01*
G75*
G02*
X178956950Y-76947000I243750J0D01*
G01*
X179869450Y-76947000D01*
G75*
G02*
X180113200Y-77190750I0J-243750D01*
G01*
X180113200Y-77678250D01*
G75*
G02*
X179869450Y-77922000I-243750J0D01*
G01*
G37*
%TD.AperFunction*%
%TD*%
D24*
%TO.P,U1,1,PD3*%
%TO.N,DATA*%
X169321200Y-83344400D03*
%TO.P,U1,2,PD4*%
%TO.N,PD4*%
X169321200Y-84144400D03*
%TO.P,U1,3,GND*%
%TO.N,GND*%
X169321200Y-84944400D03*
%TO.P,U1,4,VCC*%
%TO.N,+5V*%
X169321200Y-85744400D03*
%TO.P,U1,5,GND*%
%TO.N,GND*%
X169321200Y-86544400D03*
%TO.P,U1,6,VCC*%
%TO.N,+5V*%
X169321200Y-87344400D03*
%TO.P,U1,7,XTAL1/PB6*%
%TO.N,Net-(U1-Pad7)*%
X169321200Y-88144400D03*
%TO.P,U1,8,XTAL2/PB7*%
%TO.N,Net-(U1-Pad8)*%
X169321200Y-88944400D03*
D25*
%TO.P,U1,9,PD5*%
%TO.N,Net-(R15-Pad1)*%
X170771200Y-90394400D03*
%TO.P,U1,10,PD6*%
%TO.N,Net-(R16-Pad1)*%
X171571200Y-90394400D03*
%TO.P,U1,11,PD7*%
%TO.N,Net-(R17-Pad1)*%
X172371200Y-90394400D03*
%TO.P,U1,12,PB0*%
%TO.N,Net-(R9-Pad1)*%
X173171200Y-90394400D03*
%TO.P,U1,13,PB1*%
%TO.N,Net-(R10-Pad1)*%
X173971200Y-90394400D03*
%TO.P,U1,14,PB2*%
%TO.N,Net-(R11-Pad1)*%
X174771200Y-90394400D03*
%TO.P,U1,15,PB3*%
%TO.N,MOSI*%
X175571200Y-90394400D03*
%TO.P,U1,16,PB4*%
%TO.N,MISO*%
X176371200Y-90394400D03*
D24*
%TO.P,U1,17,PB5*%
%TO.N,SCK*%
X177821200Y-88944400D03*
%TO.P,U1,18,AVCC*%
%TO.N,+5V*%
X177821200Y-88144400D03*
%TO.P,U1,19,ADC6*%
%TO.N,N/C*%
X177821200Y-87344400D03*
%TO.P,U1,20,AREF*%
%TO.N,Net-(C1-Pad2)*%
X177821200Y-86544400D03*
%TO.P,U1,21,GND*%
%TO.N,GND*%
X177821200Y-85744400D03*
%TO.P,U1,22,ADC7*%
%TO.N,N/C*%
X177821200Y-84944400D03*
%TO.P,U1,23,PC0*%
%TO.N,PC0*%
X177821200Y-84144400D03*
%TO.P,U1,24,PC1*%
%TO.N,PC1*%
X177821200Y-83344400D03*
D25*
%TO.P,U1,25,PC2*%
%TO.N,N/C*%
X176371200Y-81894400D03*
%TO.P,U1,26,PC3*%
X175571200Y-81894400D03*
%TO.P,U1,27,PC4*%
X174771200Y-81894400D03*
%TO.P,U1,28,PC5*%
X173971200Y-81894400D03*
%TO.P,U1,29,~RESET~/PC6*%
%TO.N,RST*%
X173171200Y-81894400D03*
%TO.P,U1,30,PD0*%
%TO.N,Net-(D3-Pad1)*%
X172371200Y-81894400D03*
%TO.P,U1,31,PD1*%
%TO.N,Net-(D4-Pad1)*%
X171571200Y-81894400D03*
%TO.P,U1,32,PD2*%
%TO.N,PD2*%
X170771200Y-81894400D03*
%TD*%
%TO.P,D11,1,A1*%
%TO.N,GND*%
%TA.AperFunction,SMDPad,CuDef*%
G36*
G01*
X140056250Y-101925000D02*
X139543750Y-101925000D01*
G75*
G02*
X139325000Y-101706250I0J218750D01*
G01*
X139325000Y-101268750D01*
G75*
G02*
X139543750Y-101050000I218750J0D01*
G01*
X140056250Y-101050000D01*
G75*
G02*
X140275000Y-101268750I0J-218750D01*
G01*
X140275000Y-101706250D01*
G75*
G02*
X140056250Y-101925000I-218750J0D01*
G01*
G37*
%TD.AperFunction*%
%TO.P,D11,2,A2*%
%TO.N,DATA*%
%TA.AperFunction,SMDPad,CuDef*%
G36*
G01*
X140056250Y-100350000D02*
X139543750Y-100350000D01*
G75*
G02*
X139325000Y-100131250I0J218750D01*
G01*
X139325000Y-99693750D01*
G75*
G02*
X139543750Y-99475000I218750J0D01*
G01*
X140056250Y-99475000D01*
G75*
G02*
X140275000Y-99693750I0J-218750D01*
G01*
X140275000Y-100131250D01*
G75*
G02*
X140056250Y-100350000I-218750J0D01*
G01*
G37*
%TD.AperFunction*%
%TD*%
%TO.P,D8,1,A1*%
%TO.N,BIO_YELLOW*%
%TA.AperFunction,SMDPad,CuDef*%
G36*
G01*
X155145450Y-99243600D02*
X154632950Y-99243600D01*
G75*
G02*
X154414200Y-99024850I0J218750D01*
G01*
X154414200Y-98587350D01*
G75*
G02*
X154632950Y-98368600I218750J0D01*
G01*
X155145450Y-98368600D01*
G75*
G02*
X155364200Y-98587350I0J-218750D01*
G01*
X155364200Y-99024850D01*
G75*
G02*
X155145450Y-99243600I-218750J0D01*
G01*
G37*
%TD.AperFunction*%
%TO.P,D8,2,A2*%
%TO.N,GND*%
%TA.AperFunction,SMDPad,CuDef*%
G36*
G01*
X155145450Y-97668600D02*
X154632950Y-97668600D01*
G75*
G02*
X154414200Y-97449850I0J218750D01*
G01*
X154414200Y-97012350D01*
G75*
G02*
X154632950Y-96793600I218750J0D01*
G01*
X155145450Y-96793600D01*
G75*
G02*
X155364200Y-97012350I0J-218750D01*
G01*
X155364200Y-97449850D01*
G75*
G02*
X155145450Y-97668600I-218750J0D01*
G01*
G37*
%TD.AperFunction*%
%TD*%
D26*
%TO.N,GND*%
X138900000Y-78900000D03*
%TO.N,D+*%
X136600000Y-68500000D03*
X136600000Y-73600000D03*
%TO.N,GND*%
X167309800Y-95961200D03*
X197180200Y-103276400D03*
X168300400Y-103378000D03*
X178943000Y-103276400D03*
X149453600Y-95961200D03*
X192201800Y-103276400D03*
X191262000Y-96062800D03*
X150520400Y-103174800D03*
X159918400Y-95961200D03*
X196113400Y-96062800D03*
X155879800Y-103225600D03*
X186766200Y-103200200D03*
X142400000Y-98200000D03*
X185750200Y-96037400D03*
X182000000Y-84200000D03*
X154813000Y-95961200D03*
X139800000Y-102900000D03*
X141782800Y-73609200D03*
X173837600Y-103403400D03*
X159000000Y-88600000D03*
X167800000Y-86600000D03*
X160959800Y-103378000D03*
X167800000Y-85000000D03*
X152501600Y-70459600D03*
X172847000Y-95986600D03*
X159700000Y-77500000D03*
X178003200Y-96012000D03*
%TO.N,+5V*%
X148336000Y-73050400D03*
X166103600Y-81196400D03*
X166103600Y-85788800D03*
X148350000Y-81750000D03*
%TO.N,MISO*%
X193192400Y-95021400D03*
%TO.N,MOSI*%
X187782200Y-95046800D03*
%TO.N,PD2*%
X169400000Y-81400000D03*
X167400000Y-83400000D03*
%TO.N,PC1*%
X174800000Y-83400000D03*
%TO.N,PC0*%
X175900000Y-84100000D03*
%TD*%
D27*
%TO.N,FIN_GREEN*%
X194500000Y-101971100D02*
X194500000Y-110078000D01*
X196164200Y-100306900D02*
X194500000Y-101971100D01*
X194500000Y-110078000D02*
X196994800Y-112572800D01*
%TO.N,FIN_RED*%
X184000000Y-102082500D02*
X184000000Y-109578000D01*
X184000000Y-109578000D02*
X186994800Y-112572800D01*
X185775600Y-100306900D02*
X184000000Y-102082500D01*
%TO.N,FIN_YELLOW*%
X189500000Y-102018100D02*
X189500000Y-110078000D01*
X191211200Y-100306900D02*
X189500000Y-102018100D01*
X189500000Y-110078000D02*
X191994800Y-112572800D01*
%TO.N,FACH_GREEN*%
X176400000Y-101884700D02*
X176400000Y-110266000D01*
X177977800Y-100306900D02*
X176400000Y-101884700D01*
X176400000Y-110266000D02*
X178757600Y-112623600D01*
%TO.N,FACH_YELLOW*%
X171100000Y-102053900D02*
X171100000Y-109966000D01*
X171100000Y-109966000D02*
X173757600Y-112623600D01*
X172847000Y-100306900D02*
X171100000Y-102053900D01*
%TO.N,FACH_RED*%
X165700000Y-101942100D02*
X165700000Y-109566000D01*
X167335200Y-100306900D02*
X165700000Y-101942100D01*
X165700000Y-109566000D02*
X168757600Y-112623600D01*
%TO.N,BIO_GREEN*%
X158400000Y-101926800D02*
X158400000Y-110089200D01*
X159941400Y-100385400D02*
X158400000Y-101926800D01*
X158400000Y-110089200D02*
X160985200Y-112674400D01*
%TO.N,BIO_RED*%
X147900000Y-102063700D02*
X147900000Y-109589200D01*
X149555200Y-100408500D02*
X147900000Y-102063700D01*
X147900000Y-109589200D02*
X150985200Y-112674400D01*
%TO.N,BIO_YELLOW*%
X153300000Y-101946900D02*
X153300000Y-109989200D01*
X153300000Y-109989200D02*
X155985200Y-112674400D01*
X154838400Y-100408500D02*
X153300000Y-101946900D01*
%TO.N,VBUS*%
X136600000Y-77480000D02*
X136600000Y-81400000D01*
X136600000Y-81400000D02*
X136400000Y-81400000D01*
X136400000Y-81400000D02*
X124510800Y-81400000D01*
X139500000Y-81400000D02*
X136400000Y-81400000D01*
%TO.N,GND*%
X138800000Y-78800000D02*
X138900000Y-78900000D01*
X138800000Y-77300000D02*
X138800000Y-78800000D01*
D28*
%TO.N,D+*%
X136610400Y-69189600D02*
X150127400Y-69189600D01*
D27*
X136600000Y-75580000D02*
X136600000Y-73600000D01*
D28*
X129679000Y-69189600D02*
X136610400Y-69189600D01*
D27*
X136600000Y-68500000D02*
X136600000Y-69179200D01*
X136600000Y-69179200D02*
X136610400Y-69189600D01*
%TO.N,D-*%
X138800000Y-75580000D02*
X138800000Y-69800000D01*
D28*
X127600000Y-72000000D02*
X129900000Y-69700000D01*
X129900000Y-69700000D02*
X150001400Y-69700000D01*
X127600000Y-74090398D02*
X127600000Y-72000000D01*
X128010801Y-74501199D02*
X127600000Y-74090398D01*
X127010800Y-78181200D02*
X128010801Y-77181199D01*
X128010801Y-77181199D02*
X128010801Y-74501199D01*
X150001400Y-69700000D02*
X151337200Y-71035800D01*
X151337200Y-71035800D02*
X151337200Y-72332100D01*
D27*
%TO.N,Net-(C1-Pad2)*%
X179152800Y-86544400D02*
X180210700Y-87602300D01*
X177850700Y-86573900D02*
X177821200Y-86544400D01*
X177821200Y-86544400D02*
X179152800Y-86544400D01*
X180210700Y-87602300D02*
X181991000Y-87602300D01*
%TO.N,GND*%
X155879800Y-103225600D02*
X155879800Y-102311200D01*
X178996100Y-103223300D02*
X178943000Y-103276400D01*
D29*
X124100000Y-100937500D02*
X124100000Y-112267400D01*
D27*
X197157100Y-102181900D02*
X196164200Y-102181900D01*
X155907500Y-102283500D02*
X154838400Y-102283500D01*
X159943800Y-97210400D02*
X160017600Y-97284200D01*
X185750200Y-96037400D02*
X185750200Y-97104100D01*
X149453600Y-95961200D02*
X149453600Y-97332700D01*
D29*
X124100000Y-112267400D02*
X124151400Y-112318800D01*
D27*
X160064800Y-77425000D02*
X159775000Y-77425000D01*
X139800000Y-102900000D02*
X139800000Y-101487500D01*
X167335200Y-102181900D02*
X168353500Y-102181900D01*
X163693800Y-77425000D02*
X161868200Y-77425000D01*
X177821200Y-85744400D02*
X181973900Y-85744400D01*
X159943800Y-95935800D02*
X159943800Y-97210400D01*
X161868200Y-77425000D02*
X160064800Y-77425000D01*
X167309800Y-95961200D02*
X167309800Y-97129500D01*
X186768500Y-102181900D02*
X186768500Y-103197900D01*
X186768500Y-102181900D02*
X187782200Y-102181900D01*
X161036000Y-102260400D02*
X159941400Y-102260400D01*
X169265600Y-86600000D02*
X169321200Y-86544400D01*
X169265600Y-85000000D02*
X169321200Y-84944400D01*
X185775600Y-102181900D02*
X186768500Y-102181900D01*
X131894400Y-75471200D02*
X131780800Y-75471200D01*
X141782800Y-73609200D02*
X143430800Y-73609200D01*
X161922600Y-102260400D02*
X161036000Y-102260400D01*
X159775000Y-77425000D02*
X159700000Y-77500000D01*
X150520400Y-102311200D02*
X150522700Y-102308900D01*
X168353500Y-102181900D02*
X168353500Y-103324900D01*
X172847000Y-102181900D02*
X173814500Y-102181900D01*
X167800000Y-85000000D02*
X169265600Y-85000000D01*
X192229500Y-102181900D02*
X192229500Y-103248700D01*
X197157100Y-103253300D02*
X197180200Y-103276400D01*
X173814500Y-102181900D02*
X174828200Y-102181900D01*
X155879800Y-102311200D02*
X155907500Y-102283500D01*
X154813000Y-95961200D02*
X154813000Y-97154900D01*
X197157100Y-102181900D02*
X197157100Y-103253300D01*
X181991000Y-84209000D02*
X182000000Y-84200000D01*
X192229500Y-103248700D02*
X192201800Y-103276400D01*
X191262000Y-96062800D02*
X191262000Y-97154900D01*
X186768500Y-103197900D02*
X186766200Y-103200200D01*
X142400000Y-98200000D02*
X142400000Y-99662500D01*
X152337200Y-70624000D02*
X152337200Y-72332100D01*
X185750200Y-97104100D02*
X185801000Y-97154900D01*
X119269600Y-75000000D02*
X119740800Y-75471200D01*
X167309800Y-97129500D02*
X167360600Y-97180300D01*
X161036000Y-102260400D02*
X161036000Y-103301800D01*
X143430800Y-73609200D02*
X143463800Y-73576200D01*
X181991000Y-85727300D02*
X181991000Y-84209000D01*
X173814500Y-103380300D02*
X173837600Y-103403400D01*
X172847000Y-97154900D02*
X172872400Y-97180300D01*
X191211200Y-102181900D02*
X192229500Y-102181900D01*
X152337200Y-73519600D02*
X151587200Y-74269600D01*
X172847000Y-95986600D02*
X172847000Y-97154900D01*
X198247000Y-102181900D02*
X197157100Y-102181900D01*
X173814500Y-102181900D02*
X173814500Y-103380300D01*
X192229500Y-102181900D02*
X193192400Y-102181900D01*
X150520400Y-103174800D02*
X150520400Y-102311200D01*
X196113400Y-96062800D02*
X196113400Y-97154900D01*
X152337200Y-72332100D02*
X152337200Y-73519600D01*
X143545800Y-71294600D02*
X143545800Y-75917400D01*
X162900000Y-88600000D02*
X159000000Y-88600000D01*
X143545800Y-75917400D02*
X143495000Y-75968200D01*
X178996100Y-102181900D02*
X177977800Y-102181900D01*
X161036000Y-103301800D02*
X160959800Y-103378000D01*
X168353500Y-103324900D02*
X168300400Y-103378000D01*
X156819600Y-102283500D02*
X155907500Y-102283500D01*
X151511000Y-102308900D02*
X150522700Y-102308900D01*
X178996100Y-102181900D02*
X178996100Y-103223300D01*
X149580600Y-102308900D02*
X149555200Y-102283500D01*
X152501600Y-70459600D02*
X152337200Y-70624000D01*
X167800000Y-86600000D02*
X169265600Y-86600000D01*
X180009800Y-102181900D02*
X178996100Y-102181900D01*
X150522700Y-102308900D02*
X149580600Y-102308900D01*
X178003200Y-96012000D02*
X178003200Y-97180300D01*
X181973900Y-85744400D02*
X181991000Y-85727300D01*
X161036000Y-103606600D02*
X160982800Y-103659800D01*
X154813000Y-97154900D02*
X154889200Y-97231100D01*
X168353500Y-102181900D02*
X169291000Y-102181900D01*
X142300000Y-99662500D02*
X142400000Y-99762500D01*
%TO.N,CP2102_VDD*%
X143495000Y-80387800D02*
X144400000Y-79482800D01*
X150837200Y-72332100D02*
X150578300Y-72332100D01*
X144400000Y-74515000D02*
X145338800Y-73576200D01*
X150244200Y-71294600D02*
X150578300Y-71628700D01*
X145338800Y-73576200D02*
X145338800Y-71376600D01*
X150578300Y-71628700D02*
X150578300Y-72332100D01*
X144400000Y-79482800D02*
X144400000Y-74515000D01*
X145338800Y-71376600D02*
X145420800Y-71294600D01*
X150578300Y-72332100D02*
X150337200Y-72332100D01*
X145420800Y-71294600D02*
X150244200Y-71294600D01*
D29*
%TO.N,+5V*%
X119151400Y-112318800D02*
X119151400Y-114751400D01*
D27*
X169321200Y-85744400D02*
X170371200Y-85744400D01*
X177821200Y-88144400D02*
X176244400Y-88144400D01*
X149800000Y-80300000D02*
X148350000Y-81750000D01*
X160090200Y-79279200D02*
X150820800Y-79279200D01*
X118719600Y-111887000D02*
X119151400Y-112318800D01*
X166117401Y-85802601D02*
X169262999Y-85802601D01*
X148350000Y-81750000D02*
X132638800Y-97461200D01*
D29*
X132638800Y-97461200D02*
X150820800Y-79279200D01*
X119151400Y-114751400D02*
X121200000Y-116800000D01*
X131500000Y-116800000D02*
X132638800Y-115661200D01*
X119131250Y-112298650D02*
X119151400Y-112318800D01*
D27*
X170453200Y-87344400D02*
X169321200Y-87344400D01*
X170371200Y-85744400D02*
X170675600Y-86048800D01*
X170675600Y-86048800D02*
X170675600Y-87040000D01*
D29*
X121200000Y-116800000D02*
X131500000Y-116800000D01*
D27*
X161868200Y-79300000D02*
X163600000Y-79300000D01*
X179800000Y-88900000D02*
X179603400Y-88900000D01*
D29*
X166073300Y-79279200D02*
X166103600Y-79309500D01*
X132638800Y-112623600D02*
X132638800Y-97461200D01*
D27*
X178847800Y-88144400D02*
X177821200Y-88144400D01*
X184400000Y-88900000D02*
X183900000Y-88900000D01*
X182000000Y-79237500D02*
X184400000Y-81637500D01*
X160090200Y-79279200D02*
X161847400Y-79279200D01*
D29*
X119800000Y-101000000D02*
X121737500Y-99062500D01*
D27*
X170371200Y-87344400D02*
X169321200Y-87344400D01*
D29*
X166103600Y-79309500D02*
X166103600Y-81196400D01*
D27*
X170675600Y-87040000D02*
X170371200Y-87344400D01*
X179603400Y-88900000D02*
X178847800Y-88144400D01*
X166103600Y-85788800D02*
X166117401Y-85802601D01*
X177821200Y-88144400D02*
X178871200Y-88144400D01*
D29*
X150820800Y-79279200D02*
X166073300Y-79279200D01*
D27*
X169262999Y-85802601D02*
X169321200Y-85744400D01*
X149618900Y-73050400D02*
X149649700Y-73019600D01*
D29*
X132638800Y-115661200D02*
X132638800Y-112623600D01*
D27*
X148336000Y-73050400D02*
X149618900Y-73050400D01*
X166103600Y-79309500D02*
X163703300Y-79309500D01*
D29*
X121737500Y-99062500D02*
X124100000Y-99062500D01*
D27*
X183900000Y-88900000D02*
X179800000Y-88900000D01*
X171253200Y-88144400D02*
X170453200Y-87344400D01*
X190169800Y-88900000D02*
X184400000Y-88900000D01*
X184400000Y-81637500D02*
X184400000Y-88900000D01*
D29*
X119131250Y-101000000D02*
X119800000Y-101000000D01*
X119131250Y-101000000D02*
X119131250Y-112298650D01*
D27*
X150820800Y-79279200D02*
X149800000Y-80300000D01*
X161847400Y-79279200D02*
X161868200Y-79300000D01*
X176244400Y-88144400D02*
X171253200Y-88144400D01*
X181928000Y-79309500D02*
X182000000Y-79237500D01*
X163703300Y-79309500D02*
X163693800Y-79300000D01*
X179413200Y-79309500D02*
X181928000Y-79309500D01*
D28*
%TO.N,D+*%
X151837200Y-70899400D02*
X151837200Y-72332100D01*
X127010800Y-74981200D02*
X127010800Y-71857800D01*
X150127400Y-69189600D02*
X151837200Y-70899400D01*
X127010800Y-71857800D02*
X129679000Y-69189600D01*
D27*
%TO.N,Net-(D3-Pad2)*%
X176720800Y-77383700D02*
X179362400Y-77383700D01*
X179362400Y-77383700D02*
X179413200Y-77434500D01*
%TO.N,Net-(D3-Pad1)*%
X173977600Y-79258700D02*
X172371200Y-80865100D01*
X172402800Y-81862800D02*
X172371200Y-81894400D01*
X176720800Y-79258700D02*
X173977600Y-79258700D01*
X172371200Y-80865100D02*
X172371200Y-81894400D01*
%TO.N,Net-(D4-Pad2)*%
X166103600Y-77434500D02*
X168745200Y-77434500D01*
%TO.N,Net-(D4-Pad1)*%
X171894800Y-79309500D02*
X171945600Y-79258700D01*
X171945600Y-79258700D02*
X171571200Y-79633100D01*
X171571200Y-79633100D02*
X171571200Y-81894400D01*
X168745200Y-79309500D02*
X171894800Y-79309500D01*
%TO.N,FIN_GREEN*%
X196113400Y-98729900D02*
X198244600Y-98729900D01*
X196928500Y-112506500D02*
X196994800Y-112572800D01*
X196113400Y-100256100D02*
X196164200Y-100306900D01*
X196164200Y-100306900D02*
X198247000Y-100306900D01*
X196113400Y-98729900D02*
X196113400Y-100256100D01*
X196980850Y-111412050D02*
X197097950Y-111529150D01*
X198247000Y-98727500D02*
X198247000Y-100306900D01*
X198244600Y-98729900D02*
X198247000Y-98727500D01*
%TO.N,FIN_YELLOW*%
X191947050Y-111378250D02*
X192097950Y-111529150D01*
X193192400Y-100306900D02*
X191211200Y-100306900D01*
X191211200Y-100306900D02*
X191211200Y-98780700D01*
X193192400Y-98752900D02*
X193192400Y-100306900D01*
X193169400Y-98729900D02*
X193192400Y-98752900D01*
X191211200Y-98780700D02*
X191262000Y-98729900D01*
X191262000Y-98729900D02*
X193169400Y-98729900D01*
X191894700Y-112472700D02*
X191994800Y-112572800D01*
%TO.N,FIN_RED*%
X185775600Y-100306900D02*
X185775600Y-98755300D01*
X185775600Y-98755300D02*
X185801000Y-98729900D01*
X187782200Y-98752900D02*
X185824000Y-98752900D01*
X185824000Y-98752900D02*
X185801000Y-98729900D01*
X186509900Y-112087900D02*
X186994800Y-112572800D01*
X187782200Y-98752900D02*
X187782200Y-100306900D01*
X187782200Y-100306900D02*
X185775600Y-100306900D01*
%TO.N,BIO_GREEN*%
X160017600Y-100309200D02*
X159941400Y-100385400D01*
X161869500Y-98859200D02*
X161948000Y-98780700D01*
X160017600Y-98859200D02*
X161869500Y-98859200D01*
X161948000Y-100360000D02*
X161922600Y-100385400D01*
X161922600Y-100385400D02*
X159941400Y-100385400D01*
X160017600Y-98859200D02*
X160017600Y-100309200D01*
X161948000Y-98780700D02*
X161948000Y-100360000D01*
X159992200Y-100334600D02*
X159941400Y-100385400D01*
%TO.N,BIO_YELLOW*%
X156845000Y-100383100D02*
X156819600Y-100408500D01*
X156771200Y-98806100D02*
X156845000Y-98879900D01*
X154889200Y-98806100D02*
X154889200Y-100357700D01*
X154940000Y-100306900D02*
X154838400Y-100408500D01*
X156845000Y-98879900D02*
X156845000Y-100383100D01*
X155686500Y-111562900D02*
X155985200Y-111861600D01*
X154889200Y-98806100D02*
X156771200Y-98806100D01*
X156819600Y-100408500D02*
X154838400Y-100408500D01*
X154889200Y-100357700D02*
X154838400Y-100408500D01*
%TO.N,BIO_RED*%
X149555200Y-100408500D02*
X151485600Y-100408500D01*
X149580600Y-100383100D02*
X149555200Y-100408500D01*
X149453600Y-100306900D02*
X149555200Y-100408500D01*
X151356200Y-98907700D02*
X151561800Y-98702100D01*
X149453600Y-98907700D02*
X151356200Y-98907700D01*
X150787500Y-111663900D02*
X150985200Y-111861600D01*
X149453600Y-98907700D02*
X149453600Y-100306900D01*
X151561800Y-98702100D02*
X151561800Y-100383100D01*
X151561800Y-100383100D02*
X151511000Y-100433900D01*
X151485600Y-100408500D02*
X151511000Y-100433900D01*
%TO.N,FACH_GREEN*%
X178003200Y-98755300D02*
X178003200Y-100281500D01*
X178003200Y-100281500D02*
X177977800Y-100306900D01*
X180009800Y-98752900D02*
X180009800Y-100306900D01*
X179325000Y-112056200D02*
X178757600Y-112623600D01*
X180007400Y-98755300D02*
X180009800Y-98752900D01*
X178003200Y-98755300D02*
X180007400Y-98755300D01*
X180009800Y-100306900D02*
X177977800Y-100306900D01*
%TO.N,FACH_YELLOW*%
X174828200Y-99568000D02*
X174828200Y-98752900D01*
X174120300Y-112260900D02*
X173757600Y-112623600D01*
X174825800Y-98755300D02*
X174828200Y-98752900D01*
X172872400Y-98755300D02*
X174825800Y-98755300D01*
X174828200Y-100306900D02*
X172847000Y-100306900D01*
X172872400Y-100281500D02*
X172847000Y-100306900D01*
X172872400Y-98755300D02*
X172872400Y-100281500D01*
X174828200Y-100306900D02*
X174828200Y-99568000D01*
%TO.N,FACH_RED*%
X168247300Y-98722100D02*
X167581400Y-98722100D01*
X167581400Y-98722100D02*
X167411400Y-98552100D01*
X167360600Y-98755300D02*
X167360600Y-100281500D01*
X169291000Y-98752900D02*
X169291000Y-100306900D01*
X168426100Y-112292100D02*
X168757600Y-112623600D01*
X169392600Y-98722100D02*
X168247300Y-98722100D01*
X169291000Y-100306900D02*
X167335200Y-100306900D01*
X167360600Y-100281500D02*
X167335200Y-100306900D01*
%TO.N,DATA*%
X169321200Y-83344400D02*
X168076800Y-82100000D01*
X150500000Y-82100000D02*
X138712500Y-93887500D01*
X138712500Y-93887500D02*
X138712500Y-99912500D01*
X137730700Y-99912500D02*
X137515600Y-99697400D01*
X139800000Y-99912500D02*
X138712500Y-99912500D01*
X138712500Y-99912500D02*
X137730700Y-99912500D01*
X168076800Y-82100000D02*
X150500000Y-82100000D01*
%TO.N,RST*%
X190957200Y-80467200D02*
X192709800Y-82219800D01*
X182000000Y-77362500D02*
X187852500Y-77362500D01*
X173510000Y-80505600D02*
X177738369Y-80505600D01*
X173171200Y-81894400D02*
X173171200Y-80844400D01*
X173171200Y-80844400D02*
X173510000Y-80505600D01*
X178100000Y-80143969D02*
X178100000Y-79114262D01*
X178100000Y-79114262D02*
X178814262Y-78400000D01*
X187852500Y-77362500D02*
X190957200Y-80467200D01*
X177738369Y-80505600D02*
X178100000Y-80143969D01*
X181037500Y-77562500D02*
X182000000Y-77562500D01*
X192709800Y-82219800D02*
X192709800Y-83820000D01*
X178814262Y-78400000D02*
X180200000Y-78400000D01*
X180200000Y-78400000D02*
X181037500Y-77562500D01*
%TO.N,Net-(R6-Pad2)*%
X149188130Y-74019600D02*
X146761200Y-76446530D01*
X146761200Y-78996600D02*
X145370000Y-80387800D01*
X146761200Y-76446530D02*
X146761200Y-78996600D01*
X149649700Y-74019600D02*
X149188130Y-74019600D01*
%TO.N,VBUS_DET*%
X146491202Y-75968200D02*
X145370000Y-75968200D01*
X148939802Y-73519600D02*
X146491202Y-75968200D01*
X145370000Y-75968200D02*
X145370000Y-78203400D01*
X149649700Y-73519600D02*
X148939802Y-73519600D01*
%TO.N,Net-(R9-Pad1)*%
X173171200Y-94036800D02*
X172262800Y-94945200D01*
X170027600Y-94945200D02*
X172262800Y-94945200D01*
X169291000Y-95681800D02*
X170027600Y-94945200D01*
X173171200Y-90394400D02*
X173171200Y-94036800D01*
X169291000Y-96877900D02*
X169291000Y-95681800D01*
%TO.N,Net-(R10-Pad1)*%
X174828200Y-95046800D02*
X174828200Y-96877900D01*
X173971200Y-90394400D02*
X173971200Y-94189800D01*
X173971200Y-94189800D02*
X174828200Y-95046800D01*
%TO.N,Net-(R11-Pad1)*%
X174771200Y-90394400D02*
X174771200Y-93846800D01*
X179222400Y-94919800D02*
X180009800Y-95707200D01*
X175844200Y-94919800D02*
X179222400Y-94919800D01*
X180009800Y-95707200D02*
X180009800Y-96877900D01*
X174771200Y-93846800D02*
X175844200Y-94919800D01*
%TO.N,Net-(R15-Pad1)*%
X153321400Y-92322000D02*
X151561800Y-94081600D01*
X151561800Y-95453200D02*
X151561800Y-95262000D01*
X151561800Y-96827100D02*
X151561800Y-96215200D01*
X151561800Y-96215200D02*
X151561800Y-95453200D01*
X151561800Y-94081600D02*
X151561800Y-96215200D01*
X170771200Y-92322000D02*
X153321400Y-92322000D01*
X170771200Y-90394400D02*
X170771200Y-92322000D01*
%TO.N,Net-(R16-Pad1)*%
X156845000Y-97004900D02*
X156845000Y-95783400D01*
X156845000Y-94869000D02*
X156845000Y-97004900D01*
X158591800Y-93122200D02*
X156845000Y-94869000D01*
X171571200Y-93122200D02*
X158591800Y-93122200D01*
X171571200Y-90394400D02*
X171571200Y-93122200D01*
%TO.N,Net-(R17-Pad1)*%
X172371200Y-90394400D02*
X172371200Y-93580400D01*
X163118800Y-93776800D02*
X161948000Y-94947600D01*
X161948000Y-95989000D02*
X161948000Y-96905700D01*
X161948000Y-94947600D02*
X161948000Y-96905700D01*
X172174800Y-93776800D02*
X163118800Y-93776800D01*
X172371200Y-93580400D02*
X172174800Y-93776800D01*
%TO.N,MISO*%
X192049400Y-93878400D02*
X193192400Y-95021400D01*
X193192400Y-95021400D02*
X193192400Y-96877900D01*
X176371200Y-90394400D02*
X176371200Y-93364000D01*
X176885600Y-93878400D02*
X192049400Y-93878400D01*
X176371200Y-93364000D02*
X176885600Y-93878400D01*
%TO.N,SCK*%
X196291200Y-93345000D02*
X196745000Y-93345000D01*
X193522600Y-93345000D02*
X196342000Y-93345000D01*
X194894200Y-88544400D02*
X192709800Y-86360000D01*
X196291200Y-93345000D02*
X193522600Y-93345000D01*
X198247000Y-96852500D02*
X198200000Y-96805500D01*
X198247000Y-94847000D02*
X198247000Y-96852500D01*
X177821200Y-92266200D02*
X178900000Y-93345000D01*
X178900000Y-93345000D02*
X193522600Y-93345000D01*
X194894200Y-93294200D02*
X194894200Y-88544400D01*
X177821200Y-88944400D02*
X177821200Y-92266200D01*
X196745000Y-93345000D02*
X198247000Y-94847000D01*
%TO.N,MOSI*%
X187147200Y-94411800D02*
X187782200Y-95046800D01*
X187782200Y-95046800D02*
X187782200Y-96877900D01*
X176555400Y-94411800D02*
X187147200Y-94411800D01*
X175571200Y-90394400D02*
X175571200Y-93427600D01*
X175571200Y-93427600D02*
X176555400Y-94411800D01*
%TO.N,TXD*%
X164638800Y-74519600D02*
X173274800Y-74519600D01*
X153524700Y-74519600D02*
X164638800Y-74519600D01*
X173977600Y-75222400D02*
X173977600Y-77383700D01*
X173274800Y-74519600D02*
X173977600Y-75222400D01*
%TO.N,RXD*%
X153524700Y-75019600D02*
X163767200Y-75019600D01*
X171692000Y-75019600D02*
X171945600Y-75273200D01*
X163767200Y-75019600D02*
X171692000Y-75019600D01*
X171945600Y-75273200D02*
X171945600Y-77383700D01*
%TO.N,Net-(J7-Pad2)*%
X137591800Y-112576600D02*
X137638800Y-112623600D01*
X137515600Y-112500400D02*
X137638800Y-112623600D01*
X137515600Y-101572400D02*
X137515600Y-112500400D01*
D29*
%TO.N,VBUS*%
X124600000Y-78270400D02*
X124510800Y-78181200D01*
D27*
X139600000Y-81400000D02*
X139500000Y-81400000D01*
X143495000Y-78203400D02*
X140298400Y-81400000D01*
X124500000Y-96600000D02*
X123037500Y-96600000D01*
X140298400Y-81400000D02*
X139500000Y-81400000D01*
X124510800Y-81400000D02*
X124510800Y-78181200D01*
X124600000Y-96700000D02*
X124500000Y-96600000D01*
D29*
X124600000Y-96300000D02*
X124600000Y-78270400D01*
D27*
X119131250Y-96600000D02*
X123037500Y-96600000D01*
X119131250Y-96600000D02*
X120193750Y-96600000D01*
X124510800Y-78181200D02*
X124510800Y-78210800D01*
X143364800Y-78333600D02*
X143495000Y-78203400D01*
D29*
X124300000Y-96600000D02*
X124600000Y-96300000D01*
X119131250Y-96600000D02*
X124300000Y-96600000D01*
D27*
%TO.N,Net-(U1-Pad8)*%
X169321200Y-88944400D02*
X165555600Y-88944400D01*
X164700000Y-89800000D02*
X165555600Y-88944400D01*
X162900000Y-89800000D02*
X164700000Y-89800000D01*
%TO.N,Net-(U1-Pad7)*%
X164611200Y-87400000D02*
X165355600Y-88144400D01*
X169321200Y-88144400D02*
X165355600Y-88144400D01*
X162900000Y-87400000D02*
X164611200Y-87400000D01*
%TO.N,Net-(F1-Pad2)*%
X142400000Y-112384800D02*
X142638800Y-112623600D01*
X142400000Y-101637500D02*
X142400000Y-106700000D01*
X142400000Y-106700000D02*
X142400000Y-112384800D01*
%TO.N,PD4*%
X159640000Y-86760000D02*
X154200000Y-86760000D01*
X169321200Y-84144400D02*
X162255600Y-84144400D01*
X162255600Y-84144400D02*
X159640000Y-86760000D01*
%TO.N,PD2*%
X151660000Y-86760000D02*
X152835001Y-85584999D01*
X155384999Y-85584999D02*
X156100000Y-86300000D01*
X156100000Y-86300000D02*
X159400000Y-86300000D01*
X152835001Y-85584999D02*
X155384999Y-85584999D01*
X169894400Y-81894400D02*
X169400000Y-81400000D01*
X170771200Y-81894400D02*
X169894400Y-81894400D01*
X162300000Y-83400000D02*
X167400000Y-83400000D01*
X159400000Y-86300000D02*
X162300000Y-83400000D01*
%TO.N,PC1*%
X177876800Y-83400000D02*
X177821200Y-83344400D01*
X177821200Y-83344400D02*
X174855600Y-83344400D01*
X174855600Y-83344400D02*
X174800000Y-83400000D01*
%TO.N,PC0*%
X177776800Y-84100000D02*
X177821200Y-84144400D01*
X175900000Y-84100000D02*
X177776800Y-84100000D01*
%TD*%
M02*
