M48
; DRILL file {KiCad 5.99.0-unknown-a0c54951d~102~ubuntu18.04.1} date Mon Aug 17 14:09:00 2020
; FORMAT={-:-/ absolute / inch / decimal}
; #@! TF.CreationDate,2020-08-17T14:09:00+02:00
; #@! TF.GenerationSoftware,Kicad,Pcbnew,5.99.0-unknown-a0c54951d~102~ubuntu18.04.1
; #@! TF.FileFunction,Plated,1,2,PTH
FMAT,2
INCH
T1C0.0157
T2C0.0197
T3C0.0362
T4C0.0394
T5C0.0512
T6C0.0906
T7C0.1260
%
G90
G05
T1
X5.378Y-2.6969
X5.378Y-2.8976
X5.4685Y-3.1063
X5.5039Y-4.0512
X5.582Y-2.898
X5.6063Y-3.8661
X5.84Y-2.876
X5.8406Y-3.2185
X5.884Y-3.778
X5.926Y-4.062
X6.004Y-2.774
X6.095Y-3.778
X6.137Y-4.064
X6.2598Y-3.4882
X6.2874Y-3.0512
X6.296Y-3.778
X6.337Y-4.07
X6.5395Y-3.1967
X6.5395Y-3.3775
X6.587Y-3.778
X6.5906Y-3.2835
X6.6063Y-3.3465
X6.6063Y-3.4094
X6.626Y-4.07
X6.6693Y-3.2047
X6.805Y-3.779
X6.844Y-4.071
X6.8819Y-3.2835
X6.9252Y-3.311
X7.008Y-3.78
X7.045Y-4.066
X7.1654Y-3.315
X7.313Y-3.781
X7.353Y-4.063
X7.393Y-3.742
X7.53Y-3.782
X7.567Y-4.066
X7.606Y-3.741
X7.721Y-3.782
X7.763Y-4.066
T2
X7.9764Y-4.3386
X8.0041Y-4.2718
X8.0041Y-4.4054
X8.0709Y-4.2441
X8.0709Y-4.4331
X8.1377Y-4.2718
X8.1377Y-4.4054
X8.1654Y-4.3386
X4.2756Y-4.3386
X4.3033Y-4.2718
X4.3033Y-4.4054
X4.3701Y-4.2441
X4.3701Y-4.4331
X4.4369Y-4.2718
X4.4369Y-4.4054
X4.4646Y-4.3386
X4.2756Y-2.9528
X4.3033Y-2.8859
X4.3033Y-3.0196
X4.3701Y-2.8583
X4.3701Y-3.0472
X4.4369Y-2.8859
X4.4369Y-3.0196
X4.4646Y-2.9528
X7.9764Y-2.9528
X8.0041Y-2.8859
X8.0041Y-3.0196
X8.0709Y-2.8583
X8.0709Y-3.0472
X8.1377Y-2.8859
X8.1377Y-3.0196
X8.1654Y-2.9528
T3
X4.902Y-2.952
X4.902Y-3.078
X5.0004Y-2.952
X5.0004Y-3.078
T4
X7.487Y-3.3146
X7.487Y-3.4146
X7.487Y-3.5146
X7.587Y-3.3146
X7.587Y-3.4146
X7.587Y-3.5146
X5.9709Y-3.3157
X5.9709Y-3.4157
X5.9709Y-3.5157
X6.0709Y-3.3157
X6.0709Y-3.4157
X6.0709Y-3.5157
T5
X5.9443Y-4.436
X6.1411Y-4.436
X6.338Y-4.436
X4.691Y-4.422
X4.8879Y-4.422
X6.644Y-4.434
X6.8409Y-4.434
X7.0377Y-4.434
X7.362Y-4.432
X7.5589Y-4.432
X7.7557Y-4.432
X5.222Y-4.434
X5.4189Y-4.434
X5.6157Y-4.434
T6
X4.7142Y-2.9713
X5.1882Y-2.9713
T7
X8.0709Y-4.3386
X4.3701Y-4.3386
X4.3701Y-2.9528
X8.0709Y-2.9528
T0
M30
