%TF.GenerationSoftware,KiCad,Pcbnew,5.99.0-unknown-a0c54951d~102~ubuntu18.04.1*%
%TF.CreationDate,2020-08-17T14:08:57+02:00*%
%TF.ProjectId,AMPEL,414d5045-4c2e-46b6-9963-61645f706362,rev?*%
%TF.SameCoordinates,Original*%
%TF.FileFunction,Paste,Top*%
%TF.FilePolarity,Positive*%
%FSLAX46Y46*%
G04 Gerber Fmt 4.6, Leading zero omitted, Abs format (unit mm)*
G04 Created by KiCad (PCBNEW 5.99.0-unknown-a0c54951d~102~ubuntu18.04.1) date 2020-08-17 14:08:57*
%MOMM*%
%LPD*%
G01*
G04 APERTURE LIST*
%ADD10R,1.400000X1.200000*%
%ADD11R,1.400000X1.000000*%
%ADD12R,3.200000X0.400000*%
%ADD13R,2.100000X1.400000*%
%ADD14R,1.600000X0.550000*%
%ADD15R,0.550000X1.600000*%
G04 APERTURE END LIST*
%TO.C,C1*%
G36*
G01*
X181534750Y-85239800D02*
X182447250Y-85239800D01*
G75*
G02*
X182691000Y-85483550I0J-243750D01*
G01*
X182691000Y-85971050D01*
G75*
G02*
X182447250Y-86214800I-243750J0D01*
G01*
X181534750Y-86214800D01*
G75*
G02*
X181291000Y-85971050I0J243750D01*
G01*
X181291000Y-85483550D01*
G75*
G02*
X181534750Y-85239800I243750J0D01*
G01*
G37*
G36*
G01*
X181534750Y-87114800D02*
X182447250Y-87114800D01*
G75*
G02*
X182691000Y-87358550I0J-243750D01*
G01*
X182691000Y-87846050D01*
G75*
G02*
X182447250Y-88089800I-243750J0D01*
G01*
X181534750Y-88089800D01*
G75*
G02*
X181291000Y-87846050I0J243750D01*
G01*
X181291000Y-87358550D01*
G75*
G02*
X181534750Y-87114800I243750J0D01*
G01*
G37*
%TD*%
%TO.C,R24*%
G36*
G01*
X185319350Y-99819400D02*
X186231850Y-99819400D01*
G75*
G02*
X186475600Y-100063150I0J-243750D01*
G01*
X186475600Y-100550650D01*
G75*
G02*
X186231850Y-100794400I-243750J0D01*
G01*
X185319350Y-100794400D01*
G75*
G02*
X185075600Y-100550650I0J243750D01*
G01*
X185075600Y-100063150D01*
G75*
G02*
X185319350Y-99819400I243750J0D01*
G01*
G37*
G36*
G01*
X185319350Y-101694400D02*
X186231850Y-101694400D01*
G75*
G02*
X186475600Y-101938150I0J-243750D01*
G01*
X186475600Y-102425650D01*
G75*
G02*
X186231850Y-102669400I-243750J0D01*
G01*
X185319350Y-102669400D01*
G75*
G02*
X185075600Y-102425650I0J243750D01*
G01*
X185075600Y-101938150D01*
G75*
G02*
X185319350Y-101694400I243750J0D01*
G01*
G37*
%TD*%
%TO.C,C8*%
G36*
G01*
X161494150Y-99921000D02*
X162406650Y-99921000D01*
G75*
G02*
X162650400Y-100164750I0J-243750D01*
G01*
X162650400Y-100652250D01*
G75*
G02*
X162406650Y-100896000I-243750J0D01*
G01*
X161494150Y-100896000D01*
G75*
G02*
X161250400Y-100652250I0J243750D01*
G01*
X161250400Y-100164750D01*
G75*
G02*
X161494150Y-99921000I243750J0D01*
G01*
G37*
G36*
G01*
X161494150Y-101796000D02*
X162406650Y-101796000D01*
G75*
G02*
X162650400Y-102039750I0J-243750D01*
G01*
X162650400Y-102527250D01*
G75*
G02*
X162406650Y-102771000I-243750J0D01*
G01*
X161494150Y-102771000D01*
G75*
G02*
X161250400Y-102527250I0J243750D01*
G01*
X161250400Y-102039750D01*
G75*
G02*
X161494150Y-101796000I243750J0D01*
G01*
G37*
%TD*%
%TO.C,R28*%
G36*
G01*
X172390750Y-99819400D02*
X173303250Y-99819400D01*
G75*
G02*
X173547000Y-100063150I0J-243750D01*
G01*
X173547000Y-100550650D01*
G75*
G02*
X173303250Y-100794400I-243750J0D01*
G01*
X172390750Y-100794400D01*
G75*
G02*
X172147000Y-100550650I0J243750D01*
G01*
X172147000Y-100063150D01*
G75*
G02*
X172390750Y-99819400I243750J0D01*
G01*
G37*
G36*
G01*
X172390750Y-101694400D02*
X173303250Y-101694400D01*
G75*
G02*
X173547000Y-101938150I0J-243750D01*
G01*
X173547000Y-102425650D01*
G75*
G02*
X173303250Y-102669400I-243750J0D01*
G01*
X172390750Y-102669400D01*
G75*
G02*
X172147000Y-102425650I0J243750D01*
G01*
X172147000Y-101938150D01*
G75*
G02*
X172390750Y-101694400I243750J0D01*
G01*
G37*
%TD*%
%TO.C,R25*%
G36*
G01*
X137059350Y-99209900D02*
X137971850Y-99209900D01*
G75*
G02*
X138215600Y-99453650I0J-243750D01*
G01*
X138215600Y-99941150D01*
G75*
G02*
X137971850Y-100184900I-243750J0D01*
G01*
X137059350Y-100184900D01*
G75*
G02*
X136815600Y-99941150I0J243750D01*
G01*
X136815600Y-99453650D01*
G75*
G02*
X137059350Y-99209900I243750J0D01*
G01*
G37*
G36*
G01*
X137059350Y-101084900D02*
X137971850Y-101084900D01*
G75*
G02*
X138215600Y-101328650I0J-243750D01*
G01*
X138215600Y-101816150D01*
G75*
G02*
X137971850Y-102059900I-243750J0D01*
G01*
X137059350Y-102059900D01*
G75*
G02*
X136815600Y-101816150I0J243750D01*
G01*
X136815600Y-101328650D01*
G75*
G02*
X137059350Y-101084900I243750J0D01*
G01*
G37*
%TD*%
%TO.C,D13*%
G36*
G01*
X173128650Y-99192800D02*
X172616150Y-99192800D01*
G75*
G02*
X172397400Y-98974050I0J218750D01*
G01*
X172397400Y-98536550D01*
G75*
G02*
X172616150Y-98317800I218750J0D01*
G01*
X173128650Y-98317800D01*
G75*
G02*
X173347400Y-98536550I0J-218750D01*
G01*
X173347400Y-98974050D01*
G75*
G02*
X173128650Y-99192800I-218750J0D01*
G01*
G37*
G36*
G01*
X173128650Y-97617800D02*
X172616150Y-97617800D01*
G75*
G02*
X172397400Y-97399050I0J218750D01*
G01*
X172397400Y-96961550D01*
G75*
G02*
X172616150Y-96742800I218750J0D01*
G01*
X173128650Y-96742800D01*
G75*
G02*
X173347400Y-96961550I0J-218750D01*
G01*
X173347400Y-97399050D01*
G75*
G02*
X173128650Y-97617800I-218750J0D01*
G01*
G37*
%TD*%
%TO.C,C13*%
G36*
G01*
X151054750Y-99819400D02*
X151967250Y-99819400D01*
G75*
G02*
X152211000Y-100063150I0J-243750D01*
G01*
X152211000Y-100550650D01*
G75*
G02*
X151967250Y-100794400I-243750J0D01*
G01*
X151054750Y-100794400D01*
G75*
G02*
X150811000Y-100550650I0J243750D01*
G01*
X150811000Y-100063150D01*
G75*
G02*
X151054750Y-99819400I243750J0D01*
G01*
G37*
G36*
G01*
X151054750Y-101694400D02*
X151967250Y-101694400D01*
G75*
G02*
X152211000Y-101938150I0J-243750D01*
G01*
X152211000Y-102425650D01*
G75*
G02*
X151967250Y-102669400I-243750J0D01*
G01*
X151054750Y-102669400D01*
G75*
G02*
X150811000Y-102425650I0J243750D01*
G01*
X150811000Y-101938150D01*
G75*
G02*
X151054750Y-101694400I243750J0D01*
G01*
G37*
%TD*%
%TO.C,D3*%
G36*
G01*
X177177050Y-79746200D02*
X176264550Y-79746200D01*
G75*
G02*
X176020800Y-79502450I0J243750D01*
G01*
X176020800Y-79014950D01*
G75*
G02*
X176264550Y-78771200I243750J0D01*
G01*
X177177050Y-78771200D01*
G75*
G02*
X177420800Y-79014950I0J-243750D01*
G01*
X177420800Y-79502450D01*
G75*
G02*
X177177050Y-79746200I-243750J0D01*
G01*
G37*
G36*
G01*
X177177050Y-77871200D02*
X176264550Y-77871200D01*
G75*
G02*
X176020800Y-77627450I0J243750D01*
G01*
X176020800Y-77139950D01*
G75*
G02*
X176264550Y-76896200I243750J0D01*
G01*
X177177050Y-76896200D01*
G75*
G02*
X177420800Y-77139950I0J-243750D01*
G01*
X177420800Y-77627450D01*
G75*
G02*
X177177050Y-77871200I-243750J0D01*
G01*
G37*
%TD*%
%TO.C,RV1*%
G36*
G01*
X123643750Y-98575000D02*
X124556250Y-98575000D01*
G75*
G02*
X124800000Y-98818750I0J-243750D01*
G01*
X124800000Y-99306250D01*
G75*
G02*
X124556250Y-99550000I-243750J0D01*
G01*
X123643750Y-99550000D01*
G75*
G02*
X123400000Y-99306250I0J243750D01*
G01*
X123400000Y-98818750D01*
G75*
G02*
X123643750Y-98575000I243750J0D01*
G01*
G37*
G36*
G01*
X123643750Y-100450000D02*
X124556250Y-100450000D01*
G75*
G02*
X124800000Y-100693750I0J-243750D01*
G01*
X124800000Y-101181250D01*
G75*
G02*
X124556250Y-101425000I-243750J0D01*
G01*
X123643750Y-101425000D01*
G75*
G02*
X123400000Y-101181250I0J243750D01*
G01*
X123400000Y-100693750D01*
G75*
G02*
X123643750Y-100450000I243750J0D01*
G01*
G37*
%TD*%
%TO.C,R26*%
G36*
G01*
X149098950Y-99819400D02*
X150011450Y-99819400D01*
G75*
G02*
X150255200Y-100063150I0J-243750D01*
G01*
X150255200Y-100550650D01*
G75*
G02*
X150011450Y-100794400I-243750J0D01*
G01*
X149098950Y-100794400D01*
G75*
G02*
X148855200Y-100550650I0J243750D01*
G01*
X148855200Y-100063150D01*
G75*
G02*
X149098950Y-99819400I243750J0D01*
G01*
G37*
G36*
G01*
X149098950Y-101694400D02*
X150011450Y-101694400D01*
G75*
G02*
X150255200Y-101938150I0J-243750D01*
G01*
X150255200Y-102425650D01*
G75*
G02*
X150011450Y-102669400I-243750J0D01*
G01*
X149098950Y-102669400D01*
G75*
G02*
X148855200Y-102425650I0J243750D01*
G01*
X148855200Y-101938150D01*
G75*
G02*
X149098950Y-101694400I243750J0D01*
G01*
G37*
%TD*%
%TO.C,C2*%
G36*
G01*
X145908300Y-70838350D02*
X145908300Y-71750850D01*
G75*
G02*
X145664550Y-71994600I-243750J0D01*
G01*
X145177050Y-71994600D01*
G75*
G02*
X144933300Y-71750850I0J243750D01*
G01*
X144933300Y-70838350D01*
G75*
G02*
X145177050Y-70594600I243750J0D01*
G01*
X145664550Y-70594600D01*
G75*
G02*
X145908300Y-70838350I0J-243750D01*
G01*
G37*
G36*
G01*
X144033300Y-70838350D02*
X144033300Y-71750850D01*
G75*
G02*
X143789550Y-71994600I-243750J0D01*
G01*
X143302050Y-71994600D01*
G75*
G02*
X143058300Y-71750850I0J243750D01*
G01*
X143058300Y-70838350D01*
G75*
G02*
X143302050Y-70594600I243750J0D01*
G01*
X143789550Y-70594600D01*
G75*
G02*
X144033300Y-70838350I0J-243750D01*
G01*
G37*
%TD*%
%TO.C,R16*%
G36*
G01*
X156343750Y-96375000D02*
X157256250Y-96375000D01*
G75*
G02*
X157500000Y-96618750I0J-243750D01*
G01*
X157500000Y-97106250D01*
G75*
G02*
X157256250Y-97350000I-243750J0D01*
G01*
X156343750Y-97350000D01*
G75*
G02*
X156100000Y-97106250I0J243750D01*
G01*
X156100000Y-96618750D01*
G75*
G02*
X156343750Y-96375000I243750J0D01*
G01*
G37*
G36*
G01*
X156343750Y-98250000D02*
X157256250Y-98250000D01*
G75*
G02*
X157500000Y-98493750I0J-243750D01*
G01*
X157500000Y-98981250D01*
G75*
G02*
X157256250Y-99225000I-243750J0D01*
G01*
X156343750Y-99225000D01*
G75*
G02*
X156100000Y-98981250I0J243750D01*
G01*
X156100000Y-98493750D01*
G75*
G02*
X156343750Y-98250000I243750J0D01*
G01*
G37*
%TD*%
%TO.C,D5*%
G36*
G01*
X196369650Y-99167400D02*
X195857150Y-99167400D01*
G75*
G02*
X195638400Y-98948650I0J218750D01*
G01*
X195638400Y-98511150D01*
G75*
G02*
X195857150Y-98292400I218750J0D01*
G01*
X196369650Y-98292400D01*
G75*
G02*
X196588400Y-98511150I0J-218750D01*
G01*
X196588400Y-98948650D01*
G75*
G02*
X196369650Y-99167400I-218750J0D01*
G01*
G37*
G36*
G01*
X196369650Y-97592400D02*
X195857150Y-97592400D01*
G75*
G02*
X195638400Y-97373650I0J218750D01*
G01*
X195638400Y-96936150D01*
G75*
G02*
X195857150Y-96717400I218750J0D01*
G01*
X196369650Y-96717400D01*
G75*
G02*
X196588400Y-96936150I0J-218750D01*
G01*
X196588400Y-97373650D01*
G75*
G02*
X196369650Y-97592400I-218750J0D01*
G01*
G37*
%TD*%
%TO.C,R23*%
G36*
G01*
X154382150Y-99819400D02*
X155294650Y-99819400D01*
G75*
G02*
X155538400Y-100063150I0J-243750D01*
G01*
X155538400Y-100550650D01*
G75*
G02*
X155294650Y-100794400I-243750J0D01*
G01*
X154382150Y-100794400D01*
G75*
G02*
X154138400Y-100550650I0J243750D01*
G01*
X154138400Y-100063150D01*
G75*
G02*
X154382150Y-99819400I243750J0D01*
G01*
G37*
G36*
G01*
X154382150Y-101694400D02*
X155294650Y-101694400D01*
G75*
G02*
X155538400Y-101938150I0J-243750D01*
G01*
X155538400Y-102425650D01*
G75*
G02*
X155294650Y-102669400I-243750J0D01*
G01*
X154382150Y-102669400D01*
G75*
G02*
X154138400Y-102425650I0J243750D01*
G01*
X154138400Y-101938150D01*
G75*
G02*
X154382150Y-101694400I243750J0D01*
G01*
G37*
%TD*%
%TO.C,R21*%
G36*
G01*
X190754950Y-99819400D02*
X191667450Y-99819400D01*
G75*
G02*
X191911200Y-100063150I0J-243750D01*
G01*
X191911200Y-100550650D01*
G75*
G02*
X191667450Y-100794400I-243750J0D01*
G01*
X190754950Y-100794400D01*
G75*
G02*
X190511200Y-100550650I0J243750D01*
G01*
X190511200Y-100063150D01*
G75*
G02*
X190754950Y-99819400I243750J0D01*
G01*
G37*
G36*
G01*
X190754950Y-101694400D02*
X191667450Y-101694400D01*
G75*
G02*
X191911200Y-101938150I0J-243750D01*
G01*
X191911200Y-102425650D01*
G75*
G02*
X191667450Y-102669400I-243750J0D01*
G01*
X190754950Y-102669400D01*
G75*
G02*
X190511200Y-102425650I0J243750D01*
G01*
X190511200Y-101938150D01*
G75*
G02*
X190754950Y-101694400I243750J0D01*
G01*
G37*
%TD*%
%TO.C,R27*%
G36*
G01*
X177521550Y-99819400D02*
X178434050Y-99819400D01*
G75*
G02*
X178677800Y-100063150I0J-243750D01*
G01*
X178677800Y-100550650D01*
G75*
G02*
X178434050Y-100794400I-243750J0D01*
G01*
X177521550Y-100794400D01*
G75*
G02*
X177277800Y-100550650I0J243750D01*
G01*
X177277800Y-100063150D01*
G75*
G02*
X177521550Y-99819400I243750J0D01*
G01*
G37*
G36*
G01*
X177521550Y-101694400D02*
X178434050Y-101694400D01*
G75*
G02*
X178677800Y-101938150I0J-243750D01*
G01*
X178677800Y-102425650D01*
G75*
G02*
X178434050Y-102669400I-243750J0D01*
G01*
X177521550Y-102669400D01*
G75*
G02*
X177277800Y-102425650I0J243750D01*
G01*
X177277800Y-101938150D01*
G75*
G02*
X177521550Y-101694400I243750J0D01*
G01*
G37*
%TD*%
%TO.C,R9*%
G36*
G01*
X168834750Y-96390400D02*
X169747250Y-96390400D01*
G75*
G02*
X169991000Y-96634150I0J-243750D01*
G01*
X169991000Y-97121650D01*
G75*
G02*
X169747250Y-97365400I-243750J0D01*
G01*
X168834750Y-97365400D01*
G75*
G02*
X168591000Y-97121650I0J243750D01*
G01*
X168591000Y-96634150D01*
G75*
G02*
X168834750Y-96390400I243750J0D01*
G01*
G37*
G36*
G01*
X168834750Y-98265400D02*
X169747250Y-98265400D01*
G75*
G02*
X169991000Y-98509150I0J-243750D01*
G01*
X169991000Y-98996650D01*
G75*
G02*
X169747250Y-99240400I-243750J0D01*
G01*
X168834750Y-99240400D01*
G75*
G02*
X168591000Y-98996650I0J243750D01*
G01*
X168591000Y-98509150D01*
G75*
G02*
X168834750Y-98265400I243750J0D01*
G01*
G37*
%TD*%
%TO.C,R6*%
G36*
G01*
X143007500Y-80844050D02*
X143007500Y-79931550D01*
G75*
G02*
X143251250Y-79687800I243750J0D01*
G01*
X143738750Y-79687800D01*
G75*
G02*
X143982500Y-79931550I0J-243750D01*
G01*
X143982500Y-80844050D01*
G75*
G02*
X143738750Y-81087800I-243750J0D01*
G01*
X143251250Y-81087800D01*
G75*
G02*
X143007500Y-80844050I0J243750D01*
G01*
G37*
G36*
G01*
X144882500Y-80844050D02*
X144882500Y-79931550D01*
G75*
G02*
X145126250Y-79687800I243750J0D01*
G01*
X145613750Y-79687800D01*
G75*
G02*
X145857500Y-79931550I0J-243750D01*
G01*
X145857500Y-80844050D01*
G75*
G02*
X145613750Y-81087800I-243750J0D01*
G01*
X145126250Y-81087800D01*
G75*
G02*
X144882500Y-80844050I0J243750D01*
G01*
G37*
%TD*%
%TO.C,R14*%
G36*
G01*
X197790750Y-96365000D02*
X198703250Y-96365000D01*
G75*
G02*
X198947000Y-96608750I0J-243750D01*
G01*
X198947000Y-97096250D01*
G75*
G02*
X198703250Y-97340000I-243750J0D01*
G01*
X197790750Y-97340000D01*
G75*
G02*
X197547000Y-97096250I0J243750D01*
G01*
X197547000Y-96608750D01*
G75*
G02*
X197790750Y-96365000I243750J0D01*
G01*
G37*
G36*
G01*
X197790750Y-98240000D02*
X198703250Y-98240000D01*
G75*
G02*
X198947000Y-98483750I0J-243750D01*
G01*
X198947000Y-98971250D01*
G75*
G02*
X198703250Y-99215000I-243750J0D01*
G01*
X197790750Y-99215000D01*
G75*
G02*
X197547000Y-98971250I0J243750D01*
G01*
X197547000Y-98483750D01*
G75*
G02*
X197790750Y-98240000I243750J0D01*
G01*
G37*
%TD*%
%TO.C,R13*%
G36*
G01*
X192736150Y-96390400D02*
X193648650Y-96390400D01*
G75*
G02*
X193892400Y-96634150I0J-243750D01*
G01*
X193892400Y-97121650D01*
G75*
G02*
X193648650Y-97365400I-243750J0D01*
G01*
X192736150Y-97365400D01*
G75*
G02*
X192492400Y-97121650I0J243750D01*
G01*
X192492400Y-96634150D01*
G75*
G02*
X192736150Y-96390400I243750J0D01*
G01*
G37*
G36*
G01*
X192736150Y-98265400D02*
X193648650Y-98265400D01*
G75*
G02*
X193892400Y-98509150I0J-243750D01*
G01*
X193892400Y-98996650D01*
G75*
G02*
X193648650Y-99240400I-243750J0D01*
G01*
X192736150Y-99240400D01*
G75*
G02*
X192492400Y-98996650I0J243750D01*
G01*
X192492400Y-98509150D01*
G75*
G02*
X192736150Y-98265400I243750J0D01*
G01*
G37*
%TD*%
%TO.C,D7*%
G36*
G01*
X191518250Y-99167400D02*
X191005750Y-99167400D01*
G75*
G02*
X190787000Y-98948650I0J218750D01*
G01*
X190787000Y-98511150D01*
G75*
G02*
X191005750Y-98292400I218750J0D01*
G01*
X191518250Y-98292400D01*
G75*
G02*
X191737000Y-98511150I0J-218750D01*
G01*
X191737000Y-98948650D01*
G75*
G02*
X191518250Y-99167400I-218750J0D01*
G01*
G37*
G36*
G01*
X191518250Y-97592400D02*
X191005750Y-97592400D01*
G75*
G02*
X190787000Y-97373650I0J218750D01*
G01*
X190787000Y-96936150D01*
G75*
G02*
X191005750Y-96717400I218750J0D01*
G01*
X191518250Y-96717400D01*
G75*
G02*
X191737000Y-96936150I0J-218750D01*
G01*
X191737000Y-97373650D01*
G75*
G02*
X191518250Y-97592400I-218750J0D01*
G01*
G37*
%TD*%
%TO.C,R15*%
G36*
G01*
X151105550Y-96339600D02*
X152018050Y-96339600D01*
G75*
G02*
X152261800Y-96583350I0J-243750D01*
G01*
X152261800Y-97070850D01*
G75*
G02*
X152018050Y-97314600I-243750J0D01*
G01*
X151105550Y-97314600D01*
G75*
G02*
X150861800Y-97070850I0J243750D01*
G01*
X150861800Y-96583350D01*
G75*
G02*
X151105550Y-96339600I243750J0D01*
G01*
G37*
G36*
G01*
X151105550Y-98214600D02*
X152018050Y-98214600D01*
G75*
G02*
X152261800Y-98458350I0J-243750D01*
G01*
X152261800Y-98945850D01*
G75*
G02*
X152018050Y-99189600I-243750J0D01*
G01*
X151105550Y-99189600D01*
G75*
G02*
X150861800Y-98945850I0J243750D01*
G01*
X150861800Y-98458350D01*
G75*
G02*
X151105550Y-98214600I243750J0D01*
G01*
G37*
%TD*%
%TO.C,R5*%
G36*
G01*
X182456250Y-79725000D02*
X181543750Y-79725000D01*
G75*
G02*
X181300000Y-79481250I0J243750D01*
G01*
X181300000Y-78993750D01*
G75*
G02*
X181543750Y-78750000I243750J0D01*
G01*
X182456250Y-78750000D01*
G75*
G02*
X182700000Y-78993750I0J-243750D01*
G01*
X182700000Y-79481250D01*
G75*
G02*
X182456250Y-79725000I-243750J0D01*
G01*
G37*
G36*
G01*
X182456250Y-77850000D02*
X181543750Y-77850000D01*
G75*
G02*
X181300000Y-77606250I0J243750D01*
G01*
X181300000Y-77118750D01*
G75*
G02*
X181543750Y-76875000I243750J0D01*
G01*
X182456250Y-76875000D01*
G75*
G02*
X182700000Y-77118750I0J-243750D01*
G01*
X182700000Y-77606250D01*
G75*
G02*
X182456250Y-77850000I-243750J0D01*
G01*
G37*
%TD*%
%TO.C,R11*%
G36*
G01*
X179553550Y-96390400D02*
X180466050Y-96390400D01*
G75*
G02*
X180709800Y-96634150I0J-243750D01*
G01*
X180709800Y-97121650D01*
G75*
G02*
X180466050Y-97365400I-243750J0D01*
G01*
X179553550Y-97365400D01*
G75*
G02*
X179309800Y-97121650I0J243750D01*
G01*
X179309800Y-96634150D01*
G75*
G02*
X179553550Y-96390400I243750J0D01*
G01*
G37*
G36*
G01*
X179553550Y-98265400D02*
X180466050Y-98265400D01*
G75*
G02*
X180709800Y-98509150I0J-243750D01*
G01*
X180709800Y-98996650D01*
G75*
G02*
X180466050Y-99240400I-243750J0D01*
G01*
X179553550Y-99240400D01*
G75*
G02*
X179309800Y-98996650I0J243750D01*
G01*
X179309800Y-98509150D01*
G75*
G02*
X179553550Y-98265400I243750J0D01*
G01*
G37*
%TD*%
%TO.C,C5*%
G36*
G01*
X161243750Y-76937500D02*
X162156250Y-76937500D01*
G75*
G02*
X162400000Y-77181250I0J-243750D01*
G01*
X162400000Y-77668750D01*
G75*
G02*
X162156250Y-77912500I-243750J0D01*
G01*
X161243750Y-77912500D01*
G75*
G02*
X161000000Y-77668750I0J243750D01*
G01*
X161000000Y-77181250D01*
G75*
G02*
X161243750Y-76937500I243750J0D01*
G01*
G37*
G36*
G01*
X161243750Y-78812500D02*
X162156250Y-78812500D01*
G75*
G02*
X162400000Y-79056250I0J-243750D01*
G01*
X162400000Y-79543750D01*
G75*
G02*
X162156250Y-79787500I-243750J0D01*
G01*
X161243750Y-79787500D01*
G75*
G02*
X161000000Y-79543750I0J243750D01*
G01*
X161000000Y-79056250D01*
G75*
G02*
X161243750Y-78812500I243750J0D01*
G01*
G37*
%TD*%
%TO.C,R20*%
G36*
G01*
X159512950Y-99921000D02*
X160425450Y-99921000D01*
G75*
G02*
X160669200Y-100164750I0J-243750D01*
G01*
X160669200Y-100652250D01*
G75*
G02*
X160425450Y-100896000I-243750J0D01*
G01*
X159512950Y-100896000D01*
G75*
G02*
X159269200Y-100652250I0J243750D01*
G01*
X159269200Y-100164750D01*
G75*
G02*
X159512950Y-99921000I243750J0D01*
G01*
G37*
G36*
G01*
X159512950Y-101796000D02*
X160425450Y-101796000D01*
G75*
G02*
X160669200Y-102039750I0J-243750D01*
G01*
X160669200Y-102527250D01*
G75*
G02*
X160425450Y-102771000I-243750J0D01*
G01*
X159512950Y-102771000D01*
G75*
G02*
X159269200Y-102527250I0J243750D01*
G01*
X159269200Y-102039750D01*
G75*
G02*
X159512950Y-101796000I243750J0D01*
G01*
G37*
%TD*%
%TO.C,R29*%
G36*
G01*
X166878950Y-99819400D02*
X167791450Y-99819400D01*
G75*
G02*
X168035200Y-100063150I0J-243750D01*
G01*
X168035200Y-100550650D01*
G75*
G02*
X167791450Y-100794400I-243750J0D01*
G01*
X166878950Y-100794400D01*
G75*
G02*
X166635200Y-100550650I0J243750D01*
G01*
X166635200Y-100063150D01*
G75*
G02*
X166878950Y-99819400I243750J0D01*
G01*
G37*
G36*
G01*
X166878950Y-101694400D02*
X167791450Y-101694400D01*
G75*
G02*
X168035200Y-101938150I0J-243750D01*
G01*
X168035200Y-102425650D01*
G75*
G02*
X167791450Y-102669400I-243750J0D01*
G01*
X166878950Y-102669400D01*
G75*
G02*
X166635200Y-102425650I0J243750D01*
G01*
X166635200Y-101938150D01*
G75*
G02*
X166878950Y-101694400I243750J0D01*
G01*
G37*
%TD*%
%TO.C,D9*%
G36*
G01*
X186057250Y-99167400D02*
X185544750Y-99167400D01*
G75*
G02*
X185326000Y-98948650I0J218750D01*
G01*
X185326000Y-98511150D01*
G75*
G02*
X185544750Y-98292400I218750J0D01*
G01*
X186057250Y-98292400D01*
G75*
G02*
X186276000Y-98511150I0J-218750D01*
G01*
X186276000Y-98948650D01*
G75*
G02*
X186057250Y-99167400I-218750J0D01*
G01*
G37*
G36*
G01*
X186057250Y-97592400D02*
X185544750Y-97592400D01*
G75*
G02*
X185326000Y-97373650I0J218750D01*
G01*
X185326000Y-96936150D01*
G75*
G02*
X185544750Y-96717400I218750J0D01*
G01*
X186057250Y-96717400D01*
G75*
G02*
X186276000Y-96936150I0J-218750D01*
G01*
X186276000Y-97373650D01*
G75*
G02*
X186057250Y-97592400I-218750J0D01*
G01*
G37*
%TD*%
%TO.C,D6*%
G36*
G01*
X160273850Y-99296700D02*
X159761350Y-99296700D01*
G75*
G02*
X159542600Y-99077950I0J218750D01*
G01*
X159542600Y-98640450D01*
G75*
G02*
X159761350Y-98421700I218750J0D01*
G01*
X160273850Y-98421700D01*
G75*
G02*
X160492600Y-98640450I0J-218750D01*
G01*
X160492600Y-99077950D01*
G75*
G02*
X160273850Y-99296700I-218750J0D01*
G01*
G37*
G36*
G01*
X160273850Y-97721700D02*
X159761350Y-97721700D01*
G75*
G02*
X159542600Y-97502950I0J218750D01*
G01*
X159542600Y-97065450D01*
G75*
G02*
X159761350Y-96846700I218750J0D01*
G01*
X160273850Y-96846700D01*
G75*
G02*
X160492600Y-97065450I0J-218750D01*
G01*
X160492600Y-97502950D01*
G75*
G02*
X160273850Y-97721700I-218750J0D01*
G01*
G37*
%TD*%
%TO.C,R8*%
G36*
G01*
X145857500Y-75511950D02*
X145857500Y-76424450D01*
G75*
G02*
X145613750Y-76668200I-243750J0D01*
G01*
X145126250Y-76668200D01*
G75*
G02*
X144882500Y-76424450I0J243750D01*
G01*
X144882500Y-75511950D01*
G75*
G02*
X145126250Y-75268200I243750J0D01*
G01*
X145613750Y-75268200D01*
G75*
G02*
X145857500Y-75511950I0J-243750D01*
G01*
G37*
G36*
G01*
X143982500Y-75511950D02*
X143982500Y-76424450D01*
G75*
G02*
X143738750Y-76668200I-243750J0D01*
G01*
X143251250Y-76668200D01*
G75*
G02*
X143007500Y-76424450I0J243750D01*
G01*
X143007500Y-75511950D01*
G75*
G02*
X143251250Y-75268200I243750J0D01*
G01*
X143738750Y-75268200D01*
G75*
G02*
X143982500Y-75511950I0J-243750D01*
G01*
G37*
%TD*%
%TO.C,R7*%
G36*
G01*
X143007500Y-78659650D02*
X143007500Y-77747150D01*
G75*
G02*
X143251250Y-77503400I243750J0D01*
G01*
X143738750Y-77503400D01*
G75*
G02*
X143982500Y-77747150I0J-243750D01*
G01*
X143982500Y-78659650D01*
G75*
G02*
X143738750Y-78903400I-243750J0D01*
G01*
X143251250Y-78903400D01*
G75*
G02*
X143007500Y-78659650I0J243750D01*
G01*
G37*
G36*
G01*
X144882500Y-78659650D02*
X144882500Y-77747150D01*
G75*
G02*
X145126250Y-77503400I243750J0D01*
G01*
X145613750Y-77503400D01*
G75*
G02*
X145857500Y-77747150I0J-243750D01*
G01*
X145857500Y-78659650D01*
G75*
G02*
X145613750Y-78903400I-243750J0D01*
G01*
X145126250Y-78903400D01*
G75*
G02*
X144882500Y-78659650I0J243750D01*
G01*
G37*
%TD*%
D10*
%TO.C,D1*%
X138800000Y-77300000D03*
D11*
X138800000Y-75580000D03*
X136600000Y-75580000D03*
X136600000Y-77480000D03*
%TD*%
D12*
%TO.C,Y1*%
X162900000Y-89800000D03*
X162900000Y-88600000D03*
X162900000Y-87400000D03*
%TD*%
%TO.C,R4*%
G36*
G01*
X172401850Y-79746200D02*
X171489350Y-79746200D01*
G75*
G02*
X171245600Y-79502450I0J243750D01*
G01*
X171245600Y-79014950D01*
G75*
G02*
X171489350Y-78771200I243750J0D01*
G01*
X172401850Y-78771200D01*
G75*
G02*
X172645600Y-79014950I0J-243750D01*
G01*
X172645600Y-79502450D01*
G75*
G02*
X172401850Y-79746200I-243750J0D01*
G01*
G37*
G36*
G01*
X172401850Y-77871200D02*
X171489350Y-77871200D01*
G75*
G02*
X171245600Y-77627450I0J243750D01*
G01*
X171245600Y-77139950D01*
G75*
G02*
X171489350Y-76896200I243750J0D01*
G01*
X172401850Y-76896200D01*
G75*
G02*
X172645600Y-77139950I0J-243750D01*
G01*
X172645600Y-77627450D01*
G75*
G02*
X172401850Y-77871200I-243750J0D01*
G01*
G37*
%TD*%
%TO.C,D10*%
G36*
G01*
X149709850Y-99225000D02*
X149197350Y-99225000D01*
G75*
G02*
X148978600Y-99006250I0J218750D01*
G01*
X148978600Y-98568750D01*
G75*
G02*
X149197350Y-98350000I218750J0D01*
G01*
X149709850Y-98350000D01*
G75*
G02*
X149928600Y-98568750I0J-218750D01*
G01*
X149928600Y-99006250D01*
G75*
G02*
X149709850Y-99225000I-218750J0D01*
G01*
G37*
G36*
G01*
X149709850Y-97650000D02*
X149197350Y-97650000D01*
G75*
G02*
X148978600Y-97431250I0J218750D01*
G01*
X148978600Y-96993750D01*
G75*
G02*
X149197350Y-96775000I218750J0D01*
G01*
X149709850Y-96775000D01*
G75*
G02*
X149928600Y-96993750I0J-218750D01*
G01*
X149928600Y-97431250D01*
G75*
G02*
X149709850Y-97650000I-218750J0D01*
G01*
G37*
%TD*%
%TO.C,C4*%
G36*
G01*
X145826300Y-73119950D02*
X145826300Y-74032450D01*
G75*
G02*
X145582550Y-74276200I-243750J0D01*
G01*
X145095050Y-74276200D01*
G75*
G02*
X144851300Y-74032450I0J243750D01*
G01*
X144851300Y-73119950D01*
G75*
G02*
X145095050Y-72876200I243750J0D01*
G01*
X145582550Y-72876200D01*
G75*
G02*
X145826300Y-73119950I0J-243750D01*
G01*
G37*
G36*
G01*
X143951300Y-73119950D02*
X143951300Y-74032450D01*
G75*
G02*
X143707550Y-74276200I-243750J0D01*
G01*
X143220050Y-74276200D01*
G75*
G02*
X142976300Y-74032450I0J243750D01*
G01*
X142976300Y-73119950D01*
G75*
G02*
X143220050Y-72876200I243750J0D01*
G01*
X143707550Y-72876200D01*
G75*
G02*
X143951300Y-73119950I0J-243750D01*
G01*
G37*
%TD*%
%TO.C,R3*%
G36*
G01*
X174433850Y-79746200D02*
X173521350Y-79746200D01*
G75*
G02*
X173277600Y-79502450I0J243750D01*
G01*
X173277600Y-79014950D01*
G75*
G02*
X173521350Y-78771200I243750J0D01*
G01*
X174433850Y-78771200D01*
G75*
G02*
X174677600Y-79014950I0J-243750D01*
G01*
X174677600Y-79502450D01*
G75*
G02*
X174433850Y-79746200I-243750J0D01*
G01*
G37*
G36*
G01*
X174433850Y-77871200D02*
X173521350Y-77871200D01*
G75*
G02*
X173277600Y-77627450I0J243750D01*
G01*
X173277600Y-77139950D01*
G75*
G02*
X173521350Y-76896200I243750J0D01*
G01*
X174433850Y-76896200D01*
G75*
G02*
X174677600Y-77139950I0J-243750D01*
G01*
X174677600Y-77627450D01*
G75*
G02*
X174433850Y-77871200I-243750J0D01*
G01*
G37*
%TD*%
%TO.C,D12*%
G36*
G01*
X178259450Y-99192800D02*
X177746950Y-99192800D01*
G75*
G02*
X177528200Y-98974050I0J218750D01*
G01*
X177528200Y-98536550D01*
G75*
G02*
X177746950Y-98317800I218750J0D01*
G01*
X178259450Y-98317800D01*
G75*
G02*
X178478200Y-98536550I0J-218750D01*
G01*
X178478200Y-98974050D01*
G75*
G02*
X178259450Y-99192800I-218750J0D01*
G01*
G37*
G36*
G01*
X178259450Y-97617800D02*
X177746950Y-97617800D01*
G75*
G02*
X177528200Y-97399050I0J218750D01*
G01*
X177528200Y-96961550D01*
G75*
G02*
X177746950Y-96742800I218750J0D01*
G01*
X178259450Y-96742800D01*
G75*
G02*
X178478200Y-96961550I0J-218750D01*
G01*
X178478200Y-97399050D01*
G75*
G02*
X178259450Y-97617800I-218750J0D01*
G01*
G37*
%TD*%
%TO.C,C14*%
G36*
G01*
X179553550Y-99819400D02*
X180466050Y-99819400D01*
G75*
G02*
X180709800Y-100063150I0J-243750D01*
G01*
X180709800Y-100550650D01*
G75*
G02*
X180466050Y-100794400I-243750J0D01*
G01*
X179553550Y-100794400D01*
G75*
G02*
X179309800Y-100550650I0J243750D01*
G01*
X179309800Y-100063150D01*
G75*
G02*
X179553550Y-99819400I243750J0D01*
G01*
G37*
G36*
G01*
X179553550Y-101694400D02*
X180466050Y-101694400D01*
G75*
G02*
X180709800Y-101938150I0J-243750D01*
G01*
X180709800Y-102425650D01*
G75*
G02*
X180466050Y-102669400I-243750J0D01*
G01*
X179553550Y-102669400D01*
G75*
G02*
X179309800Y-102425650I0J243750D01*
G01*
X179309800Y-101938150D01*
G75*
G02*
X179553550Y-101694400I243750J0D01*
G01*
G37*
%TD*%
%TO.C,C3*%
G36*
G01*
X164150050Y-79787500D02*
X163237550Y-79787500D01*
G75*
G02*
X162993800Y-79543750I0J243750D01*
G01*
X162993800Y-79056250D01*
G75*
G02*
X163237550Y-78812500I243750J0D01*
G01*
X164150050Y-78812500D01*
G75*
G02*
X164393800Y-79056250I0J-243750D01*
G01*
X164393800Y-79543750D01*
G75*
G02*
X164150050Y-79787500I-243750J0D01*
G01*
G37*
G36*
G01*
X164150050Y-77912500D02*
X163237550Y-77912500D01*
G75*
G02*
X162993800Y-77668750I0J243750D01*
G01*
X162993800Y-77181250D01*
G75*
G02*
X163237550Y-76937500I243750J0D01*
G01*
X164150050Y-76937500D01*
G75*
G02*
X164393800Y-77181250I0J-243750D01*
G01*
X164393800Y-77668750D01*
G75*
G02*
X164150050Y-77912500I-243750J0D01*
G01*
G37*
%TD*%
%TO.C,R2*%
G36*
G01*
X166559850Y-79797000D02*
X165647350Y-79797000D01*
G75*
G02*
X165403600Y-79553250I0J243750D01*
G01*
X165403600Y-79065750D01*
G75*
G02*
X165647350Y-78822000I243750J0D01*
G01*
X166559850Y-78822000D01*
G75*
G02*
X166803600Y-79065750I0J-243750D01*
G01*
X166803600Y-79553250D01*
G75*
G02*
X166559850Y-79797000I-243750J0D01*
G01*
G37*
G36*
G01*
X166559850Y-77922000D02*
X165647350Y-77922000D01*
G75*
G02*
X165403600Y-77678250I0J243750D01*
G01*
X165403600Y-77190750D01*
G75*
G02*
X165647350Y-76947000I243750J0D01*
G01*
X166559850Y-76947000D01*
G75*
G02*
X166803600Y-77190750I0J-243750D01*
G01*
X166803600Y-77678250D01*
G75*
G02*
X166559850Y-77922000I-243750J0D01*
G01*
G37*
%TD*%
%TO.C,R17*%
G36*
G01*
X161491750Y-96418200D02*
X162404250Y-96418200D01*
G75*
G02*
X162648000Y-96661950I0J-243750D01*
G01*
X162648000Y-97149450D01*
G75*
G02*
X162404250Y-97393200I-243750J0D01*
G01*
X161491750Y-97393200D01*
G75*
G02*
X161248000Y-97149450I0J243750D01*
G01*
X161248000Y-96661950D01*
G75*
G02*
X161491750Y-96418200I243750J0D01*
G01*
G37*
G36*
G01*
X161491750Y-98293200D02*
X162404250Y-98293200D01*
G75*
G02*
X162648000Y-98536950I0J-243750D01*
G01*
X162648000Y-99024450D01*
G75*
G02*
X162404250Y-99268200I-243750J0D01*
G01*
X161491750Y-99268200D01*
G75*
G02*
X161248000Y-99024450I0J243750D01*
G01*
X161248000Y-98536950D01*
G75*
G02*
X161491750Y-98293200I243750J0D01*
G01*
G37*
%TD*%
%TO.C,C15*%
G36*
G01*
X174371950Y-99819400D02*
X175284450Y-99819400D01*
G75*
G02*
X175528200Y-100063150I0J-243750D01*
G01*
X175528200Y-100550650D01*
G75*
G02*
X175284450Y-100794400I-243750J0D01*
G01*
X174371950Y-100794400D01*
G75*
G02*
X174128200Y-100550650I0J243750D01*
G01*
X174128200Y-100063150D01*
G75*
G02*
X174371950Y-99819400I243750J0D01*
G01*
G37*
G36*
G01*
X174371950Y-101694400D02*
X175284450Y-101694400D01*
G75*
G02*
X175528200Y-101938150I0J-243750D01*
G01*
X175528200Y-102425650D01*
G75*
G02*
X175284450Y-102669400I-243750J0D01*
G01*
X174371950Y-102669400D01*
G75*
G02*
X174128200Y-102425650I0J243750D01*
G01*
X174128200Y-101938150D01*
G75*
G02*
X174371950Y-101694400I243750J0D01*
G01*
G37*
%TD*%
%TO.C,C11*%
G36*
G01*
X187325950Y-99819400D02*
X188238450Y-99819400D01*
G75*
G02*
X188482200Y-100063150I0J-243750D01*
G01*
X188482200Y-100550650D01*
G75*
G02*
X188238450Y-100794400I-243750J0D01*
G01*
X187325950Y-100794400D01*
G75*
G02*
X187082200Y-100550650I0J243750D01*
G01*
X187082200Y-100063150D01*
G75*
G02*
X187325950Y-99819400I243750J0D01*
G01*
G37*
G36*
G01*
X187325950Y-101694400D02*
X188238450Y-101694400D01*
G75*
G02*
X188482200Y-101938150I0J-243750D01*
G01*
X188482200Y-102425650D01*
G75*
G02*
X188238450Y-102669400I-243750J0D01*
G01*
X187325950Y-102669400D01*
G75*
G02*
X187082200Y-102425650I0J243750D01*
G01*
X187082200Y-101938150D01*
G75*
G02*
X187325950Y-101694400I243750J0D01*
G01*
G37*
%TD*%
%TO.C,C9*%
G36*
G01*
X192736150Y-99819400D02*
X193648650Y-99819400D01*
G75*
G02*
X193892400Y-100063150I0J-243750D01*
G01*
X193892400Y-100550650D01*
G75*
G02*
X193648650Y-100794400I-243750J0D01*
G01*
X192736150Y-100794400D01*
G75*
G02*
X192492400Y-100550650I0J243750D01*
G01*
X192492400Y-100063150D01*
G75*
G02*
X192736150Y-99819400I243750J0D01*
G01*
G37*
G36*
G01*
X192736150Y-101694400D02*
X193648650Y-101694400D01*
G75*
G02*
X193892400Y-101938150I0J-243750D01*
G01*
X193892400Y-102425650D01*
G75*
G02*
X193648650Y-102669400I-243750J0D01*
G01*
X192736150Y-102669400D01*
G75*
G02*
X192492400Y-102425650I0J243750D01*
G01*
X192492400Y-101938150D01*
G75*
G02*
X192736150Y-101694400I243750J0D01*
G01*
G37*
%TD*%
%TO.C,F1*%
G36*
G01*
X141943750Y-99275000D02*
X142856250Y-99275000D01*
G75*
G02*
X143100000Y-99518750I0J-243750D01*
G01*
X143100000Y-100006250D01*
G75*
G02*
X142856250Y-100250000I-243750J0D01*
G01*
X141943750Y-100250000D01*
G75*
G02*
X141700000Y-100006250I0J243750D01*
G01*
X141700000Y-99518750D01*
G75*
G02*
X141943750Y-99275000I243750J0D01*
G01*
G37*
G36*
G01*
X141943750Y-101150000D02*
X142856250Y-101150000D01*
G75*
G02*
X143100000Y-101393750I0J-243750D01*
G01*
X143100000Y-101881250D01*
G75*
G02*
X142856250Y-102125000I-243750J0D01*
G01*
X141943750Y-102125000D01*
G75*
G02*
X141700000Y-101881250I0J243750D01*
G01*
X141700000Y-101393750D01*
G75*
G02*
X141943750Y-101150000I243750J0D01*
G01*
G37*
%TD*%
%TO.C,C7*%
G36*
G01*
X197790750Y-99794000D02*
X198703250Y-99794000D01*
G75*
G02*
X198947000Y-100037750I0J-243750D01*
G01*
X198947000Y-100525250D01*
G75*
G02*
X198703250Y-100769000I-243750J0D01*
G01*
X197790750Y-100769000D01*
G75*
G02*
X197547000Y-100525250I0J243750D01*
G01*
X197547000Y-100037750D01*
G75*
G02*
X197790750Y-99794000I243750J0D01*
G01*
G37*
G36*
G01*
X197790750Y-101669000D02*
X198703250Y-101669000D01*
G75*
G02*
X198947000Y-101912750I0J-243750D01*
G01*
X198947000Y-102400250D01*
G75*
G02*
X198703250Y-102644000I-243750J0D01*
G01*
X197790750Y-102644000D01*
G75*
G02*
X197547000Y-102400250I0J243750D01*
G01*
X197547000Y-101912750D01*
G75*
G02*
X197790750Y-101669000I243750J0D01*
G01*
G37*
%TD*%
%TO.C,R12*%
G36*
G01*
X187325950Y-96390400D02*
X188238450Y-96390400D01*
G75*
G02*
X188482200Y-96634150I0J-243750D01*
G01*
X188482200Y-97121650D01*
G75*
G02*
X188238450Y-97365400I-243750J0D01*
G01*
X187325950Y-97365400D01*
G75*
G02*
X187082200Y-97121650I0J243750D01*
G01*
X187082200Y-96634150D01*
G75*
G02*
X187325950Y-96390400I243750J0D01*
G01*
G37*
G36*
G01*
X187325950Y-98265400D02*
X188238450Y-98265400D01*
G75*
G02*
X188482200Y-98509150I0J-243750D01*
G01*
X188482200Y-98996650D01*
G75*
G02*
X188238450Y-99240400I-243750J0D01*
G01*
X187325950Y-99240400D01*
G75*
G02*
X187082200Y-98996650I0J243750D01*
G01*
X187082200Y-98509150D01*
G75*
G02*
X187325950Y-98265400I243750J0D01*
G01*
G37*
%TD*%
%TO.C,C16*%
G36*
G01*
X168834750Y-99819400D02*
X169747250Y-99819400D01*
G75*
G02*
X169991000Y-100063150I0J-243750D01*
G01*
X169991000Y-100550650D01*
G75*
G02*
X169747250Y-100794400I-243750J0D01*
G01*
X168834750Y-100794400D01*
G75*
G02*
X168591000Y-100550650I0J243750D01*
G01*
X168591000Y-100063150D01*
G75*
G02*
X168834750Y-99819400I243750J0D01*
G01*
G37*
G36*
G01*
X168834750Y-101694400D02*
X169747250Y-101694400D01*
G75*
G02*
X169991000Y-101938150I0J-243750D01*
G01*
X169991000Y-102425650D01*
G75*
G02*
X169747250Y-102669400I-243750J0D01*
G01*
X168834750Y-102669400D01*
G75*
G02*
X168591000Y-102425650I0J243750D01*
G01*
X168591000Y-101938150D01*
G75*
G02*
X168834750Y-101694400I243750J0D01*
G01*
G37*
%TD*%
%TO.C,D14*%
G36*
G01*
X167616850Y-99192800D02*
X167104350Y-99192800D01*
G75*
G02*
X166885600Y-98974050I0J218750D01*
G01*
X166885600Y-98536550D01*
G75*
G02*
X167104350Y-98317800I218750J0D01*
G01*
X167616850Y-98317800D01*
G75*
G02*
X167835600Y-98536550I0J-218750D01*
G01*
X167835600Y-98974050D01*
G75*
G02*
X167616850Y-99192800I-218750J0D01*
G01*
G37*
G36*
G01*
X167616850Y-97617800D02*
X167104350Y-97617800D01*
G75*
G02*
X166885600Y-97399050I0J218750D01*
G01*
X166885600Y-96961550D01*
G75*
G02*
X167104350Y-96742800I218750J0D01*
G01*
X167616850Y-96742800D01*
G75*
G02*
X167835600Y-96961550I0J-218750D01*
G01*
X167835600Y-97399050D01*
G75*
G02*
X167616850Y-97617800I-218750J0D01*
G01*
G37*
%TD*%
%TO.C,C10*%
G36*
G01*
X156363350Y-99819400D02*
X157275850Y-99819400D01*
G75*
G02*
X157519600Y-100063150I0J-243750D01*
G01*
X157519600Y-100550650D01*
G75*
G02*
X157275850Y-100794400I-243750J0D01*
G01*
X156363350Y-100794400D01*
G75*
G02*
X156119600Y-100550650I0J243750D01*
G01*
X156119600Y-100063150D01*
G75*
G02*
X156363350Y-99819400I243750J0D01*
G01*
G37*
G36*
G01*
X156363350Y-101694400D02*
X157275850Y-101694400D01*
G75*
G02*
X157519600Y-101938150I0J-243750D01*
G01*
X157519600Y-102425650D01*
G75*
G02*
X157275850Y-102669400I-243750J0D01*
G01*
X156363350Y-102669400D01*
G75*
G02*
X156119600Y-102425650I0J243750D01*
G01*
X156119600Y-101938150D01*
G75*
G02*
X156363350Y-101694400I243750J0D01*
G01*
G37*
%TD*%
D13*
%TO.C,D15*%
X119131250Y-101000000D03*
X119131250Y-96600000D03*
%TD*%
%TO.C,R10*%
G36*
G01*
X174371950Y-96390400D02*
X175284450Y-96390400D01*
G75*
G02*
X175528200Y-96634150I0J-243750D01*
G01*
X175528200Y-97121650D01*
G75*
G02*
X175284450Y-97365400I-243750J0D01*
G01*
X174371950Y-97365400D01*
G75*
G02*
X174128200Y-97121650I0J243750D01*
G01*
X174128200Y-96634150D01*
G75*
G02*
X174371950Y-96390400I243750J0D01*
G01*
G37*
G36*
G01*
X174371950Y-98265400D02*
X175284450Y-98265400D01*
G75*
G02*
X175528200Y-98509150I0J-243750D01*
G01*
X175528200Y-98996650D01*
G75*
G02*
X175284450Y-99240400I-243750J0D01*
G01*
X174371950Y-99240400D01*
G75*
G02*
X174128200Y-98996650I0J243750D01*
G01*
X174128200Y-98509150D01*
G75*
G02*
X174371950Y-98265400I243750J0D01*
G01*
G37*
%TD*%
%TO.C,D4*%
G36*
G01*
X169201450Y-79797000D02*
X168288950Y-79797000D01*
G75*
G02*
X168045200Y-79553250I0J243750D01*
G01*
X168045200Y-79065750D01*
G75*
G02*
X168288950Y-78822000I243750J0D01*
G01*
X169201450Y-78822000D01*
G75*
G02*
X169445200Y-79065750I0J-243750D01*
G01*
X169445200Y-79553250D01*
G75*
G02*
X169201450Y-79797000I-243750J0D01*
G01*
G37*
G36*
G01*
X169201450Y-77922000D02*
X168288950Y-77922000D01*
G75*
G02*
X168045200Y-77678250I0J243750D01*
G01*
X168045200Y-77190750D01*
G75*
G02*
X168288950Y-76947000I243750J0D01*
G01*
X169201450Y-76947000D01*
G75*
G02*
X169445200Y-77190750I0J-243750D01*
G01*
X169445200Y-77678250D01*
G75*
G02*
X169201450Y-77922000I-243750J0D01*
G01*
G37*
%TD*%
%TO.C,U2*%
G36*
G01*
X150662200Y-74394600D02*
X151212200Y-74394600D01*
G75*
G02*
X151462200Y-74644600I0J-250000D01*
G01*
X151462200Y-75194600D01*
G75*
G02*
X151212200Y-75444600I-250000J0D01*
G01*
X150662200Y-75444600D01*
G75*
G02*
X150412200Y-75194600I0J250000D01*
G01*
X150412200Y-74644600D01*
G75*
G02*
X150662200Y-74394600I250000J0D01*
G01*
G37*
G36*
G01*
X151962200Y-73094600D02*
X152512200Y-73094600D01*
G75*
G02*
X152762200Y-73344600I0J-250000D01*
G01*
X152762200Y-73894600D01*
G75*
G02*
X152512200Y-74144600I-250000J0D01*
G01*
X151962200Y-74144600D01*
G75*
G02*
X151712200Y-73894600I0J250000D01*
G01*
X151712200Y-73344600D01*
G75*
G02*
X151962200Y-73094600I250000J0D01*
G01*
G37*
G36*
G01*
X150662200Y-73094600D02*
X151212200Y-73094600D01*
G75*
G02*
X151462200Y-73344600I0J-250000D01*
G01*
X151462200Y-73894600D01*
G75*
G02*
X151212200Y-74144600I-250000J0D01*
G01*
X150662200Y-74144600D01*
G75*
G02*
X150412200Y-73894600I0J250000D01*
G01*
X150412200Y-73344600D01*
G75*
G02*
X150662200Y-73094600I250000J0D01*
G01*
G37*
G36*
G01*
X151962200Y-74394600D02*
X152512200Y-74394600D01*
G75*
G02*
X152762200Y-74644600I0J-250000D01*
G01*
X152762200Y-75194600D01*
G75*
G02*
X152512200Y-75444600I-250000J0D01*
G01*
X151962200Y-75444600D01*
G75*
G02*
X151712200Y-75194600I0J250000D01*
G01*
X151712200Y-74644600D01*
G75*
G02*
X151962200Y-74394600I250000J0D01*
G01*
G37*
G36*
G01*
X152774700Y-71919600D02*
X152899700Y-71919600D01*
G75*
G02*
X152962200Y-71982100I0J-62500D01*
G01*
X152962200Y-72682100D01*
G75*
G02*
X152899700Y-72744600I-62500J0D01*
G01*
X152774700Y-72744600D01*
G75*
G02*
X152712200Y-72682100I0J62500D01*
G01*
X152712200Y-71982100D01*
G75*
G02*
X152774700Y-71919600I62500J0D01*
G01*
G37*
G36*
G01*
X152274700Y-71919600D02*
X152399700Y-71919600D01*
G75*
G02*
X152462200Y-71982100I0J-62500D01*
G01*
X152462200Y-72682100D01*
G75*
G02*
X152399700Y-72744600I-62500J0D01*
G01*
X152274700Y-72744600D01*
G75*
G02*
X152212200Y-72682100I0J62500D01*
G01*
X152212200Y-71982100D01*
G75*
G02*
X152274700Y-71919600I62500J0D01*
G01*
G37*
G36*
G01*
X151774700Y-71919600D02*
X151899700Y-71919600D01*
G75*
G02*
X151962200Y-71982100I0J-62500D01*
G01*
X151962200Y-72682100D01*
G75*
G02*
X151899700Y-72744600I-62500J0D01*
G01*
X151774700Y-72744600D01*
G75*
G02*
X151712200Y-72682100I0J62500D01*
G01*
X151712200Y-71982100D01*
G75*
G02*
X151774700Y-71919600I62500J0D01*
G01*
G37*
G36*
G01*
X151274700Y-71919600D02*
X151399700Y-71919600D01*
G75*
G02*
X151462200Y-71982100I0J-62500D01*
G01*
X151462200Y-72682100D01*
G75*
G02*
X151399700Y-72744600I-62500J0D01*
G01*
X151274700Y-72744600D01*
G75*
G02*
X151212200Y-72682100I0J62500D01*
G01*
X151212200Y-71982100D01*
G75*
G02*
X151274700Y-71919600I62500J0D01*
G01*
G37*
G36*
G01*
X150774700Y-71919600D02*
X150899700Y-71919600D01*
G75*
G02*
X150962200Y-71982100I0J-62500D01*
G01*
X150962200Y-72682100D01*
G75*
G02*
X150899700Y-72744600I-62500J0D01*
G01*
X150774700Y-72744600D01*
G75*
G02*
X150712200Y-72682100I0J62500D01*
G01*
X150712200Y-71982100D01*
G75*
G02*
X150774700Y-71919600I62500J0D01*
G01*
G37*
G36*
G01*
X150274700Y-71919600D02*
X150399700Y-71919600D01*
G75*
G02*
X150462200Y-71982100I0J-62500D01*
G01*
X150462200Y-72682100D01*
G75*
G02*
X150399700Y-72744600I-62500J0D01*
G01*
X150274700Y-72744600D01*
G75*
G02*
X150212200Y-72682100I0J62500D01*
G01*
X150212200Y-71982100D01*
G75*
G02*
X150274700Y-71919600I62500J0D01*
G01*
G37*
G36*
G01*
X149299700Y-72894600D02*
X149999700Y-72894600D01*
G75*
G02*
X150062200Y-72957100I0J-62500D01*
G01*
X150062200Y-73082100D01*
G75*
G02*
X149999700Y-73144600I-62500J0D01*
G01*
X149299700Y-73144600D01*
G75*
G02*
X149237200Y-73082100I0J62500D01*
G01*
X149237200Y-72957100D01*
G75*
G02*
X149299700Y-72894600I62500J0D01*
G01*
G37*
G36*
G01*
X149299700Y-73394600D02*
X149999700Y-73394600D01*
G75*
G02*
X150062200Y-73457100I0J-62500D01*
G01*
X150062200Y-73582100D01*
G75*
G02*
X149999700Y-73644600I-62500J0D01*
G01*
X149299700Y-73644600D01*
G75*
G02*
X149237200Y-73582100I0J62500D01*
G01*
X149237200Y-73457100D01*
G75*
G02*
X149299700Y-73394600I62500J0D01*
G01*
G37*
G36*
G01*
X149299700Y-73894600D02*
X149999700Y-73894600D01*
G75*
G02*
X150062200Y-73957100I0J-62500D01*
G01*
X150062200Y-74082100D01*
G75*
G02*
X149999700Y-74144600I-62500J0D01*
G01*
X149299700Y-74144600D01*
G75*
G02*
X149237200Y-74082100I0J62500D01*
G01*
X149237200Y-73957100D01*
G75*
G02*
X149299700Y-73894600I62500J0D01*
G01*
G37*
G36*
G01*
X149299700Y-74394600D02*
X149999700Y-74394600D01*
G75*
G02*
X150062200Y-74457100I0J-62500D01*
G01*
X150062200Y-74582100D01*
G75*
G02*
X149999700Y-74644600I-62500J0D01*
G01*
X149299700Y-74644600D01*
G75*
G02*
X149237200Y-74582100I0J62500D01*
G01*
X149237200Y-74457100D01*
G75*
G02*
X149299700Y-74394600I62500J0D01*
G01*
G37*
G36*
G01*
X149299700Y-74894600D02*
X149999700Y-74894600D01*
G75*
G02*
X150062200Y-74957100I0J-62500D01*
G01*
X150062200Y-75082100D01*
G75*
G02*
X149999700Y-75144600I-62500J0D01*
G01*
X149299700Y-75144600D01*
G75*
G02*
X149237200Y-75082100I0J62500D01*
G01*
X149237200Y-74957100D01*
G75*
G02*
X149299700Y-74894600I62500J0D01*
G01*
G37*
G36*
G01*
X149299700Y-75394600D02*
X149999700Y-75394600D01*
G75*
G02*
X150062200Y-75457100I0J-62500D01*
G01*
X150062200Y-75582100D01*
G75*
G02*
X149999700Y-75644600I-62500J0D01*
G01*
X149299700Y-75644600D01*
G75*
G02*
X149237200Y-75582100I0J62500D01*
G01*
X149237200Y-75457100D01*
G75*
G02*
X149299700Y-75394600I62500J0D01*
G01*
G37*
G36*
G01*
X150274700Y-75794600D02*
X150399700Y-75794600D01*
G75*
G02*
X150462200Y-75857100I0J-62500D01*
G01*
X150462200Y-76557100D01*
G75*
G02*
X150399700Y-76619600I-62500J0D01*
G01*
X150274700Y-76619600D01*
G75*
G02*
X150212200Y-76557100I0J62500D01*
G01*
X150212200Y-75857100D01*
G75*
G02*
X150274700Y-75794600I62500J0D01*
G01*
G37*
G36*
G01*
X150774700Y-75794600D02*
X150899700Y-75794600D01*
G75*
G02*
X150962200Y-75857100I0J-62500D01*
G01*
X150962200Y-76557100D01*
G75*
G02*
X150899700Y-76619600I-62500J0D01*
G01*
X150774700Y-76619600D01*
G75*
G02*
X150712200Y-76557100I0J62500D01*
G01*
X150712200Y-75857100D01*
G75*
G02*
X150774700Y-75794600I62500J0D01*
G01*
G37*
G36*
G01*
X151274700Y-75794600D02*
X151399700Y-75794600D01*
G75*
G02*
X151462200Y-75857100I0J-62500D01*
G01*
X151462200Y-76557100D01*
G75*
G02*
X151399700Y-76619600I-62500J0D01*
G01*
X151274700Y-76619600D01*
G75*
G02*
X151212200Y-76557100I0J62500D01*
G01*
X151212200Y-75857100D01*
G75*
G02*
X151274700Y-75794600I62500J0D01*
G01*
G37*
G36*
G01*
X151774700Y-75794600D02*
X151899700Y-75794600D01*
G75*
G02*
X151962200Y-75857100I0J-62500D01*
G01*
X151962200Y-76557100D01*
G75*
G02*
X151899700Y-76619600I-62500J0D01*
G01*
X151774700Y-76619600D01*
G75*
G02*
X151712200Y-76557100I0J62500D01*
G01*
X151712200Y-75857100D01*
G75*
G02*
X151774700Y-75794600I62500J0D01*
G01*
G37*
G36*
G01*
X152274700Y-75794600D02*
X152399700Y-75794600D01*
G75*
G02*
X152462200Y-75857100I0J-62500D01*
G01*
X152462200Y-76557100D01*
G75*
G02*
X152399700Y-76619600I-62500J0D01*
G01*
X152274700Y-76619600D01*
G75*
G02*
X152212200Y-76557100I0J62500D01*
G01*
X152212200Y-75857100D01*
G75*
G02*
X152274700Y-75794600I62500J0D01*
G01*
G37*
G36*
G01*
X152774700Y-75794600D02*
X152899700Y-75794600D01*
G75*
G02*
X152962200Y-75857100I0J-62500D01*
G01*
X152962200Y-76557100D01*
G75*
G02*
X152899700Y-76619600I-62500J0D01*
G01*
X152774700Y-76619600D01*
G75*
G02*
X152712200Y-76557100I0J62500D01*
G01*
X152712200Y-75857100D01*
G75*
G02*
X152774700Y-75794600I62500J0D01*
G01*
G37*
G36*
G01*
X153174700Y-75394600D02*
X153874700Y-75394600D01*
G75*
G02*
X153937200Y-75457100I0J-62500D01*
G01*
X153937200Y-75582100D01*
G75*
G02*
X153874700Y-75644600I-62500J0D01*
G01*
X153174700Y-75644600D01*
G75*
G02*
X153112200Y-75582100I0J62500D01*
G01*
X153112200Y-75457100D01*
G75*
G02*
X153174700Y-75394600I62500J0D01*
G01*
G37*
G36*
G01*
X153174700Y-74894600D02*
X153874700Y-74894600D01*
G75*
G02*
X153937200Y-74957100I0J-62500D01*
G01*
X153937200Y-75082100D01*
G75*
G02*
X153874700Y-75144600I-62500J0D01*
G01*
X153174700Y-75144600D01*
G75*
G02*
X153112200Y-75082100I0J62500D01*
G01*
X153112200Y-74957100D01*
G75*
G02*
X153174700Y-74894600I62500J0D01*
G01*
G37*
G36*
G01*
X153174700Y-74394600D02*
X153874700Y-74394600D01*
G75*
G02*
X153937200Y-74457100I0J-62500D01*
G01*
X153937200Y-74582100D01*
G75*
G02*
X153874700Y-74644600I-62500J0D01*
G01*
X153174700Y-74644600D01*
G75*
G02*
X153112200Y-74582100I0J62500D01*
G01*
X153112200Y-74457100D01*
G75*
G02*
X153174700Y-74394600I62500J0D01*
G01*
G37*
G36*
G01*
X153174700Y-73894600D02*
X153874700Y-73894600D01*
G75*
G02*
X153937200Y-73957100I0J-62500D01*
G01*
X153937200Y-74082100D01*
G75*
G02*
X153874700Y-74144600I-62500J0D01*
G01*
X153174700Y-74144600D01*
G75*
G02*
X153112200Y-74082100I0J62500D01*
G01*
X153112200Y-73957100D01*
G75*
G02*
X153174700Y-73894600I62500J0D01*
G01*
G37*
G36*
G01*
X153174700Y-73394600D02*
X153874700Y-73394600D01*
G75*
G02*
X153937200Y-73457100I0J-62500D01*
G01*
X153937200Y-73582100D01*
G75*
G02*
X153874700Y-73644600I-62500J0D01*
G01*
X153174700Y-73644600D01*
G75*
G02*
X153112200Y-73582100I0J62500D01*
G01*
X153112200Y-73457100D01*
G75*
G02*
X153174700Y-73394600I62500J0D01*
G01*
G37*
G36*
G01*
X153174700Y-72894600D02*
X153874700Y-72894600D01*
G75*
G02*
X153937200Y-72957100I0J-62500D01*
G01*
X153937200Y-73082100D01*
G75*
G02*
X153874700Y-73144600I-62500J0D01*
G01*
X153174700Y-73144600D01*
G75*
G02*
X153112200Y-73082100I0J62500D01*
G01*
X153112200Y-72957100D01*
G75*
G02*
X153174700Y-72894600I62500J0D01*
G01*
G37*
%TD*%
%TO.C,R18*%
G36*
G01*
X195834950Y-99768600D02*
X196747450Y-99768600D01*
G75*
G02*
X196991200Y-100012350I0J-243750D01*
G01*
X196991200Y-100499850D01*
G75*
G02*
X196747450Y-100743600I-243750J0D01*
G01*
X195834950Y-100743600D01*
G75*
G02*
X195591200Y-100499850I0J243750D01*
G01*
X195591200Y-100012350D01*
G75*
G02*
X195834950Y-99768600I243750J0D01*
G01*
G37*
G36*
G01*
X195834950Y-101643600D02*
X196747450Y-101643600D01*
G75*
G02*
X196991200Y-101887350I0J-243750D01*
G01*
X196991200Y-102374850D01*
G75*
G02*
X196747450Y-102618600I-243750J0D01*
G01*
X195834950Y-102618600D01*
G75*
G02*
X195591200Y-102374850I0J243750D01*
G01*
X195591200Y-101887350D01*
G75*
G02*
X195834950Y-101643600I243750J0D01*
G01*
G37*
%TD*%
%TO.C,R1*%
G36*
G01*
X179869450Y-79797000D02*
X178956950Y-79797000D01*
G75*
G02*
X178713200Y-79553250I0J243750D01*
G01*
X178713200Y-79065750D01*
G75*
G02*
X178956950Y-78822000I243750J0D01*
G01*
X179869450Y-78822000D01*
G75*
G02*
X180113200Y-79065750I0J-243750D01*
G01*
X180113200Y-79553250D01*
G75*
G02*
X179869450Y-79797000I-243750J0D01*
G01*
G37*
G36*
G01*
X179869450Y-77922000D02*
X178956950Y-77922000D01*
G75*
G02*
X178713200Y-77678250I0J243750D01*
G01*
X178713200Y-77190750D01*
G75*
G02*
X178956950Y-76947000I243750J0D01*
G01*
X179869450Y-76947000D01*
G75*
G02*
X180113200Y-77190750I0J-243750D01*
G01*
X180113200Y-77678250D01*
G75*
G02*
X179869450Y-77922000I-243750J0D01*
G01*
G37*
%TD*%
D14*
%TO.C,U1*%
X169321200Y-83344400D03*
X169321200Y-84144400D03*
X169321200Y-84944400D03*
X169321200Y-85744400D03*
X169321200Y-86544400D03*
X169321200Y-87344400D03*
X169321200Y-88144400D03*
X169321200Y-88944400D03*
D15*
X170771200Y-90394400D03*
X171571200Y-90394400D03*
X172371200Y-90394400D03*
X173171200Y-90394400D03*
X173971200Y-90394400D03*
X174771200Y-90394400D03*
X175571200Y-90394400D03*
X176371200Y-90394400D03*
D14*
X177821200Y-88944400D03*
X177821200Y-88144400D03*
X177821200Y-87344400D03*
X177821200Y-86544400D03*
X177821200Y-85744400D03*
X177821200Y-84944400D03*
X177821200Y-84144400D03*
X177821200Y-83344400D03*
D15*
X176371200Y-81894400D03*
X175571200Y-81894400D03*
X174771200Y-81894400D03*
X173971200Y-81894400D03*
X173171200Y-81894400D03*
X172371200Y-81894400D03*
X171571200Y-81894400D03*
X170771200Y-81894400D03*
%TD*%
%TO.C,D11*%
G36*
G01*
X140056250Y-101925000D02*
X139543750Y-101925000D01*
G75*
G02*
X139325000Y-101706250I0J218750D01*
G01*
X139325000Y-101268750D01*
G75*
G02*
X139543750Y-101050000I218750J0D01*
G01*
X140056250Y-101050000D01*
G75*
G02*
X140275000Y-101268750I0J-218750D01*
G01*
X140275000Y-101706250D01*
G75*
G02*
X140056250Y-101925000I-218750J0D01*
G01*
G37*
G36*
G01*
X140056250Y-100350000D02*
X139543750Y-100350000D01*
G75*
G02*
X139325000Y-100131250I0J218750D01*
G01*
X139325000Y-99693750D01*
G75*
G02*
X139543750Y-99475000I218750J0D01*
G01*
X140056250Y-99475000D01*
G75*
G02*
X140275000Y-99693750I0J-218750D01*
G01*
X140275000Y-100131250D01*
G75*
G02*
X140056250Y-100350000I-218750J0D01*
G01*
G37*
%TD*%
%TO.C,D8*%
G36*
G01*
X155145450Y-99243600D02*
X154632950Y-99243600D01*
G75*
G02*
X154414200Y-99024850I0J218750D01*
G01*
X154414200Y-98587350D01*
G75*
G02*
X154632950Y-98368600I218750J0D01*
G01*
X155145450Y-98368600D01*
G75*
G02*
X155364200Y-98587350I0J-218750D01*
G01*
X155364200Y-99024850D01*
G75*
G02*
X155145450Y-99243600I-218750J0D01*
G01*
G37*
G36*
G01*
X155145450Y-97668600D02*
X154632950Y-97668600D01*
G75*
G02*
X154414200Y-97449850I0J218750D01*
G01*
X154414200Y-97012350D01*
G75*
G02*
X154632950Y-96793600I218750J0D01*
G01*
X155145450Y-96793600D01*
G75*
G02*
X155364200Y-97012350I0J-218750D01*
G01*
X155364200Y-97449850D01*
G75*
G02*
X155145450Y-97668600I-218750J0D01*
G01*
G37*
%TD*%
M02*
